<?xml version="1.0" standalone="no"?>
<!DOCTYPE svg PUBLIC "-//W3C//DTD SVG 1.1//EN" "http://www.w3.org/Graphics/SVG/1.1/DTD/svg11.dtd" >
<svg xmlns="http://www.w3.org/2000/svg">
<metadata>
Created by FontPrep 20130207 at Wed Jan  4 16:09:49 2017
 By jean-christophe suzanne
(c) 2010 Klim Type Foundry. All rights reserved.
</metadata>
<defs>
<font id="b7b7acd6582d65408887177a0f7c2aa1" horiz-adv-x='1024' >
  <font-face 
    font-family="TiemposHeadline-Light"
    font-weight="300"
    font-stretch="normal"
    units-per-em="2048"
    panose-1="2 2 3 3 6 3 3 6 4 3"
    ascent="1604"
    descent="-444"
    x-height="1065"
    cap-height="1438"
    bbox="-195 -461 2404 2116"
    underline-thickness="61"
    underline-position="-144"
    unicode-range="U+0020-FB04"
  />
<missing-glyph horiz-adv-x="1966" 
d="M1075 799l563 -563v1126zM891 799l-563 563v-1126zM412 1462l571 -571l571 571h-1142zM983 707l-571 -572h1142zM184 0v1597h1598v-1597h-1598z" />
    <glyph glyph-name="ff" unicode="ff" horiz-adv-x="1265" 
d="M807 1214q0 92 24 166q-86 133 -225 133q-238 0 -237 -319v-129h438v149zM184 1126q0 197 122 318t298 121t287 -78q98 117 278 117q215 0 215 -148q0 -70 -59 -102h-106q6 31 6 69q0 131 -99 131q-135 0 -135 -225v-264h264v-78h-264v-831q0 -58 38 -78t145 -25v-53
h-508v53q84 3 112 23t29 80v831h-438v-831q0 -59 28 -79q29 -19 113 -24v-53h-467v53q84 3 113 23t28 80v831h-151v29l151 61v49z" />
    <glyph glyph-name="fi" unicode="fi" horiz-adv-x="1163" 
d="M991 1085v-929q0 -58 29 -78t113 -25v-53h-467v53q84 3 112 23t29 80v831h-438v-831q0 -59 28 -79q29 -19 113 -24v-53h-467v53q84 3 113 23t28 80v831h-151v29l151 61v72q0 219 118 337t308 118q123 0 197 -41t74 -113t-66 -109h-117q6 31 7 66q0 143 -140 143
q-96 0 -146 -82t-50 -231v-172h510l79 20h33z" />
    <glyph glyph-name="fl" unicode="fl" horiz-adv-x="1163" 
d="M991 1604v-1448q0 -58 29 -78t113 -25v-53h-467v53q84 3 112 23t29 80v1216q-74 180 -238 180q-201 0 -200 -286v-201h264v-78h-264v-831q0 -59 28 -79q29 -19 113 -24v-53h-467v53q84 3 113 23t28 80v831h-151v29l151 61v137q0 182 108 286t281 104q131 0 232 -66
l162 66h24z" />
    <glyph glyph-name="ffi" unicode="ffi" horiz-adv-x="1785" 
d="M807 1149q0 121 37 211q-88 154 -238 153q-238 0 -237 -319v-129h438v84zM184 1126q0 197 122 318t304 121t301 -92q119 131 322 131q123 0 197 -41t74 -113t-66 -109h-117q6 31 6 66q0 143 -139 143q-96 0 -146 -82t-51 -231v-172h510l80 20h33v-929q0 -59 28 -79
q29 -19 113 -24v-53h-467v53q84 3 113 23t29 80v831h-439v-831q0 -58 29 -78t113 -25v-53h-467v53q84 3 112 23t29 80v831h-438v-831q0 -59 28 -79q29 -19 113 -24v-53h-467v53q84 3 113 23t28 80v831h-151v29l151 61v49z" />
    <glyph glyph-name="ffl" unicode="ffl" horiz-adv-x="1785" 
d="M807 1065v149q0 94 27 162q-86 137 -228 137q-238 0 -237 -319v-129h438zM605 1565q177 0 292 -82q109 121 299 121q131 0 231 -66l162 66h25v-1448q0 -59 28 -79q29 -19 113 -24v-53h-467v53q84 3 113 23t29 80v1216q-74 180 -238 180q-201 0 -201 -286v-201h264v-78
h-264v-831q0 -58 29 -78t113 -25v-53h-467v53q84 3 112 23t29 80v831h-438v-831q0 -59 28 -79q29 -19 113 -24v-53h-467v53q84 3 113 23t28 80v831h-151v29l151 61v49q0 197 122 318t299 121z" />
    <glyph glyph-name="f_b" unicode="fb" horiz-adv-x="1787" 
d="M1225 35q147 0 238 136t91 339q0 268 -134 389q-75 68 -185 68q-147 0 -244 -111v-563q1 -258 234 -258zM569 1552q-201 0 -200 -286v-201h264v-78h-264v-831q0 -59 28 -79q29 -19 113 -24v-53h-467v53q84 3 113 23t28 80v831h-151v29l151 61v137q0 182 108 286t281 104
q131 0 232 -66l162 66h24v-701q133 182 333 182t308 -133q106 -133 107 -358q1 -276 -147 -446t-384 -168q-236 0 -401 147v1245q-74 180 -238 180z" />
    <glyph glyph-name="f_f_b" unicode="ffb" horiz-adv-x="2410" 
d="M807 1214q0 94 27 162q-86 137 -228 137q-238 0 -237 -319v-129h438v149zM1847 35q147 0 239 136q91 136 91 339q0 266 -134 389q-75 68 -185 68q-147 0 -244 -111v-563q0 -258 233 -258zM1192 1552q-201 0 -201 -286v-201h264v-78h-264v-831q0 -58 29 -78t113 -25v-53
h-467v53q84 3 112 23t29 80v831h-438v-831q0 -59 28 -79q29 -19 113 -24v-53h-467v53q84 3 113 23t28 80v831h-151v29l151 61v49q0 197 122 318t299 121t292 -82q109 121 299 121q131 0 231 -66l162 66h25v-701q134 182 334 182t306 -133t107 -358q0 -276 -147 -446
q-148 -170 -384 -168q-236 0 -400 147v1245q-74 180 -238 180z" />
    <glyph glyph-name="f_h" unicode="fh" horiz-adv-x="1806" 
d="M807 156v1216q-74 180 -238 180q-201 0 -200 -286v-201h264v-78h-264v-831q0 -59 28 -79q29 -19 113 -24v-53h-467v53q84 3 113 23t28 80v831h-151v29l151 61v137q0 182 108 286t281 104q131 0 232 -66l162 66h24v-713q176 195 373 194q276 0 276 -335v-594q0 -58 29 -78
t113 -25v-53h-467v53q85 3 113 23t28 80v596q0 215 -182 215q-139 0 -283 -125v-686q0 -58 29 -78t113 -25v-53h-467v53q84 4 112 24t29 79z" />
    <glyph glyph-name="f_f_h" unicode="ffh" horiz-adv-x="2428" 
d="M807 1214q0 94 27 162q-86 137 -228 137q-238 0 -237 -319v-129h438v149zM1430 156v1216q-74 180 -238 180q-201 0 -201 -286v-201h264v-78h-264v-831q0 -58 29 -78t113 -25v-53h-467v53q84 3 112 23t29 80v831h-438v-831q0 -59 28 -79q29 -19 113 -24v-53h-467v53
q84 3 113 23t28 80v831h-151v29l151 61v49q0 197 122 318t299 121t292 -82q109 121 299 121q131 0 231 -66l162 66h25v-713q176 195 373 194q276 0 276 -335v-594q0 -58 29 -78t112 -25v-53h-467v53q84 3 113 23t29 80v596q0 215 -183 215q-139 0 -282 -125v-686
q0 -59 28 -79q29 -19 113 -24v-53h-467v53q84 4 113 24t29 79z" />
    <glyph glyph-name="f_idieresis" unicode="f&#xef;" horiz-adv-x="1163" 
d="M944 1372q0 53 37 90t89 37t89 -37t37 -90t-37 -90t-89 -37t-89 37t-37 90zM991 1085v-929q0 -58 29 -78t113 -25v-53h-467v53q84 3 112 23t29 80v831h-438v-831q0 -59 28 -79q29 -19 113 -24v-53h-467v53q84 3 113 23t28 80v831h-151v29l151 61v72q0 217 110 336
t290 119q124 0 198 -58t74 -147q0 -88 -70 -127h-112q14 47 14 94q0 184 -139 184q-180 0 -180 -313v-172h510l79 20h33z" />
    <glyph glyph-name="f_f_idieresis" unicode="ff&#xef;" horiz-adv-x="1785" 
d="M1567 1372q0 53 37 90t89 37t89 -37t37 -90t-37 -90t-89 -37t-89 37t-37 90zM807 1065v84q0 121 35 213q-88 152 -236 151q-238 0 -237 -319v-129h438zM608 1565q180 0 301 -90q106 129 297 129q125 0 199 -58t74 -147q0 -88 -70 -127h-113q14 47 15 94q0 184 -140 184
q-180 0 -180 -313v-172h510l80 20h33v-929q0 -59 28 -79q29 -19 113 -24v-53h-467v53q84 3 113 23t29 80v831h-439v-831q0 -58 29 -78t113 -25v-53h-467v53q84 3 112 23t29 80v831h-438v-831q0 -59 28 -79q29 -19 113 -24v-53h-467v53q84 3 113 23t28 80v831h-151v29l151 61
v49q0 197 122 318t302 121z" />
    <glyph glyph-name="f_j" unicode="fj" horiz-adv-x="1142" 
d="M807 987h-438v-831q0 -59 28 -79q29 -19 113 -24v-53h-467v53q84 3 113 23t28 80v831h-151v29l151 61v72q0 219 118 337t308 118q123 0 197 -41t74 -113t-66 -109h-117q6 31 7 66q0 143 -140 143q-96 0 -146 -82t-50 -231v-172h510l79 20h33v-913q0 -135 -10 -200
t-43 -132q-59 -119 -252 -297l-31 23l84 147q45 78 57 162q11 84 11 231v881z" />
    <glyph glyph-name="f_f_j" unicode="ffj" horiz-adv-x="1765" 
d="M807 1149q0 121 37 211q-88 154 -238 153q-238 0 -237 -319v-129h438v84zM1430 987h-439v-831q0 -58 29 -78t113 -25v-53h-467v53q84 3 112 23t29 80v831h-438v-831q0 -59 28 -79q29 -19 113 -24v-53h-467v53q84 3 113 23t28 80v831h-151v29l151 61v49q0 197 122 318
t304 121t301 -92q119 131 322 131q123 0 197 -41t74 -113t-66 -109h-117q6 31 6 66q0 143 -139 143q-96 0 -146 -82t-51 -231v-172h510l80 20h33v-913q0 -135 -10 -200t-43 -132q-59 -119 -252 -297l-31 23l84 147q45 78 56 162t12 231v881z" />
    <glyph glyph-name="f_k" unicode="fk" horiz-adv-x="1714" 
d="M807 156v1216q-74 180 -238 180q-201 0 -200 -286v-201h264v-78h-264v-831q0 -59 28 -79q29 -19 113 -24v-53h-467v53q84 3 113 23t28 80v831h-151v29l151 61v137q0 182 108 286t281 104q131 0 232 -66l162 66h24v-1448q0 -58 29 -78t113 -25v-53h-467v53q84 4 112 24
t29 79zM1397 958q0 37 -109 50q-18 2 -28 4v53h405v-53q-102 -25 -162 -78l-311 -283l522 -612v-39h-207l-491 584l330 301q51 47 51 73z" />
    <glyph glyph-name="f_f_k" unicode="ffk" horiz-adv-x="2336" 
d="M807 1214q0 94 27 162q-86 137 -228 137q-238 0 -237 -319v-129h438v149zM2019 958q0 37 -108 50q-18 2 -29 4v53h406v-53q-102 -25 -162 -78l-311 -283l522 -612v-39h-207l-492 584l330 301q51 47 51 73zM1430 156v1216q-74 180 -238 180q-201 0 -201 -286v-201h264v-78
h-264v-831q0 -58 29 -78t113 -25v-53h-467v53q84 3 112 23t29 80v831h-438v-831q0 -59 28 -79q29 -19 113 -24v-53h-467v53q84 3 113 23t28 80v831h-151v29l151 61v49q0 197 122 318t299 121t292 -82q109 121 299 121q131 0 231 -66l162 66h25v-1448q0 -59 28 -79
q29 -19 113 -24v-53h-467v53q84 4 113 24t29 79z" />
    <glyph glyph-name=".notdef" horiz-adv-x="1966" 
d="M1075 799l563 -563v1126zM891 799l-563 563v-1126zM412 1462l571 -571l571 571h-1142zM983 707l-571 -572h1142zM184 0v1597h1598v-1597h-1598z" />
    <glyph glyph-name=".null" horiz-adv-x="0" 
 />
    <glyph glyph-name="nonmarkingreturn" horiz-adv-x="681" 
 />
    <glyph glyph-name="space" unicode=" " horiz-adv-x="430" 
 />
    <glyph glyph-name="exclam" unicode="!" horiz-adv-x="487" 
d="M260 416h-35l-106 1022h248zM102 121q0 59 41 100t101 41t100 -41q41 -41 41 -100t-41 -101t-100 -40q-59 0 -101 40q-41 42 -41 101z" />
    <glyph glyph-name="quotedbl" unicode="&#x22;" horiz-adv-x="530" 
d="M299 1450q0 49 24 80q25 31 69 31t68 -31t24 -80t-31 -188l-54 -254h-16l-53 254q-31 139 -31 188zM47 1450q0 49 24 80q25 31 69 31t68 -31t24 -80t-31 -188l-54 -254h-16l-53 254q-31 139 -31 188z" />
    <glyph glyph-name="numbersign" unicode="#" horiz-adv-x="1116" 
d="M477 950l-129 -411h303l131 411h-305zM930 479h-223l-158 -497l-66 20l150 477h-303l-158 -497l-66 20l150 477h-215v60h233l132 411h-220v60h238l143 450l66 -20l-137 -430h305l143 450l66 -20l-138 -430h203v-60h-221l-129 -411h205v-60z" />
    <glyph glyph-name="dollar" unicode="$" horiz-adv-x="1050" 
d="M246 1148q0 -108 54 -169t202 -127l90 530q-47 10 -88 11q-122 0 -190 -69q-68 -68 -68 -176zM498 45q139 1 220 75t81 190q-1 116 -61 182t-218 137l-98 -578q37 -6 76 -6zM498 -20q-33 0 -86 4l-37 -215h-58l37 223q-184 31 -284 121l-13 346h60q57 -315 252 -391
l98 585q-8 2 -25 11q-186 78 -277 164t-91 250q0 163 116 272q117 109 314 108q49 0 98 -6l35 199h57l-35 -207q145 -29 254 -105v-301h-59q-35 256 -209 328l-90 -537q221 -92 319 -188t98 -269q0 -172 -136 -282q-137 -110 -338 -110z" />
    <glyph glyph-name="percent" unicode="%" horiz-adv-x="1519" 
d="M1311 319q0 125 -47 207q-48 82 -140 82t-138 -81t-46 -208t46 -207t138 -79t140 81t47 205zM1458 319q0 -155 -98 -247t-236 -92t-234 93q-97 93 -97 247t97 246q97 93 234 93q138 0 236 -93t98 -247zM272 -20l897 1478h78l-897 -1478h-78zM209 1118q0 -125 47 -207
t139 -82t139 81q46 81 46 208t-46 207t-138 80t-140 -81q-47 -81 -47 -206zM61 1118q1 154 99 247t235 93t235 -93t97 -247q0 -154 -97 -247q-96 -93 -234 -93t-236 93t-99 247z" />
    <glyph glyph-name="ampersand" unicode="&#x26;" horiz-adv-x="1359" 
d="M760 1150q0 112 -52 180q-52 69 -154 69q-102 1 -158 -63q-58 -64 -58 -172t53 -182q53 -73 115 -134l18 -23q133 51 185 132q51 81 51 193zM569 78q168 0 303 112l-503 541q-162 -84 -162 -303q0 -166 97 -258t265 -92zM20 367q0 274 316 399l-12 14q-142 150 -142 318
t108 264t274 96t262 -87q95 -87 96 -216q0 -233 -365 -364l428 -461q76 129 76 284q0 80 -46 108t-157 32v53h488v-53q-104 -4 -148 -33t-55 -115q-29 -182 -115 -323l102 -109q96 -106 230 -119v-55h-273q-70 33 -169 143q-174 -163 -434 -163t-392 166q-72 92 -72 221z
" />
    <glyph glyph-name="quotesingle" unicode="'" horiz-adv-x="278" 
d="M47 1450q0 49 24 80q25 31 69 31t68 -31t24 -80t-31 -188l-54 -254h-16l-53 254q-31 139 -31 188z" />
    <glyph glyph-name="parenleft" unicode="(" horiz-adv-x="692" 
d="M123 643q0 516 428 934h80q-338 -361 -338 -933t338 -935h-80q-428 418 -428 934z" />
    <glyph glyph-name="parenright" unicode=")" horiz-adv-x="692" 
d="M569 643q0 -516 -428 -934h-80q338 361 338 933t-338 935h80q428 -418 428 -934z" />
    <glyph glyph-name="asterisk" unicode="*" horiz-adv-x="823" 
d="M412 834q-29 0 -44 20t-10 57l43 277l-217 -176q-59 -49 -94 6q-31 57 41 86l260 100l-260 101q-72 29 -41 86q35 55 94 6l217 -176l-43 276q-6 37 10 57t44 20q29 0 44 -20t9 -57l-45 -276l219 176q59 49 94 -6q31 -57 -41 -86l-260 -101l260 -100q72 -29 41 -86
q-35 -55 -94 -6l-219 176l45 -277q6 -37 -9 -57t-44 -20z" />
    <glyph glyph-name="plus" unicode="+" horiz-adv-x="1155" 
d="M524 1208h105v-395h397v-106h-397v-396h-105v396h-395v106h395v395z" />
    <glyph glyph-name="comma" unicode="," horiz-adv-x="405" 
d="M212 240q60 0 96 -47t36 -123q0 -127 -76 -212t-215 -96v48q81 14 133 63t60 127h-74q-41 8 -68 38q-26 30 -26 81t37 86t97 35z" />
    <glyph glyph-name="hyphen" unicode="-" horiz-adv-x="655" 
d="M594 569h-533v93h533v-93z" />
    <glyph glyph-name="period" unicode="." horiz-adv-x="405" 
d="M61 121q0 59 41 100q40 41 100 41t101 -41t41 -100t-41 -101t-100 -40q-59 0 -101 40q-41 42 -41 101z" />
    <glyph glyph-name="slash" unicode="/" horiz-adv-x="772" 
d="M715 1577l-615 -1866h-80l615 1866h80z" />
    <glyph glyph-name="zero" unicode="0" horiz-adv-x="1228" 
d="M614 -20q-254 0 -400 210t-146 528q0 320 146 530t400 210t400 -210t147 -529q0 -319 -146 -530q-147 -209 -401 -209zM944 719q0 131 -15 244t-50 215t-103 161t-162 59t-162 -58q-68 -60 -102 -162q-35 -102 -50 -215t-15 -244t15 -244q58 -436 314 -436q94 0 162 59
q68 60 103 162t50 215t15 244z" />
    <glyph glyph-name="one" unicode="1" horiz-adv-x="751" 
d="M723 0h-672v55q164 10 203 37t39 121v981h-244v49l82 17q133 28 201 66t125 130h37v-1243q0 -94 38 -121t191 -37v-55z" />
    <glyph glyph-name="two" unicode="2" horiz-adv-x="1042" 
d="M602 174q137 0 201 37q63 37 135 174h51l-84 -385h-897v45l359 367q205 211 278 336q74 125 74 264t-73 215t-204 76q-207 0 -352 -195l-37 25q174 326 473 325q182 0 286 -97t106 -273q0 -176 -173 -380q-84 -99 -161 -179q-78 -79 -193 -187t-172 -168h383z" />
    <glyph glyph-name="three" unicode="3" horiz-adv-x="1011" 
d="M961 426q1 -207 -137 -327q-138 -119 -350 -119t-338 86t-126 196t90 152h119q-12 -43 -12 -105q0 -123 74 -197q73 -74 203 -73q130 0 208 92q78 93 78 245t-115 241t-301 90h-71l-11 45q190 57 270 108q80 52 111 108t31 143t-60 149t-173 63q-182 0 -304 -164l-32 27
q127 272 413 272q156 0 249 -84t93 -221t-97 -218t-226 -114q182 -18 298 -131t116 -264z" />
    <glyph glyph-name="four" unicode="4" horiz-adv-x="1167" 
d="M686 190v216h-666v40l760 992h99v-963h247v-69h-247v-216q1 -84 31 -108t149 -37v-45h-553v45q120 13 150 37t30 108zM686 475v723l-557 -723h557z" />
    <glyph glyph-name="five" unicode="5" horiz-adv-x="987" 
d="M936 434q0 -201 -130 -328q-130 -126 -339 -126t-328 85t-119 193t86 156h123q-14 -61 -14 -115q0 -260 252 -260q139 0 225 87t86 230q0 202 -167 306t-468 106l117 670h465q59 0 83 13t58 77h45l-51 -279h-561l-53 -319q318 -12 504 -132t186 -364z" />
    <glyph glyph-name="six" unicode="6" horiz-adv-x="1132" 
d="M889 412q0 172 -85 276t-248 105q-163 0 -284 -105q-2 -29 -2 -90q0 -260 88 -408t232 -149q144 0 221 99q78 100 78 272zM662 901q180 -1 294 -111t115 -321q0 -211 -135 -350t-340 -139q-248 0 -388 166t-140 425q0 332 211 575t571 308l41 -41q-274 -76 -428 -251
t-184 -427q59 66 158 116t225 50z" />
    <glyph glyph-name="seven" unicode="7" horiz-adv-x="978" 
d="M289 1255q-72 -1 -111 -37t-88 -139h-59l88 359h850v-58l-584 -1380h-195l660 1255h-561z" />
    <glyph glyph-name="eight" unicode="8" horiz-adv-x="1089" 
d="M811 1128q0 112 -72 191q-71 78 -193 78t-193 -69t-71 -174q0 -106 47 -156q46 -50 152 -105l152 -78q92 57 135 129t43 184zM549 41q143 0 226 74t83 213q0 174 -213 272l-209 100q-199 -115 -198 -340q0 -139 84 -229t227 -90zM971 1118q0 -121 -92 -205t-213 -118
l96 -45q266 -127 266 -369q0 -174 -125 -288q-125 -113 -349 -113t-358 104t-134 254t92 240q94 92 241 141l-49 24q-229 115 -229 347q0 156 113 262q114 106 312 106t314 -93t115 -247z" />
    <glyph glyph-name="nine" unicode="9" horiz-adv-x="1132" 
d="M244 1026q0 -172 84 -276t248 -105q163 0 282 103q4 61 4 92q0 260 -88 408t-231 148t-221 -98q-78 -100 -78 -272zM61 968q-1 210 135 350t341 140q248 0 388 -167t140 -425q0 -332 -211 -574t-571 -308l-41 41q274 73 427 247t185 428q-154 -164 -383 -163
q-180 1 -295 111t-115 320z" />
    <glyph glyph-name="colon" unicode=":" horiz-adv-x="405" 
d="M61 821q0 59 41 101q40 42 100 41q60 0 101 -41q41 -40 41 -100t-41 -101t-100 -41t-101 41q-41 41 -41 100zM61 121q0 59 41 100q40 41 100 41t101 -41t41 -100t-41 -101t-100 -40q-59 0 -101 40q-41 42 -41 101z" />
    <glyph glyph-name="semicolon" unicode=";" horiz-adv-x="405" 
d="M61 821q0 59 41 101q40 42 100 41q60 0 101 -41q41 -40 41 -100t-41 -101t-100 -41t-101 41q-41 41 -41 100zM212 240q60 0 96 -47t36 -123q0 -127 -76 -212t-215 -96v48q81 14 133 63t60 127h-74q-41 8 -68 38q-26 30 -26 81t37 86t97 35z" />
    <glyph glyph-name="less" unicode="&#x3c;" horiz-adv-x="845" 
d="M82 750v16l635 387v-125l-455 -270l455 -271v-125z" />
    <glyph glyph-name="equal" unicode="=" horiz-adv-x="1175" 
d="M139 848v106h897v-106h-897zM139 565v105h897v-105h-897z" />
    <glyph glyph-name="greater" unicode="&#x3e;" horiz-adv-x="845" 
d="M764 766v-16l-635 -388v125l455 271l-455 270v125z" />
    <glyph glyph-name="question" unicode="?" horiz-adv-x="868" 
d="M248 121q0 59 42 100t99 41t99 -41t42 -100t-42 -101t-99 -40q-57 0 -99 41t-42 100zM649 1198q0 90 -55 152q-56 61 -156 61t-152 -62t-53 -159v-90h-149q-43 39 -43 98q0 112 114 186q113 74 285 74t280 -88t107 -254q1 -115 -71 -200q-72 -86 -186 -168t-151 -140
q-36 -58 -36 -147v-66h-21q-115 204 -25 353q40 66 118 127t108 91q86 83 86 232z" />
    <glyph glyph-name="at" unicode="@" horiz-adv-x="1734" 
d="M705 256q91 0 205 186t186 457q-39 76 -135 76q-143 0 -245 -183t-104 -382q0 -68 24 -111t69 -43zM1202 154q-143 0 -189 108t-7 279q-172 -385 -369 -385q-88 0 -139 68q-52 68 -52 202t73 278t192 234t237 90t191 -70l131 76h28l-53 -176l-102 -420q-55 -227 69 -227
q84 0 150 50q113 86 161 314q19 96 19 201q0 264 -141 420t-414 156q-231 0 -415 -132t-276 -337q-93 -205 -93 -437q0 -280 169 -450t451 -170q172 0 294 34t265 115l19 -28q-111 -87 -269 -143t-325 -56q-348 0 -547 185t-199 513q0 246 115 465t331 359t480 139
q322 0 504 -170t182 -463q0 -238 -129 -430t-342 -192z" />
    <glyph glyph-name="A" unicode="A" horiz-adv-x="1425" 
d="M643 1235l-262 -666h532zM414 0h-404v55q98 14 121 76l471 1190l-57 135h205l544 -1325q25 -61 121 -76v-55h-524v55q104 5 144 23t40 57t-20 90l-115 279h-584l-108 -277q-20 -51 -20 -90t40 -58q41 -19 146 -24v-55z" />
    <glyph glyph-name="B" unicode="B" horiz-adv-x="1273" 
d="M678 0h-621v55q119 14 150 38t31 108v1036q0 84 -31 108t-150 37v56h574q237 0 361 -90t124 -250t-114 -247t-273 -106q205 -8 330 -104t125 -264q0 -169 -132 -273t-374 -104zM582 1370h-152v-594h152q334 0 333 301q1 139 -85 216t-248 77zM627 709h-197v-504
q0 -80 45 -109t156 -28h24q328 0 328 317q0 145 -88 235t-268 89z" />
    <glyph glyph-name="C" unicode="C" horiz-adv-x="1286" 
d="M741 1458q258 0 445 -121v-299h-56q-33 174 -132 264t-257 89q-223 1 -344 -183t-121 -474t128 -488t354 -199q166 0 265 97t144 311h62l-27 -365q-195 -111 -444 -110q-315 0 -503 196q-187 198 -187 528t189 542t484 212z" />
    <glyph glyph-name="D" unicode="D" horiz-adv-x="1447" 
d="M668 0h-611v55q119 14 150 38t31 108v1036q0 84 -31 108t-150 37v56h582q185 0 331 -56t234 -150q176 -190 176 -472q0 -352 -204 -556t-508 -204zM602 1370h-172v-1157q0 -86 41 -116t141 -29h56q223 0 361 166t138 458q0 291 -125 475q-64 95 -176 149t-264 54z" />
    <glyph glyph-name="E" unicode="E" horiz-adv-x="1257" 
d="M57 0v55q119 14 150 38t31 108v1036q0 84 -31 108t-150 37v56h1069l11 -342h-41q-68 162 -130 218t-169 56h-367v-594h326q63 0 95 44t50 141h55v-437h-55q-18 96 -50 140t-95 45h-326v-502q0 -80 45 -110t156 -29h188q104 0 173 64t171 237h49l-61 -369h-1094z" />
    <glyph glyph-name="F" unicode="F" horiz-adv-x="1153" 
d="M430 688v-461q0 -92 50 -124t204 -44v-59h-627v55q119 14 150 38t31 108v1036q0 84 -31 108t-150 37v56h1030l9 -348h-41q-53 160 -121 220t-176 60h-328v-614h283q61 0 92 46t47 146h55v-452h-55q-16 100 -47 146t-92 46h-283z" />
    <glyph glyph-name="G" unicode="G" horiz-adv-x="1427" 
d="M1047 467q0 83 -31 107t-150 38v56h545v-56q-119 -14 -149 -38t-31 -107v-340q-217 -147 -488 -147q-307 0 -491 202t-184 506q0 348 191 559t497 211q270 0 448 -117v-303h-55q-70 354 -393 355q-160 0 -271 -90q-207 -168 -208 -568t212 -589q113 -99 289 -99t269 86
v334z" />
    <glyph glyph-name="H" unicode="H" horiz-adv-x="1579" 
d="M430 1237v-459h719v459q0 84 -31 108t-149 37v56h553v-56q-119 -14 -150 -38t-31 -107v-1036q0 -84 31 -108t150 -38v-55h-553v55q119 14 149 38t31 108v508h-719v-508q0 -84 31 -108t149 -38v-55h-553v55q119 14 150 38t31 108v1036q0 84 -31 108t-150 37v56h553v-56
q-120 -14 -150 -38t-30 -107z" />
    <glyph glyph-name="I" unicode="I" horiz-adv-x="667" 
d="M430 1237v-1036q0 -84 31 -108t149 -38v-55h-553v55q119 14 150 38t31 108v1036q0 84 -31 108t-150 37v56h553v-56q-120 -14 -150 -38t-30 -107z" />
    <glyph glyph-name="J" unicode="J" horiz-adv-x="980" 
d="M571 342v895q0 84 -30 108q-31 24 -150 37v56h553v-56q-120 -14 -150 -38t-30 -107v-825q0 -215 -106 -324q-106 -108 -288 -108t-282 68t-100 190q0 82 57 131h137q-10 -57 -10 -101q0 -231 197 -231q202 0 202 305z" />
    <glyph glyph-name="K" unicode="K" horiz-adv-x="1353" 
d="M430 1237v-1036q0 -84 31 -108t149 -38v-55h-553v55q119 14 150 38t31 108v1036q0 84 -31 108t-150 37v56h553v-56q-120 -14 -150 -38t-30 -107zM1354 0h-299q-82 61 -172 176l-424 537l520 542q45 45 45 74t-29 37t-135 16v56h430v-56q-63 -2 -100 -24t-92 -80
l-467 -485l459 -574q82 -104 128 -132t136 -32v-55z" />
    <glyph glyph-name="L" unicode="L" horiz-adv-x="1191" 
d="M430 1237v-1030q0 -80 45 -110t156 -29h121q120 0 188 72t164 259h51l-65 -399h-1033v55q119 14 150 38t31 108v1036q0 84 -31 108t-150 37v56h553v-56q-120 -14 -150 -38t-30 -107z" />
    <glyph glyph-name="M" unicode="M" horiz-adv-x="1822" 
d="M283 186q0 -72 39 -96t149 -35v-55h-434v55q88 6 123 30t43 93l125 1055q0 80 -37 112t-137 37v56h350q4 -47 31 -117l395 -1010l360 1010q27 70 31 117h348v-56q-98 -6 -135 -38t-37 -111l123 -1055q8 -70 43 -94t123 -29v-55h-553v55q111 10 149 35t39 96l-2 50
l-108 923l-420 -1159h-47l-453 1159l-104 -923q-4 -29 -4 -50z" />
    <glyph glyph-name="N" unicode="N" horiz-adv-x="1513" 
d="M1217 1233q0 86 -36 112t-165 37v56h461v-56q-117 -14 -149 -39t-32 -110v-1241h-51l-923 1190v-977q0 -86 36 -112t164 -38v-55h-461v55q117 14 149 39t32 111v1052q-57 74 -91 99t-94 26v56h318l842 -1096v891z" />
    <glyph glyph-name="O" unicode="O" horiz-adv-x="1425" 
d="M705 -20q-197 0 -346 101q-148 101 -220 261t-71 348q0 344 186 556t473 212t459 -209t172 -501q0 -344 -187 -556t-466 -212zM721 47q199 0 311 193t113 479q0 372 -195 567q-104 104 -248 105q-200 0 -312 -193t-111 -479q0 -373 194 -567q105 -105 248 -105z" />
    <glyph glyph-name="P" unicode="P" horiz-adv-x="1189" 
d="M430 1370v-715h135q365 0 365 355q0 158 -91 259t-274 101h-135zM430 588v-361q0 -92 50 -124t204 -44v-59h-627v55q119 14 150 38t31 108v1036q0 84 -31 108t-150 37v56h541q262 0 402 -121t140 -307t-136 -304q-137 -118 -398 -118h-176z" />
    <glyph glyph-name="Q" unicode="Q" horiz-adv-x="1425" 
d="M721 47q199 0 311 193t113 479q0 372 -195 567q-104 104 -248 105q-200 0 -312 -193t-111 -479q0 -373 194 -567q105 -105 248 -105zM727 1458q287 0 459 -209t172 -503t-140 -494q-140 -201 -364 -254l115 -127q143 -160 286 -174v-21q-94 -43 -182 -43q-168 0 -272 158
l-125 191q-283 10 -446 216t-162 492q0 344 186 556t473 212z" />
    <glyph glyph-name="R" unicode="R" horiz-adv-x="1380" 
d="M430 629v-428q0 -84 31 -108t149 -38v-55h-553v55q119 14 150 38t31 108v1036q0 84 -31 108t-150 37v56h549q254 0 387 -108t133 -278t-111 -268q-112 -98 -251 -125l336 -432q74 -96 134 -133t146 -39v-55h-305q-70 47 -170 182l-334 447h-141zM561 1370h-131v-674h139
q350 0 351 351q0 141 -92 232t-267 91z" />
    <glyph glyph-name="S" unicode="S" horiz-adv-x="1062" 
d="M506 -20q-133 0 -247 36t-181 97l-12 346h59q74 -414 381 -414q139 0 220 75q81 74 81 196t-74 191t-271 152t-289 169q-91 87 -91 250t117 272t313 108q242 0 410 -119v-301h-60q-23 174 -112 265q-90 90 -224 90t-204 -69q-68 -70 -68 -180t62 -173t263 -147t301 -180
t101 -271q0 -173 -137 -283t-338 -110z" />
    <glyph glyph-name="T" unicode="T" horiz-adv-x="1312" 
d="M754 1374v-1177q0 -43 9 -69q15 -43 96 -59q26 -5 93 -14v-55h-592v55q105 12 144 30q39 17 48 43t9 69v1177h-151q-129 0 -187 -67q-57 -68 -149 -297h-45l30 428h1194l31 -428h-45q-92 229 -149 297t-187 67h-149z" />
    <glyph glyph-name="U" unicode="U" horiz-adv-x="1456" 
d="M391 1237v-733q0 -196 93 -308t261 -112q430 0 431 436v713q0 86 -36 112t-165 37v56h461v-56q-117 -14 -149 -39t-32 -110v-748q0 -249 -144 -377t-385 -128t-384 128t-143 384v745q0 84 -31 108t-150 37v56h553v-56q-119 -14 -149 -38t-31 -107z" />
    <glyph glyph-name="V" unicode="V" horiz-adv-x="1406" 
d="M991 1438h406v-56q-49 -6 -77 -21t-44 -54l-526 -1325h-41l-578 1325q-16 39 -44 54t-77 21v56h529v-56q-103 -4 -145 -22t-42 -58t23 -92l416 -944l366 944q21 51 21 90q0 38 -41 58t-146 24v56z" />
    <glyph glyph-name="W" unicode="W" horiz-adv-x="1880" 
d="M10 1438h522v-56q-104 -4 -144 -22t-40 -66q0 -12 19 -82l323 -925l238 663l-117 357q-12 41 -40 54t-81 21v56h504v-56q-104 -4 -144 -22t-40 -66q0 -18 18 -82l301 -915l309 913q20 61 21 82q0 46 -41 66t-145 24v56h397v-56q-35 -6 -51 -10q-48 -12 -68 -65
l-457 -1325h-47l-284 864l-312 -864h-49l-471 1325q-20 61 -121 75v56z" />
    <glyph glyph-name="X" unicode="X" horiz-adv-x="1384" 
d="M291 127q0 -68 170 -72v-55h-451v55q60 1 100 21t85 82l405 557l-369 565q-66 102 -184 102v56h576v-56q-97 0 -137 -10t-40 -44t54 -116l237 -364l262 358q96 136 11 163q-41 13 -129 13v56h446v-56q-61 0 -104 -22t-84 -80l-361 -494l412 -628q68 -102 184 -103v-55
h-575v55q170 0 170 66q0 33 -41 96l-287 436l-303 -422q-47 -66 -47 -104z" />
    <glyph glyph-name="Y" unicode="Y" horiz-adv-x="1271" 
d="M723 197q0 -43 9 -69q15 -43 96 -59q26 -5 94 -14v-55h-582v55q104 12 143 30q39 17 48 43t10 69v381l-410 729q-37 63 -121 75v56h522v-56q-104 -4 -143 -19t-39 -48t37 -103l309 -544l308 542q68 127 -3 154q-37 14 -143 18v56h404v-56q-86 -12 -121 -75l-418 -727
v-383z" />
    <glyph glyph-name="Z" unicode="Z" horiz-adv-x="1189" 
d="M739 68q89 0 130 28t61 45q38 34 168 265h49l-66 -406h-1038v33l831 1337h-444q-59 0 -98 -13q-69 -23 -128 -149q-22 -45 -67 -149h-47l10 379h1014v-35l-825 -1335h450z" />
    <glyph glyph-name="bracketleft" unicode="[" horiz-adv-x="638" 
d="M315 1401v-1514q0 -74 46 -94t186 -29v-53h-373v1866h373v-53q-139 -8 -185 -28t-47 -95z" />
    <glyph glyph-name="backslash" unicode="\" horiz-adv-x="772" 
d="M672 -289l-615 1866h80l615 -1866h-80z" />
    <glyph glyph-name="bracketright" unicode="]" horiz-adv-x="638" 
d="M324 -113v1514q0 74 -46 94t-186 29v53h373v-1866h-373v53q140 8 186 28t46 95z" />
    <glyph glyph-name="asciicircum" unicode="^" horiz-adv-x="946" 
d="M526 1577l338 -594h-96l-293 524l-297 -524h-96l338 594h106z" />
    <glyph glyph-name="underscore" unicode="_" horiz-adv-x="798" 
d="M758 -215h-717v80h717v-80z" />
    <glyph glyph-name="grave" unicode="`" 
d="M348 1559h205l123 -347h-35l-293 336v11z" />
    <glyph glyph-name="a" unicode="a" horiz-adv-x="1007" 
d="M834 770v-543q0 -135 79 -135q37 0 95 27l10 -31q-72 -109 -197 -108q-74 0 -118 49t-52 137q-160 -186 -329 -186q-119 0 -190 70t-71 188t74 184t217 119l295 110v140q0 244 -188 243q-84 0 -125 -50t-41 -116t14 -123l-108 -16q-80 25 -80 113q0 112 103 178t263 65
q349 0 349 -315zM240 283q0 -83 46 -133t138 -50t223 109v385l-246 -100q-81 -33 -121 -81t-40 -130z" />
    <glyph glyph-name="b" unicode="b" horiz-adv-x="1114" 
d="M551 35q147 0 239 136q91 136 91 339q0 267 -135 389q-75 68 -185 68q-147 0 -244 -111v-563q1 -258 234 -258zM317 1604v-701q133 182 334 182t307 -133t107 -358q0 -276 -147 -446t-384 -168q-237 0 -401 147v1280l-133 72v22l293 103h24z" />
    <glyph glyph-name="c" unicode="c" horiz-adv-x="901" 
d="M213 576q0 -198 92 -324q92 -127 250 -127q188 0 299 170l25 -12q-47 -145 -145 -225t-238 -78q-199 0 -323 142t-124 386t135 411t361 166q143 0 224 -58q81 -59 81 -153t-66 -131h-116q8 45 8 86q0 193 -168 193q-135 0 -215 -124t-80 -322z" />
    <glyph glyph-name="d" unicode="d" horiz-adv-x="1144" 
d="M973 1604v-1405q0 -55 14 -71t82 -24l53 -6v-43l-311 -75h-31l8 188q-145 -188 -330 -188t-297 140t-112 361q0 273 141 439t359 165q152 0 239 -81v403l-133 72v22l293 103h25zM549 1028q-147 0 -237 -128t-89 -331q0 -203 86 -329q85 -126 237 -125q152 0 242 100v512
q0 137 -66 219q-67 82 -173 82z" />
    <glyph glyph-name="e" unicode="e" horiz-adv-x="946" 
d="M496 1020q-115 0 -186 -90t-87 -234h496q0 148 -54 236t-169 88zM51 516q0 238 131 404q132 166 322 165q190 0 292 -113q101 -114 101 -292v-43h-680q-10 -242 93 -381q104 -139 282 -139t295 182l24 -12q-39 -139 -143 -223t-260 -84q-211 0 -334 150
q-123 148 -123 386z" />
    <glyph glyph-name="f" unicode="f" horiz-adv-x="643" 
d="M369 987v-831q0 -58 38 -78t144 -25v-53h-508v53q84 3 113 23t28 80v831h-151v29l151 61v137q0 186 98 288t265 102q215 0 215 -148q0 -70 -60 -102h-106q6 31 6 69q0 131 -98 131q-135 0 -135 -225v-264h264v-78h-264z" />
    <glyph glyph-name="g" unicode="g" horiz-adv-x="1011" 
d="M472 1032q-100 0 -154 -78q-52 -78 -52 -206t56 -216q56 -90 158 -90q101 0 153 78q51 78 51 206t-56 217t-156 89zM664 23h-445q-59 -61 -59 -172t80 -178t238 -67t276 68q117 68 116 193q1 156 -206 156zM475 391q-102 0 -184 31q-82 -82 -82 -148q0 -80 84 -79h395
q152 1 238 -63t86 -193q0 -181 -165 -287t-387 -106t-340 69q-118 70 -118 192q0 141 195 224q-117 45 -117 168q0 49 30 96t61 75q32 28 85 66q-178 88 -178 289q0 166 111 263q112 97 286 97q78 0 170 -30l328 8v-96h-76l-162 8q53 -35 92 -101t39 -139q0 -156 -108 -250
t-283 -94z" />
    <glyph glyph-name="h" unicode="h" horiz-adv-x="1177" 
d="M178 156v1251l-133 72v22l293 103h24v-713q176 195 373 194q276 0 277 -335v-594q0 -59 28 -79q29 -19 113 -24v-53h-467v53q84 3 113 23t28 80v596q0 215 -182 215q-139 0 -283 -125v-686q0 -58 29 -78t113 -25v-53h-467v53q84 4 113 24q28 20 28 79z" />
    <glyph glyph-name="i" unicode="i" horiz-adv-x="540" 
d="M267 1245q-54 0 -92 39t-38 92t38 92t92 39t92 -39t38 -92t-38 -92t-92 -39zM369 1085v-929q0 -59 28 -79q29 -19 113 -24v-53h-467v53q84 3 113 23t28 80v733l-133 72v22l293 102h25z" />
    <glyph glyph-name="j" unicode="j" horiz-adv-x="497" 
d="M245 1245q-54 0 -92 39t-38 92t38 92t92 39t92 -39t38 -92t-38 -92t-92 -39zM346 1085v-913q0 -135 -10 -200t-43 -132q-59 -119 -252 -297l-31 23l84 147q45 78 57 162q11 84 11 231v783l-133 72v22l293 102h24z" />
    <glyph glyph-name="k" unicode="k" horiz-adv-x="1087" 
d="M180 156v1251l-133 72v22l293 103h25v-1448q0 -59 28 -79q29 -19 113 -24v-53h-467v53q84 4 113 24q28 20 28 79zM770 958q0 37 -108 50q-18 2 -29 4v53h405v-53q-102 -25 -161 -78l-312 -283l522 -612v-39h-206l-492 584l330 301q51 47 51 73z" />
    <glyph glyph-name="l" unicode="l" horiz-adv-x="536" 
d="M365 1604v-1448q0 -59 28 -79q29 -19 113 -24v-53h-467v53q84 3 113 23t28 80v1251l-133 72v22l293 103h25z" />
    <glyph glyph-name="m" unicode="m" horiz-adv-x="1779" 
d="M1430 156v596q0 110 -41 162t-132 53q-123 0 -266 -125v-686q0 -58 29 -78t113 -25v-53h-467v53q84 3 112 23t29 80v596q0 110 -41 162t-131 53q-123 0 -266 -125v-686q0 -59 28 -79q29 -19 113 -24v-53h-467v53q84 3 113 23t28 80v733l-133 72v22l301 102h25l-8 -194
q86 94 168 144t192 50q207 0 250 -200q182 201 373 200q135 0 198 -84t64 -251v-594q0 -59 28 -79q29 -19 113 -24v-53h-467v53q84 4 113 24t29 79z" />
    <glyph glyph-name="n" unicode="n" horiz-adv-x="1183" 
d="M834 156v596q0 215 -183 215q-139 0 -282 -125v-686q0 -59 28 -79q29 -19 113 -24v-53h-467v53q84 3 113 23t28 80v733l-133 72v22l301 102h25l-8 -194q176 195 372 194q276 0 277 -329v-600q0 -58 29 -78t112 -25v-53h-467v53q84 4 113 24t29 79z" />
    <glyph glyph-name="o" unicode="o" horiz-adv-x="1060" 
d="M1012 546q0 -246 -140 -406t-351 -160q-212 0 -342 145t-130 393t139 408q138 160 350 160t343 -147q131 -146 131 -393zM532 43q138 0 212 127t73 341q0 214 -75 362q-75 149 -213 149t-212 -127q-73 -127 -73 -341t74 -363q76 -148 214 -148z" />
    <glyph glyph-name="p" unicode="p" horiz-adv-x="1144" 
d="M164 -279v1168l-133 72v22l301 102h24l-8 -182q134 182 334 182t306 -133t108 -358q0 -276 -148 -446t-366 -168q-147 0 -234 73v-327q0 -62 36 -80t146 -27v-53h-507v53q85 3 113 23t28 79zM582 39q147 0 238 134t91 337q0 268 -134 389q-75 68 -185 68
q-147 0 -244 -111v-559q1 -258 234 -258z" />
    <glyph glyph-name="q" unicode="q" horiz-adv-x="1114" 
d="M788 -274v442q-145 -188 -330 -188t-297 140t-112 361q0 273 141 439q142 166 348 166t312 -128l98 127h37l-12 -213v-1151q1 -59 29 -78t112 -24v-53h-508v53q111 8 147 27q35 19 35 80zM549 1028q-147 0 -237 -128t-89 -331q0 -203 86 -329q85 -126 237 -125
q152 0 242 100v512q0 137 -66 219q-67 82 -173 82z" />
    <glyph glyph-name="r" unicode="r" horiz-adv-x="743" 
d="M369 156q0 -58 38 -78t144 -25v-53h-508v53q84 3 113 23t28 80v733l-133 72v22l301 102h25l-8 -290q94 174 145 232q52 58 118 58t91 -32v-154h-29q-109 -1 -177 -27t-148 -122v-594z" />
    <glyph glyph-name="s" unicode="s" horiz-adv-x="884" 
d="M807 285q1 -135 -101 -220t-294 -85t-322 100l-12 282h55q90 -326 309 -325q96 0 156 49q59 49 59 138t-56 138q-56 50 -211 110q-156 60 -226 131t-70 198t92 206t257 79t300 -87v-247h-49q-72 276 -272 276q-86 0 -134 -47t-48 -124t54 -127t204 -106t230 -130
q79 -74 79 -209z" />
    <glyph glyph-name="t" unicode="t" horiz-adv-x="669" 
d="M319 1319v-254h293v-78h-293v-678q0 -113 41 -163t126 -50t165 60l19 -25q-104 -152 -271 -151q-119 0 -189 72t-71 227v708h-139v29q168 90 279 303h40z" />
    <glyph glyph-name="u" unicode="u" horiz-adv-x="1130" 
d="M958 199q0 -55 14 -71t83 -24l53 -6v-43l-309 -75h-31l8 192q-92 -92 -173 -142t-177 -50q-281 0 -281 319v567q0 58 -20 78t-92 29l-33 4v47l315 57h23l-10 -223v-522q0 -236 182 -236q119 0 266 117v649q0 58 -20 78t-92 29l-31 4v47l311 57h23l-9 -215v-667z" />
    <glyph glyph-name="v" unicode="v" horiz-adv-x="1081" 
d="M1071 1065v-53q-53 -12 -71 -26t-33 -50l-387 -956h-45l-420 956q-15 35 -33 49t-72 27v53h455v-53q-86 -10 -115 -22q-28 -12 -28 -38q0 -28 12 -65l272 -666l262 668q14 37 14 63t-27 37q-28 10 -118 23v53h334z" />
    <glyph glyph-name="w" unicode="w" horiz-adv-x="1587" 
d="M1384 944q0 32 -30 44q-31 13 -109 24v53h332v-53q-55 -12 -73 -26t-31 -50l-373 -956h-49l-248 694l-260 -694h-47l-381 956q-15 35 -33 49t-72 27v53h449v-53q-78 -10 -109 -24t-31 -44q0 -31 9 -55l243 -651l199 538l-57 160q-9 33 -29 47t-76 29v53h428v-53
q-55 -8 -79 -14q-60 -14 -60 -60q0 -23 8 -49l223 -647l248 647q8 23 8 55z" />
    <glyph glyph-name="x" unicode="x" horiz-adv-x="1087" 
d="M362 0h-352v53q98 23 140 76l309 408l-279 399q-25 37 -50 52q-26 15 -79 24v53h449v-53q-119 -8 -119 -49q0 -25 29 -66l172 -250l188 250q31 43 31 66q0 39 -117 49v53h344v-53q-102 -18 -145 -76l-262 -344l323 -463q24 -37 52 -52t81 -24v-53h-450v53q69 5 97 13
t28 28t-35 74l-217 311l-236 -311q-60 -76 2 -97q31 -11 96 -18v-53z" />
    <glyph glyph-name="y" unicode="y" horiz-adv-x="1075" 
d="M735 1065h330v-53q-53 -12 -73 -28t-31 -48l-435 -1149q-47 -121 -100 -177t-141 -56q-49 0 -92 28t-56 74v59q63 -18 135 -18t126 36t89 134l39 104l-411 965q-15 35 -33 49t-72 27v53h453v-53q-86 -10 -115 -22t-29 -38q0 -28 13 -65l278 -694l256 696q30 83 -16 101
q-29 11 -115 22v53z" />
    <glyph glyph-name="z" unicode="z" horiz-adv-x="978" 
d="M68 0v25l616 968h-299q-90 0 -140 -60t-100 -220h-49l33 415h45l21 -69h708v-33l-604 -960h319q82 0 139 67q56 68 105 240h49l-32 -373h-811z" />
    <glyph glyph-name="braceleft" unicode="{" horiz-adv-x="698" 
d="M272 860v455q0 119 94 191t240 71v-43q-92 -10 -139 -56t-47 -145v-459q0 -98 -48 -147t-159 -82q111 -33 159 -82t48 -147v-459q0 -98 47 -144t139 -57v-43q-147 0 -240 72t-94 190v455q0 170 -170 205v20q170 35 170 205z" />
    <glyph glyph-name="bar" unicode="|" horiz-adv-x="444" 
d="M260 1577v-1866h-76v1866h76z" />
    <glyph glyph-name="braceright" unicode="}" horiz-adv-x="698" 
d="M426 430v-455q0 -119 -93 -191t-241 -71v43q92 10 139 56t48 145v459q0 98 48 147t158 82q-111 33 -159 82t-47 147v459q1 99 -47 145t-140 56v43q146 0 240 -72t94 -190v-455q0 -170 170 -205v-20q-170 -35 -170 -205z" />
    <glyph glyph-name="asciitilde" unicode="~" horiz-adv-x="923" 
d="M264 623q-51 0 -83 -29t-68 -98l-52 12q45 133 99 192q112 121 329 -10q117 -70 169 -70t84 30q32 28 69 98l51 -13q-45 -133 -99 -192q-55 -59 -135 -59t-196 69q-116 70 -168 70z" />
    <glyph glyph-name="uni00A0" unicode="&#xa0;" horiz-adv-x="430" 
 />
    <glyph glyph-name="exclamdown" unicode="&#xa1;" horiz-adv-x="487" 
d="M225 784h35l107 -1022h-248zM102 1079q0 59 41 101t101 41q60 0 100 -41q41 -40 41 -100t-41 -101t-100 -41t-101 41q-41 41 -41 100z" />
    <glyph glyph-name="cent" unicode="&#xa2;" horiz-adv-x="1058" 
d="M258 618q0 -340 199 -452l186 874q-27 6 -63 7q-146 0 -234 -128q-88 -127 -88 -301zM84 506q0 262 146 432t391 170q25 0 36 -2l45 211h58l-47 -217q119 -16 187 -72t69 -143q0 -86 -72 -121h-125q8 45 8 86q0 125 -84 170l-188 -879q53 -20 123 -20q207 0 327 180
l23 -12q-45 -152 -153 -231t-261 -78q-51 0 -92 8l-43 -209h-57l47 221q-156 43 -247 177t-91 329z" />
    <glyph glyph-name="sterling" unicode="&#xa3;" horiz-adv-x="1265" 
d="M86 166q0 -55 28 -83t78 -28q49 0 92 46q42 46 58 147q-74 37 -131 37t-91 -32t-34 -87zM209 723v63h203l22 168q33 258 159 381t318 123q135 0 214 -53t79 -150q0 -43 -24 -79t-56 -52h-125q12 70 13 121q0 164 -127 164q-99 0 -153 -109t-85 -290l-39 -224h344v-63
h-354l-45 -279q-18 -106 -39 -174q207 -120 425 -120t218 184q0 29 -6 59h18q66 -73 66 -181t-75 -170t-206 -62t-261 55t-216 135q-82 -190 -270 -190q-88 0 -137 52q-50 52 -50 135t62 135t137 52q76 0 135 -18l49 387h-194z" />
    <glyph glyph-name="currency" unicode="&#xa4;" horiz-adv-x="1191" 
d="M276 707q0 -145 92 -241t228 -97q135 0 227 96q92 95 92 241t-92 242t-227 96q-136 0 -228 -96t-92 -241zM597 1110q144 0 253 -92l149 151l54 -53l-152 -151q88 -111 88 -259t-88 -257l152 -152l-54 -53l-149 151q-104 -92 -252 -92t-258 92l-147 -151l-54 53l152 152
q-88 109 -88 257t88 259l-152 151l54 53l147 -151q113 92 257 92z" />
    <glyph glyph-name="yen" unicode="&#xa5;" horiz-adv-x="1282" 
d="M733 457h348v-66h-348v-194q0 -43 9 -69t45 -42t145 -31v-55h-592v55q104 12 143 30q39 17 48 43t10 69v194h-348v66h348v121l-29 49h-319v63h284l-346 617q-37 63 -121 75v56h533v-56q-103 -4 -143 -19t-40 -48t37 -103l303 -544l308 542q67 127 -2 154q-37 14 -144 18
v56h410v-56q-86 -12 -121 -75l-354 -617h284v-63h-321l-27 -47v-123z" />
    <glyph glyph-name="brokenbar" unicode="&#xa6;" horiz-adv-x="444" 
d="M260 481v-770h-76v770h76zM260 1577v-770h-76v770h76z" />
    <glyph glyph-name="section" unicode="&#xa7;" horiz-adv-x="1062" 
d="M483 -414q-151 0 -229 54t-78 134q0 79 78 111h123v-32q0 -213 162 -213q79 0 117 46t38 105q0 103 -105 256q-36 51 -113 151t-107 140q-123 168 -189 318t-65 313q0 213 137 351t328 138q152 0 230 -54t77 -133q0 -79 -78 -112h-123v33q0 213 -162 213q-78 0 -116 -46
q-38 -45 -39 -105q1 -60 35 -133t70 -124t113 -150t107 -140q123 -168 189 -318t65 -313q0 -214 -138 -352t-327 -138zM176 969q0 -154 62 -295t180 -299q22 -31 102 -133t123 -162t81 -156q38 -94 32 -170q131 121 131 322q0 154 -63 295q-62 141 -179 299q-23 31 -102 133
q-80 103 -123 163t-81 154t-32 170q-131 -121 -131 -321z" />
    <glyph glyph-name="dieresis" unicode="&#xa8;" 
d="M571 1372q0 53 37 90t89 37t89 -37t37 -90t-37 -90t-89 -37t-89 37t-37 90zM201 1372q0 53 37 90t89 37t89 -37t37 -90t-37 -90t-89 -37t-89 37t-37 90z" />
    <glyph glyph-name="copyright" unicode="&#xa9;" horiz-adv-x="1630" 
d="M848 1098q-125 0 -196 -104q-70 -104 -70 -266q0 -160 70 -270t180 -110t162 58t91 178h41l-18 -222q-143 -72 -266 -71q-186 0 -302 116q-116 115 -116 309t122 316t289 123q167 0 271 -82v-194h-39q-47 219 -219 219zM82 719q0 309 208 524t525 215t525 -215t208 -524
t-208 -524t-525 -215t-525 215t-208 524zM125 719q0 -293 196 -496q197 -203 495 -203t494 203t195 496q1 293 -195 495t-495 203q-299 -1 -495 -203t-195 -495z" />
    <glyph glyph-name="ordfeminine" unicode="&#xaa;" horiz-adv-x="714" 
d="M569 1255v-346q0 -88 52 -88q31 0 67 19l6 -25q-49 -70 -133 -70q-49 0 -82 33t-37 88q-102 -121 -213 -121q-75 -1 -121 45t-46 120t48 119q48 44 140 79l188 70v67q0 170 -121 170q-47 0 -71 -30q-24 -31 -25 -73q0 -42 8 -77l-79 -10q-52 17 -52 83t67 108t169 42
q235 0 235 -203zM291 834q68 0 147 67v232l-143 -58q-104 -41 -104 -141t100 -100z" />
    <glyph glyph-name="guillemotleft" unicode="&#xab;" horiz-adv-x="915" 
d="M397 555v12l389 394h58l-256 -400l256 -399h-58zM72 555v12l389 394h57l-256 -400l256 -399h-57z" />
    <glyph glyph-name="registered" unicode="&#xae;" horiz-adv-x="1054" 
d="M993 992q0 -196 -133 -330t-334 -136q-201 0 -333 135t-132 331q1 196 133 331t334 135t333 -135q132 -135 132 -331zM104 991q0 -178 120 -301t303 -123t303 123t120 301t-120 302t-303 124t-303 -124t-120 -302zM315 1241h222q90 0 138 -38t48 -94t-36 -92t-85 -46
l82 -113q20 -27 30 -38q25 -29 77 -29v-31h-125q-35 25 -78 88l-76 113h-45v-121q0 -29 13 -39t46 -10v-31h-211v31q35 0 49 9q13 9 13 40v319q0 31 -12 39t-50 12v31zM520 1204h-53v-209h53q111 0 111 109q0 48 -29 74t-82 26z" />
    <glyph glyph-name="macron" unicode="&#xaf;" 
d="M244 1276v100h514v-100h-514z" />
    <glyph glyph-name="degree" unicode="&#xb0;" horiz-adv-x="561" 
d="M41 1221q0 100 70 169q70 68 170 68t170 -68q69 -68 69 -169q0 -100 -70 -169t-169 -69q-100 0 -170 69t-70 169zM115 1221q0 -80 45 -128q45 -49 121 -49q77 0 121 48t44 129q0 80 -45 128t-121 48t-120 -48q-45 -48 -45 -128z" />
    <glyph glyph-name="plusminus" unicode="&#xb1;" horiz-adv-x="1155" 
d="M129 299v100h897v-100h-897zM526 1233h101v-305h399v-101h-399v-303h-101v303h-397v101h397v305z" />
    <glyph glyph-name="twosuperior" unicode="&#xb2;" horiz-adv-x="753" 
d="M451 766q75 0 105 19t75 100h31l-27 -254h-574v26l211 205q109 112 151 182t42 147t-40 117t-114 40q-113 0 -205 -101l-24 21q104 188 297 188q111 0 171 -61t60 -168q0 -143 -180 -296q-27 -24 -93 -81t-97 -84h211z" />
    <glyph glyph-name="threesuperior" unicode="&#xb3;" horiz-adv-x="733" 
d="M347 608q-128 0 -202 51q-73 51 -73 117t51 94h92q-8 -25 -8 -51q0 -166 153 -166q72 0 113 47t41 131q0 186 -229 187h-31l-4 33q211 66 211 186q0 53 -34 86t-97 33q-119 0 -183 -111l-38 21q37 86 110 139q74 53 175 53q102 0 154 -48t52 -126q0 -137 -203 -203
q117 -9 186 -73t69 -168t-89 -168q-88 -64 -216 -64z" />
    <glyph glyph-name="acute" unicode="&#xb4;" 
d="M676 1559v-11l-293 -336h-35l123 347h205z" />
    <glyph glyph-name="mu" unicode="&#xb5;" horiz-adv-x="1130" 
d="M145 866q0 58 -20 78t-92 29l-33 4v47l315 57h23l-10 -223v-522q0 -236 182 -236q119 0 266 117v649q0 58 -20 78t-92 29l-31 4v47l311 57h23l-9 -215v-667q0 -55 14 -71t83 -24l53 -6v-43l-309 -75h-31l8 192q-90 -90 -169 -141t-171 -51t-127 59l25 -397v-25l-189 -20
v1269z" />
    <glyph glyph-name="paragraph" unicode="&#xb6;" horiz-adv-x="1249" 
d="M662 524v848q-84 0 -148 -36q-168 -96 -168 -394q0 -228 130 -349q75 -69 186 -69zM662 -403v862q-262 0 -401 139q-138 139 -138 358q0 218 137 350t402 132h538v-60q-111 -4 -160 -32t-49 -117v-1632h-78v1775h-174v-1775h-77z" />
    <glyph glyph-name="periodcentered" unicode="&#xb7;" horiz-adv-x="421" 
d="M61 618q0 62 43 106q42 44 106 44t107 -43t43 -107t-43 -106q-43 -43 -106 -43t-107 43q-43 43 -43 106z" />
    <glyph glyph-name="cedilla" unicode="&#xb8;" 
d="M684 -250q0 -100 -95 -152t-255 -51l-10 54q110 -1 174 29t63 79q0 86 -178 92l88 215h53l-45 -114q205 -4 205 -152z" />
    <glyph glyph-name="onesuperior" unicode="&#xb9;" horiz-adv-x="659" 
d="M403 1458v-696q0 -50 34 -64t141 -20v-47h-496v47q106 6 140 20t34 64v510h-174v33l51 10q79 11 129 43t103 100h38z" />
    <glyph glyph-name="ordmasculine" unicode="&#xba;" horiz-adv-x="759" 
d="M698 1110q0 -160 -92 -262t-230 -103q-138 1 -226 95t-88 252t92 262t230 104t226 -94t88 -254zM381 801q86 0 131 77q45 78 45 210t-46 224t-132 91q-86 0 -131 -77t-45 -211t46 -224t132 -90z" />
    <glyph glyph-name="guillemotright" unicode="&#xbb;" horiz-adv-x="915" 
d="M518 567v-12l-389 -393h-57l256 399l-256 400h57zM844 567v-12l-389 -393h-58l256 399l-256 400h58z" />
    <glyph glyph-name="onequarter" unicode="&#xbc;" horiz-adv-x="1544" 
d="M1423 0h-413v47q86 5 110 19t23 65v88h-395v35l466 571h76v-551h162v-55h-162v-88q0 -51 24 -64t109 -20v-47zM301 -20l897 1478h78l-897 -1478h-78zM403 1458v-696q0 -50 34 -64t141 -20v-47h-496v47q106 6 140 20t34 64v510h-174v33l51 10q83 16 133 48t99 95h38z
M1143 274v373l-307 -373h307z" />
    <glyph glyph-name="onehalf" unicode="&#xbd;" horiz-adv-x="1593" 
d="M1290 135q74 -1 105 19t75 100h31l-26 -254h-574v27l211 204q109 111 151 182t42 147t-40 117q-40 40 -114 40q-113 0 -205 -101l-24 21q104 188 297 188q111 0 171 -61t60 -174t-110 -221q-58 -59 -144 -133t-117 -101h211zM301 -20l897 1478h78l-897 -1478h-78z
M403 1458v-696q0 -50 34 -64t141 -20v-47h-496v47q106 6 140 20t34 64v510h-174v33l51 10q79 11 129 43t103 100h38z" />
    <glyph glyph-name="threequarters" unicode="&#xbe;" horiz-adv-x="1558" 
d="M1438 0h-414v47q86 5 110 19t23 65v88h-395v35l467 571h76v-551h161v-55h-161v-88q-1 -51 23 -64t110 -20v-47zM315 -20l897 1478h78l-897 -1478h-78zM1157 274v373l-307 -373h307zM347 608q-128 0 -202 51q-73 51 -73 117t51 94h92q-8 -25 -8 -51q0 -166 153 -166
q72 0 113 47t41 131q0 186 -229 187h-31l-4 33q209 66 209 186q0 51 -33 85t-96 34q-119 0 -183 -111l-38 21q37 86 110 139q74 53 175 53q102 0 154 -48t52 -126q0 -131 -201 -194q119 -8 186 -73t67 -169t-89 -172q-88 -68 -216 -68z" />
    <glyph glyph-name="questiondown" unicode="&#xbf;" horiz-adv-x="868" 
d="M641 1079q0 -59 -42 -100t-99 -41t-100 41q-42 41 -42 100t42 101t100 41q58 1 99 -41q42 -42 42 -101zM240 2q0 -90 55 -152q55 -61 155 -61q100 1 153 63q52 62 52 158v90h150q43 -39 43 -98q0 -112 -114 -186t-286 -74t-279 88q-108 88 -108 254q0 115 72 200
q73 86 187 168t150 140t36 147v66h20q66 -117 66 -202t-40 -151t-118 -126q-78 -62 -108 -92q-86 -83 -86 -232z" />
    <glyph glyph-name="Agrave" unicode="&#xc0;" horiz-adv-x="1425" 
d="M397 1843h215l113 -305h-35l-293 295v10zM643 1235l-262 -666h532zM414 0h-404v55q98 14 121 76l471 1190l-57 135h205l544 -1325q25 -61 121 -76v-55h-524v55q104 5 144 23t40 57t-20 90l-115 279h-584l-108 -277q-20 -51 -20 -90t40 -58q41 -19 146 -24v-55z" />
    <glyph glyph-name="Aacute" unicode="&#xc1;" horiz-adv-x="1425" 
d="M950 1843v-10l-293 -295h-34l112 305h215zM643 1235l-262 -666h532zM414 0h-404v55q98 14 121 76l471 1190l-57 135h205l544 -1325q25 -61 121 -76v-55h-524v55q104 5 144 23t40 57t-20 90l-115 279h-584l-108 -277q-20 -51 -20 -90t40 -58q41 -19 146 -24v-55z" />
    <glyph glyph-name="Acircumflex" unicode="&#xc2;" horiz-adv-x="1425" 
d="M754 1864l266 -326h-47l-289 193l-289 -193h-47l266 326h140zM643 1235l-262 -666h532zM414 0h-404v55q98 14 121 76l471 1190l-57 135h205l544 -1325q25 -61 121 -76v-55h-524v55q104 5 144 23t40 57t-20 90l-115 279h-584l-108 -277q-20 -51 -20 -90t40 -58
q41 -19 146 -24v-55z" />
    <glyph glyph-name="Atilde" unicode="&#xc3;" horiz-adv-x="1425" 
d="M822 1538q-64 0 -160 60t-142 61q-86 0 -149 -117l-37 21q57 135 103 186q45 51 109 51t160 -60t142 -61q86 0 149 117l37 -20q-57 -134 -103 -186q-45 -52 -109 -52zM643 1235l-262 -666h532zM414 0h-404v55q98 14 121 76l471 1190l-57 135h205l544 -1325
q25 -61 121 -76v-55h-524v55q104 5 144 23t40 57t-20 90l-115 279h-584l-108 -277q-20 -51 -20 -90t40 -58q41 -19 146 -24v-55z" />
    <glyph glyph-name="Adieresis" unicode="&#xc4;" horiz-adv-x="1425" 
d="M754 1683q0 53 37 91t89 36q52 0 89 -36t37 -90t-37 -91t-89 -37t-89 37t-37 90zM362 1683q0 53 37 91t89 36q52 0 90 -36q36 -36 36 -90t-36 -91t-90 -37q-52 0 -89 37t-37 90zM643 1235l-262 -666h532zM414 0h-404v55q98 14 121 76l471 1190l-57 135h205l544 -1325
q25 -61 121 -76v-55h-524v55q104 5 144 23t40 57t-20 90l-115 279h-584l-108 -277q-20 -51 -20 -90t40 -58q41 -19 146 -24v-55z" />
    <glyph glyph-name="Aring" unicode="&#xc5;" horiz-adv-x="1425" 
d="M551 1679q0 -51 30 -85t81 -34q50 0 80 34t30 85t-30 85t-80 34t-81 -34q-30 -34 -30 -85zM485 1679q1 76 51 126t126 50t126 -50t50 -126t-50 -126t-126 -50t-126 50t-51 126zM643 1235l-262 -666h532zM414 0h-404v55q98 14 121 76l471 1190l-57 135h205l544 -1325
q25 -61 121 -76v-55h-524v55q104 5 144 23t40 57t-20 90l-115 279h-584l-108 -277q-20 -51 -20 -90t40 -58q41 -19 146 -24v-55z" />
    <glyph glyph-name="AE" unicode="&#xc6;" horiz-adv-x="2048" 
d="M1028 569v791l-520 -791h520zM684 1438h1233l10 -342h-41q-68 162 -130 218t-169 56h-366v-594h325q63 0 95 44t51 141h55v-437h-55q-18 96 -50 140t-96 45h-325v-502q0 -80 45 -110t155 -29h189q104 0 173 64t171 237h49l-61 -369h-1094v55q120 14 150 38t30 108v303
h-563l-182 -277q-33 -49 -33 -84q0 -88 199 -88v-55h-439v55q72 10 121 76l768 1165q-18 72 -215 86v56z" />
    <glyph glyph-name="Ccedilla" unicode="&#xc7;" horiz-adv-x="1286" 
d="M881 -250q1 -100 -95 -152t-256 -51l-10 54q110 -1 174 29t64 79q0 86 -178 92l75 185q-272 33 -430 223t-157 479q0 346 189 558t484 212q258 0 445 -121v-299h-56q-33 174 -132 264t-257 89q-223 1 -344 -183t-121 -474t128 -488t354 -199q166 0 265 97t144 311h62
l-27 -365q-195 -111 -444 -110l-51 2l-31 -80q205 -4 205 -152z" />
    <glyph glyph-name="Egrave" unicode="&#xc8;" horiz-adv-x="1257" 
d="M426 1843h215l113 -305h-35l-293 295v10zM57 0v55q119 14 150 38t31 108v1036q0 84 -31 108t-150 37v56h1069l11 -342h-41q-68 162 -130 218t-169 56h-367v-594h326q63 0 95 44t50 141h55v-437h-55q-18 96 -50 140t-95 45h-326v-502q0 -80 45 -110t156 -29h188
q104 0 173 64t171 237h49l-61 -369h-1094z" />
    <glyph glyph-name="Eacute" unicode="&#xc9;" horiz-adv-x="1257" 
d="M938 1843v-10l-293 -295h-35l113 305h215zM57 0v55q119 14 150 38t31 108v1036q0 84 -31 108t-150 37v56h1069l11 -342h-41q-68 162 -130 218t-169 56h-367v-594h326q63 0 95 44t50 141h55v-437h-55q-18 96 -50 140t-95 45h-326v-502q0 -80 45 -110t156 -29h188
q104 0 173 64t171 237h49l-61 -369h-1094z" />
    <glyph glyph-name="Ecircumflex" unicode="&#xca;" horiz-adv-x="1257" 
d="M741 1864l267 -326h-47l-289 193l-289 -193h-47l266 326h139zM57 0v55q119 14 150 38t31 108v1036q0 84 -31 108t-150 37v56h1069l11 -342h-41q-68 162 -130 218t-169 56h-367v-594h326q63 0 95 44t50 141h55v-437h-55q-18 96 -50 140t-95 45h-326v-502q0 -80 45 -110
t156 -29h188q104 0 173 64t171 237h49l-61 -369h-1094z" />
    <glyph glyph-name="Edieresis" unicode="&#xcb;" horiz-adv-x="1257" 
d="M741 1683q0 53 37 91t89 36q52 0 89 -36t37 -90t-37 -91t-89 -37t-89 37t-37 90zM350 1683q0 53 37 91t89 36q52 0 89 -36t37 -90t-37 -91t-89 -37t-89 37t-37 90zM57 0v55q119 14 150 38t31 108v1036q0 84 -31 108t-150 37v56h1069l11 -342h-41q-68 162 -130 218
t-169 56h-367v-594h326q63 0 95 44t50 141h55v-437h-55q-18 96 -50 140t-95 45h-326v-502q0 -80 45 -110t156 -29h188q104 0 173 64t171 237h49l-61 -369h-1094z" />
    <glyph glyph-name="Igrave" unicode="&#xcc;" horiz-adv-x="667" 
d="M88 1843h215l113 -305h-35l-293 295v10zM430 1237v-1036q0 -84 31 -108t149 -38v-55h-553v55q119 14 150 38t31 108v1036q0 84 -31 108t-150 37v56h553v-56q-120 -14 -150 -38t-30 -107z" />
    <glyph glyph-name="Iacute" unicode="&#xcd;" horiz-adv-x="667" 
d="M600 1843v-10l-293 -295h-35l113 305h215zM430 1237v-1036q0 -84 31 -108t149 -38v-55h-553v55q119 14 150 38t31 108v1036q0 84 -31 108t-150 37v56h553v-56q-120 -14 -150 -38t-30 -107z" />
    <glyph glyph-name="Icircumflex" unicode="&#xce;" horiz-adv-x="667" 
d="M397 1864l242 -328h-43l-262 193l-262 -193h-43l241 328h127zM430 1237v-1036q0 -84 31 -108t149 -38v-55h-553v55q119 14 150 38t31 108v1036q0 84 -31 108t-150 37v56h553v-56q-120 -14 -150 -38t-30 -107z" />
    <glyph glyph-name="Idieresis" unicode="&#xcf;" horiz-adv-x="667" 
d="M403 1683q0 53 37 91t89 36q52 0 89 -36t37 -90t-37 -91t-89 -37t-89 37t-37 90zM12 1683q0 53 37 91t89 36q52 0 89 -36t37 -90t-37 -91t-89 -37t-89 37t-37 90zM430 1237v-1036q0 -84 31 -108t149 -38v-55h-553v55q119 14 150 38t31 108v1036q0 84 -31 108t-150 37v56
h553v-56q-120 -14 -150 -38t-30 -107z" />
    <glyph glyph-name="Eth" unicode="&#xd0;" horiz-adv-x="1468" 
d="M623 1370h-172v-592h292v-69h-292v-496q0 -86 41 -116t141 -29h55q223 0 362 166q138 167 138 457t-125 476q-63 95 -175 149t-265 54zM78 709v69h180v459q0 84 -31 108t-149 37v56h581q185 0 331 -56t234 -150q176 -189 177 -472q0 -352 -205 -556t-508 -204h-610v55
q120 14 150 38t30 108v508h-180z" />
    <glyph glyph-name="Ntilde" unicode="&#xd1;" horiz-adv-x="1513" 
d="M934 1538q-62 0 -160 60t-143 61q-86 0 -150 -117l-37 21q58 135 104 186t110 51t159 -60q96 -60 141 -61q86 0 150 117l37 -20q-57 -134 -103 -186t-108 -52zM1217 1233q0 86 -36 112t-165 37v56h461v-56q-117 -14 -149 -39t-32 -110v-1241h-51l-923 1190v-977
q0 -86 36 -112t164 -38v-55h-461v55q117 14 149 39t32 111v1052q-57 74 -91 99t-94 26v56h318l842 -1096v891z" />
    <glyph glyph-name="Ograve" unicode="&#xd2;" horiz-adv-x="1425" 
d="M467 1843h215l113 -305h-35l-293 295v10zM705 -20q-197 0 -346 101q-148 101 -220 261t-71 348q0 344 186 556t473 212t459 -209t172 -501q0 -344 -187 -556t-466 -212zM721 47q199 0 311 193t113 479q0 372 -195 567q-104 104 -248 105q-200 0 -312 -193t-111 -479
q0 -373 194 -567q105 -105 248 -105z" />
    <glyph glyph-name="Oacute" unicode="&#xd3;" horiz-adv-x="1425" 
d="M979 1843v-10l-293 -295h-35l113 305h215zM705 -20q-197 0 -346 101q-148 101 -220 261t-71 348q0 344 186 556t473 212t459 -209t172 -501q0 -344 -187 -556t-466 -212zM721 47q199 0 311 193t113 479q0 372 -195 567q-104 104 -248 105q-200 0 -312 -193t-111 -479
q0 -373 194 -567q105 -105 248 -105z" />
    <glyph glyph-name="Ocircumflex" unicode="&#xd4;" horiz-adv-x="1425" 
d="M782 1864l267 -326h-48l-288 193l-289 -193h-47l266 326h139zM705 -20q-197 0 -346 101q-148 101 -220 261t-71 348q0 344 186 556t473 212t459 -209t172 -501q0 -344 -187 -556t-466 -212zM721 47q199 0 311 193t113 479q0 372 -195 567q-104 104 -248 105
q-200 0 -312 -193t-111 -479q0 -373 194 -567q105 -105 248 -105z" />
    <glyph glyph-name="Otilde" unicode="&#xd5;" horiz-adv-x="1425" 
d="M862 1538q-64 0 -160 60t-141 61q-86 0 -149 -117l-37 21q57 135 103 186t110 51t160 -60q98 -60 141 -61q86 0 149 117l37 -20q-57 -134 -103 -186t-110 -52zM705 -20q-197 0 -346 101q-148 101 -220 261t-71 348q0 344 186 556t473 212t459 -209t172 -501
q0 -344 -187 -556t-466 -212zM721 47q199 0 311 193t113 479q0 372 -195 567q-104 104 -248 105q-200 0 -312 -193t-111 -479q0 -373 194 -567q105 -105 248 -105z" />
    <glyph glyph-name="Odieresis" unicode="&#xd6;" horiz-adv-x="1425" 
d="M782 1683q0 53 37 91t89 36q52 0 89 -36t37 -90t-37 -91t-89 -37t-89 37t-37 90zM391 1683q0 53 37 91t89 36q52 0 89 -36t37 -90t-37 -91t-89 -37t-89 37t-37 90zM705 -20q-197 0 -346 101q-148 101 -220 261t-71 348q0 344 186 556t473 212t459 -209t172 -501
q0 -344 -187 -556t-466 -212zM721 47q199 0 311 193t113 479q0 372 -195 567q-104 104 -248 105q-200 0 -312 -193t-111 -479q0 -373 194 -567q105 -105 248 -105z" />
    <glyph glyph-name="multiply" unicode="&#xd7;" horiz-adv-x="999" 
d="M430 750l-293 292l70 70l293 -295l293 295l69 -70l-293 -292l293 -293l-69 -70l-293 295l-293 -295l-70 70z" />
    <glyph glyph-name="Oslash" unicode="&#xd8;" horiz-adv-x="1425" 
d="M732 47q188 0 300 193t113 460q0 267 -98 455l-621 -954q118 -154 306 -154zM697 1391q-194 -1 -306 -193t-112 -470t108 -468l623 957q-119 174 -313 174zM705 -20q-203 0 -355 106l-125 -195l-53 35l129 199q-113 99 -173 247t-60 318q0 344 186 556t465 212
q213 0 371 -119l116 181l54 -35l-121 -187q219 -206 219 -550t-187 -556t-466 -212z" />
    <glyph glyph-name="Ugrave" unicode="&#xd9;" horiz-adv-x="1456" 
d="M526 1843h215l113 -305h-35l-293 295v10zM391 1237v-733q0 -196 93 -308t261 -112q430 0 431 436v713q0 86 -36 112t-165 37v56h461v-56q-117 -14 -149 -39t-32 -110v-748q0 -249 -144 -377t-385 -128t-384 128t-143 384v745q0 84 -31 108t-150 37v56h553v-56
q-119 -14 -149 -38t-31 -107z" />
    <glyph glyph-name="Uacute" unicode="&#xda;" horiz-adv-x="1456" 
d="M1038 1843v-10l-293 -295h-34l112 305h215zM391 1237v-733q0 -196 93 -308t261 -112q430 0 431 436v713q0 86 -36 112t-165 37v56h461v-56q-117 -14 -149 -39t-32 -110v-748q0 -249 -144 -377t-385 -128t-384 128t-143 384v745q0 84 -31 108t-150 37v56h553v-56
q-119 -14 -149 -38t-31 -107z" />
    <glyph glyph-name="Ucircumflex" unicode="&#xdb;" horiz-adv-x="1456" 
d="M842 1864l266 -326h-47l-289 193l-289 -193h-47l266 326h140zM391 1237v-733q0 -196 93 -308t261 -112q430 0 431 436v713q0 86 -36 112t-165 37v56h461v-56q-117 -14 -149 -39t-32 -110v-748q0 -249 -144 -377t-385 -128t-384 128t-143 384v745q0 84 -31 108t-150 37v56
h553v-56q-119 -14 -149 -38t-31 -107z" />
    <glyph glyph-name="Udieresis" unicode="&#xdc;" horiz-adv-x="1456" 
d="M842 1683q0 53 37 91t89 36q52 0 89 -36t37 -90t-37 -91t-89 -37t-89 37t-37 90zM451 1683q0 53 36 91q37 36 89 36t90 -36q36 -36 36 -90t-36 -91t-90 -37q-52 0 -89 37q-36 37 -36 90zM391 1237v-733q0 -196 93 -308t261 -112q430 0 431 436v713q0 86 -36 112t-165 37
v56h461v-56q-117 -14 -149 -39t-32 -110v-748q0 -249 -144 -377t-385 -128t-384 128t-143 384v745q0 84 -31 108t-150 37v56h553v-56q-119 -14 -149 -38t-31 -107z" />
    <glyph glyph-name="Yacute" unicode="&#xdd;" horiz-adv-x="1271" 
d="M930 1843v-10l-293 -295h-35l113 305h215zM723 197q0 -43 9 -69q15 -43 96 -59q26 -5 94 -14v-55h-582v55q104 12 143 30q39 17 48 43t10 69v381l-410 729q-37 63 -121 75v56h522v-56q-104 -4 -143 -19t-39 -48t37 -103l309 -544l308 542q68 127 -3 154q-37 14 -143 18
v56h404v-56q-86 -12 -121 -75l-418 -727v-383z" />
    <glyph glyph-name="Thorn" unicode="&#xde;" horiz-adv-x="1189" 
d="M430 1087v-714h135q365 0 365 354q0 158 -91 259t-274 101h-135zM430 1237v-82h168q262 0 402 -121q140 -122 140 -308t-136 -304q-137 -118 -398 -117h-176v-78q0 -92 50 -124t204 -44v-59h-627v55q119 14 150 38t31 108v1036q0 84 -31 108t-150 37v56h553v-56
q-120 -14 -150 -38t-30 -107z" />
    <glyph glyph-name="germandbls" unicode="&#xdf;" horiz-adv-x="1253" 
d="M608 1604q174 0 278 -88t105 -218q0 -84 -46 -154t-100 -110q-147 -106 -147 -184q0 -63 109 -126q47 -26 82 -46q174 -97 239 -175q64 -77 64 -207t-106 -223t-248 -93q-195 0 -312 110l-12 272h57q70 -324 271 -323q96 0 147 52t51 145q0 51 -14 89q-20 55 -131 130
q-31 20 -125 72q-94 53 -138 107q-46 54 -46 120t25 112q26 47 64 90q38 44 75 90q88 111 88 241q0 269 -224 267q-119 0 -182 -95t-63 -273v-1186h-326v53q84 3 113 23t28 80v831h-151v29l151 61v64q0 229 125 346t299 117z" />
    <glyph glyph-name="agrave" unicode="&#xe0;" horiz-adv-x="1007" 
d="M244 1559h205l122 -347h-34l-293 336v11zM834 770v-543q0 -135 79 -135q37 0 95 27l10 -31q-72 -109 -197 -108q-74 0 -118 49t-52 137q-160 -186 -329 -186q-119 0 -190 70t-71 188t74 184t217 119l295 110v140q0 244 -188 243q-84 0 -125 -50t-41 -116t14 -123
l-108 -16q-80 25 -80 113q0 112 103 178t263 65q349 0 349 -315zM240 283q0 -83 46 -133t138 -50t223 109v385l-246 -100q-81 -33 -121 -81t-40 -130z" />
    <glyph glyph-name="aacute" unicode="&#xe1;" horiz-adv-x="1007" 
d="M756 1559v-11l-293 -336h-35l123 347h205zM834 770v-543q0 -135 79 -135q37 0 95 27l10 -31q-72 -109 -197 -108q-74 0 -118 49t-52 137q-160 -186 -329 -186q-119 0 -190 70t-71 188t74 184t217 119l295 110v140q0 244 -188 243q-84 0 -125 -50t-41 -116t14 -123
l-108 -16q-80 25 -80 113q0 112 103 178t263 65q349 0 349 -315zM240 283q0 -83 46 -133t138 -50t223 109v385l-246 -100q-81 -33 -121 -81t-40 -130z" />
    <glyph glyph-name="acircumflex" unicode="&#xe2;" horiz-adv-x="1007" 
d="M559 1567l225 -355h-53l-242 222l-241 -222h-53l225 355h139zM834 770v-543q0 -135 79 -135q37 0 95 27l10 -31q-72 -109 -197 -108q-74 0 -118 49t-52 137q-160 -186 -329 -186q-119 0 -190 70t-71 188t74 184t217 119l295 110v140q0 244 -188 243q-84 0 -125 -50
t-41 -116t14 -123l-108 -16q-80 25 -80 113q0 112 103 178t263 65q349 0 349 -315zM240 283q0 -83 46 -133t138 -50t223 109v385l-246 -100q-81 -33 -121 -81t-40 -130z" />
    <glyph glyph-name="atilde" unicode="&#xe3;" horiz-adv-x="1007" 
d="M616 1231q-62 0 -149 60q-86 61 -130 61t-75 -27t-65 -90l-37 20q59 139 100 189q42 50 104 49q62 0 148 -60q86 -61 130 -61t75 27t65 90l37 -21q-59 -139 -100 -188t-103 -49zM834 770v-543q0 -135 79 -135q37 0 95 27l10 -31q-72 -109 -197 -108q-74 0 -118 49
t-52 137q-160 -186 -329 -186q-119 0 -190 70t-71 188t74 184t217 119l295 110v140q0 244 -188 243q-84 0 -125 -50t-41 -116t14 -123l-108 -16q-80 25 -80 113q0 112 103 178t263 65q349 0 349 -315zM240 283q0 -83 46 -133t138 -50t223 109v385l-246 -100
q-81 -33 -121 -81t-40 -130z" />
    <glyph glyph-name="adieresis" unicode="&#xe4;" horiz-adv-x="1007" 
d="M549 1372q0 53 37 90t89 37t89 -37t37 -90t-37 -90t-89 -37t-89 37t-37 90zM178 1372q0 53 37 90t89 37t89 -37t37 -90t-37 -90t-89 -37t-89 37t-37 90zM834 770v-543q0 -135 79 -135q37 0 95 27l10 -31q-72 -109 -197 -108q-74 0 -118 49t-52 137q-160 -186 -329 -186
q-119 0 -190 70t-71 188t74 184t217 119l295 110v140q0 244 -188 243q-84 0 -125 -50t-41 -116t14 -123l-108 -16q-80 25 -80 113q0 112 103 178t263 65q349 0 349 -315zM240 283q0 -83 46 -133t138 -50t223 109v385l-246 -100q-81 -33 -121 -81t-40 -130z" />
    <glyph glyph-name="aring" unicode="&#xe5;" horiz-adv-x="1007" 
d="M313 1335q1 76 51 126t126 50t125 -50q51 -50 51 -126t-50 -126t-127 -50q-76 0 -126 50t-50 126zM379 1335q0 -51 30 -85q31 -34 81 -34t80 34t30 85t-30 85t-81 34t-81 -34t-29 -85zM834 770v-543q0 -135 79 -135q37 0 95 27l10 -31q-72 -109 -197 -108q-74 0 -118 49
t-52 137q-160 -186 -329 -186q-119 0 -190 70t-71 188t74 184t217 119l295 110v140q0 244 -188 243q-84 0 -125 -50t-41 -116t14 -123l-108 -16q-80 25 -80 113q0 112 103 178t263 65q349 0 349 -315zM240 283q0 -83 46 -133t138 -50t223 109v385l-246 -100
q-81 -33 -121 -81t-40 -130z" />
    <glyph glyph-name="ae" unicode="&#xe6;" horiz-adv-x="1497" 
d="M1047 1020q-113 0 -181 -93t-84 -239h488q0 150 -55 241t-168 91zM418 100q131 0 258 109q-66 127 -66 293q0 47 2 71l-211 -79q-81 -33 -121 -81t-40 -130q0 -83 46 -133t132 -50zM1062 1085q183 0 285 -116q101 -117 101 -297v-43h-672q-10 -242 89 -377t277 -135
t296 182l24 -12q-39 -139 -143 -223t-260 -84q-240 0 -365 196q-61 -80 -160 -138t-215 -58t-187 70t-71 188t74 184t217 119l269 94q10 55 24 102q-2 129 -49 213t-150 84q-76 0 -114 -50t-39 -116q0 -66 14 -123l-108 -16q-80 25 -80 125t99 166t243 65q209 0 291 -147
q127 147 310 147z" />
    <glyph glyph-name="ccedilla" unicode="&#xe7;" horiz-adv-x="901" 
d="M49 496q0 256 135 423t361 166q143 0 224 -58q81 -59 81 -153t-66 -131h-116q8 45 8 86q0 193 -168 193q-135 0 -215 -124t-80 -322t92 -324q92 -127 250 -127q188 0 299 170l25 -12q-47 -145 -145 -225t-238 -78q-20 0 -31 2l-31 -80q205 -4 205 -152q0 -100 -95 -152
t-255 -51l-10 54q109 -1 173 29t64 79q0 86 -178 92l76 187q-166 29 -266 165q-99 136 -99 343z" />
    <glyph glyph-name="egrave" unicode="&#xe8;" horiz-adv-x="946" 
d="M289 1559h205l122 -347h-34l-293 336v11zM496 1020q-115 0 -186 -90t-87 -234h496q0 148 -54 236t-169 88zM51 516q0 238 131 404q132 166 322 165q190 0 292 -113q101 -114 101 -292v-43h-680q-10 -242 93 -381q104 -139 282 -139t295 182l24 -12q-39 -139 -143 -223
t-260 -84q-211 0 -334 150q-123 148 -123 386z" />
    <glyph glyph-name="eacute" unicode="&#xe9;" horiz-adv-x="946" 
d="M801 1559v-11l-293 -336h-35l123 347h205zM496 1020q-115 0 -186 -90t-87 -234h496q0 148 -54 236t-169 88zM51 516q0 238 131 404q132 166 322 165q190 0 292 -113q101 -114 101 -292v-43h-680q-10 -242 93 -381q104 -139 282 -139t295 182l24 -12q-39 -139 -143 -223
t-260 -84q-211 0 -334 150q-123 148 -123 386z" />
    <glyph glyph-name="ecircumflex" unicode="&#xea;" horiz-adv-x="946" 
d="M594 1567l225 -355h-53l-242 222l-241 -222h-54l226 355h139zM496 1020q-115 0 -186 -90t-87 -234h496q0 148 -54 236t-169 88zM51 516q0 238 131 404q132 166 322 165q190 0 292 -113q101 -114 101 -292v-43h-680q-10 -242 93 -381q104 -139 282 -139t295 182l24 -12
q-39 -139 -143 -223t-260 -84q-211 0 -334 150q-123 148 -123 386z" />
    <glyph glyph-name="edieresis" unicode="&#xeb;" horiz-adv-x="946" 
d="M584 1372q0 53 37 90t89 37t89 -37t37 -90t-37 -90t-89 -37t-89 37t-37 90zM213 1372q0 53 37 90t89 37t89 -37t37 -90t-37 -90t-89 -37t-89 37t-37 90zM496 1020q-115 0 -186 -90t-87 -234h496q0 148 -54 236t-169 88zM51 516q0 238 131 404q132 166 322 165
q190 0 292 -113q101 -114 101 -292v-43h-680q-10 -242 93 -381q104 -139 282 -139t295 182l24 -12q-39 -139 -143 -223t-260 -84q-211 0 -334 150q-123 148 -123 386z" />
    <glyph glyph-name="igrave" unicode="&#xec;" horiz-adv-x="540" 
d="M31 1559h205l122 -347h-34l-293 336v11zM369 1085v-929q0 -59 28 -79q29 -19 113 -24v-53h-467v53q84 3 113 23t28 80v733l-133 72v22l293 102h25z" />
    <glyph glyph-name="iacute" unicode="&#xed;" horiz-adv-x="540" 
d="M543 1559v-11l-293 -336h-35l123 347h205zM369 1085v-929q0 -59 28 -79q29 -19 113 -24v-53h-467v53q84 3 113 23t28 80v733l-133 72v22l293 102h25z" />
    <glyph glyph-name="icircumflex" unicode="&#xee;" horiz-adv-x="540" 
d="M332 1567l205 -357h-50l-217 224l-219 -224h-47l203 357h125zM369 1085v-929q0 -59 28 -79q29 -19 113 -24v-53h-467v53q84 3 113 23t28 80v733l-133 72v22l293 102h25z" />
    <glyph glyph-name="idieresis" unicode="&#xef;" horiz-adv-x="540" 
d="M369 1085v-929q0 -59 28 -79q29 -19 113 -24v-53h-467v53q84 3 113 23t28 80v733l-133 72v22l293 102h25zM322 1372q0 53 36 90q37 37 89 37q51 0 89 -37t38 -90t-38 -90q-36 -37 -88 -37t-90 37q-36 37 -36 90zM-29 1372q0 53 37 90t89 37t89 -37t37 -90t-37 -90
t-89 -37t-89 37t-37 90z" />
    <glyph glyph-name="eth" unicode="&#xf0;" horiz-adv-x="1060" 
d="M534 43q138 0 212 127t73 341q0 214 -75 362q-75 149 -213 149t-212 -127q-73 -127 -73 -341t75 -362t213 -149zM1012 616q0 -288 -131 -462t-347 -174t-351 147q-134 147 -134 395t140 406q139 158 321 158t276 -146q-59 209 -217 385l-333 -127l-23 57l309 119
q-133 127 -293 185l25 45q209 -70 364 -193l205 78l23 -57l-172 -66q164 -147 251 -342t87 -408z" />
    <glyph glyph-name="ntilde" unicode="&#xf1;" horiz-adv-x="1183" 
d="M742 1231q-62 0 -150 60q-88 61 -131 61t-74 -27t-65 -90l-37 20q59 139 100 189t103 49q62 0 149 -60q88 -61 131 -61t74 27t65 90l37 -21q-59 -139 -100 -188q-40 -49 -102 -49zM834 156v596q0 215 -183 215q-139 0 -282 -125v-686q0 -59 28 -79q29 -19 113 -24v-53
h-467v53q84 3 113 23t28 80v733l-133 72v22l301 102h25l-8 -194q176 195 372 194q276 0 277 -329v-600q0 -58 29 -78t112 -25v-53h-467v53q84 4 113 24t29 79z" />
    <glyph glyph-name="ograve" unicode="&#xf2;" horiz-adv-x="1060" 
d="M285 1559h204l123 -347h-34l-293 336v11zM1012 546q0 -246 -140 -406t-351 -160q-212 0 -342 145t-130 393t139 408q138 160 350 160t343 -147q131 -146 131 -393zM532 43q138 0 212 127t73 341q0 214 -75 362q-75 149 -213 149t-212 -127q-73 -127 -73 -341t74 -363
q76 -148 214 -148z" />
    <glyph glyph-name="oacute" unicode="&#xf3;" horiz-adv-x="1060" 
d="M797 1559v-11l-293 -336h-35l123 347h205zM1012 546q0 -246 -140 -406t-351 -160q-212 0 -342 145t-130 393t139 408q138 160 350 160t343 -147q131 -146 131 -393zM532 43q138 0 212 127t73 341q0 214 -75 362q-75 149 -213 149t-212 -127q-73 -127 -73 -341t74 -363
q76 -148 214 -148z" />
    <glyph glyph-name="ocircumflex" unicode="&#xf4;" horiz-adv-x="1060" 
d="M600 1567l225 -355h-53l-242 222l-241 -222h-53l225 355h139zM1012 546q0 -246 -140 -406t-351 -160q-212 0 -342 145t-130 393t139 408q138 160 350 160t343 -147q131 -146 131 -393zM532 43q138 0 212 127t73 341q0 214 -75 362q-75 149 -213 149t-212 -127
q-73 -127 -73 -341t74 -363q76 -148 214 -148z" />
    <glyph glyph-name="otilde" unicode="&#xf5;" horiz-adv-x="1060" 
d="M668 1231q-62 0 -150 60q-88 61 -131 61t-74 -27t-65 -90l-37 20q59 139 100 189t103 49q62 0 149 -60q88 -61 131 -61t74 27t66 90l36 -21q-60 -139 -100 -188t-102 -49zM1012 546q0 -246 -140 -406t-351 -160q-212 0 -342 145t-130 393t139 408q138 160 350 160
t343 -147q131 -146 131 -393zM532 43q138 0 212 127t73 341q0 214 -75 362q-75 149 -213 149t-212 -127q-73 -127 -73 -341t74 -363q76 -148 214 -148z" />
    <glyph glyph-name="odieresis" unicode="&#xf6;" horiz-adv-x="1060" 
d="M590 1372q0 53 37 90t89 37t89 -37t37 -90t-37 -90t-89 -37t-89 37t-37 90zM219 1372q0 53 37 90t89 37t89 -37t37 -90t-37 -90t-89 -37t-89 37t-37 90zM1012 546q0 -246 -140 -406t-351 -160q-212 0 -342 145t-130 393t139 408q138 160 350 160t343 -147
q131 -146 131 -393zM532 43q138 0 212 127t73 341q0 214 -75 362q-75 149 -213 149t-212 -127q-73 -127 -73 -341t74 -363q76 -148 214 -148z" />
    <glyph glyph-name="divide" unicode="&#xf7;" horiz-adv-x="1155" 
d="M469 1094q0 46 31 76q32 30 76 30t75 -31t31 -75t-31 -76q-31 -31 -76 -31t-75 31t-31 76zM469 426q0 45 31 76q32 30 76 30t75 -30t31 -76q0 -45 -31 -76t-76 -31t-75 31t-31 76zM129 707v106h897v-106h-897z" />
    <glyph glyph-name="oslash" unicode="&#xf8;" horiz-adv-x="1060" 
d="M520 1022q-128 0 -202 -127t-74 -327t55 -339l428 668q-78 125 -207 125zM538 43q132 0 206 127t73 330q0 203 -57 336l-430 -668q76 -125 208 -125zM524 -20q-152 0 -266 75l-96 -151l-51 30l100 158q-162 146 -162 410t139 424t349 159q147 0 262 -75l102 157l51 -30
l-106 -164q166 -150 166 -412q0 -261 -140 -421t-348 -160z" />
    <glyph glyph-name="ugrave" unicode="&#xf9;" horiz-adv-x="1130" 
d="M315 1559h205l123 -347h-35l-293 336v11zM958 199q0 -55 14 -71t83 -24l53 -6v-43l-309 -75h-31l8 192q-92 -92 -173 -142t-177 -50q-281 0 -281 319v567q0 58 -20 78t-92 29l-33 4v47l315 57h23l-10 -223v-522q0 -236 182 -236q119 0 266 117v649q0 58 -20 78t-92 29
l-31 4v47l311 57h23l-9 -215v-667z" />
    <glyph glyph-name="uacute" unicode="&#xfa;" horiz-adv-x="1130" 
d="M827 1559v-11l-292 -336h-35l123 347h204zM958 199q0 -55 14 -71t83 -24l53 -6v-43l-309 -75h-31l8 192q-92 -92 -173 -142t-177 -50q-281 0 -281 319v567q0 58 -20 78t-92 29l-33 4v47l315 57h23l-10 -223v-522q0 -236 182 -236q119 0 266 117v649q0 58 -20 78t-92 29
l-31 4v47l311 57h23l-9 -215v-667z" />
    <glyph glyph-name="ucircumflex" unicode="&#xfb;" horiz-adv-x="1130" 
d="M631 1567l225 -355h-53l-242 222l-242 -222h-53l226 355h139zM958 199q0 -55 14 -71t83 -24l53 -6v-43l-309 -75h-31l8 192q-92 -92 -173 -142t-177 -50q-281 0 -281 319v567q0 58 -20 78t-92 29l-33 4v47l315 57h23l-10 -223v-522q0 -236 182 -236q119 0 266 117v649
q0 58 -20 78t-92 29l-31 4v47l311 57h23l-9 -215v-667z" />
    <glyph glyph-name="udieresis" unicode="&#xfc;" horiz-adv-x="1130" 
d="M621 1372q0 53 36 90q37 37 89 37t90 -37t36 -90q0 -53 -36 -90t-90 -37q-52 0 -89 37q-36 37 -36 90zM250 1372q0 53 37 90t89 37t89 -37t37 -90t-37 -90t-89 -37t-89 37t-37 90zM958 199q0 -55 14 -71t83 -24l53 -6v-43l-309 -75h-31l8 192q-92 -92 -173 -142t-177 -50
q-281 0 -281 319v567q0 58 -20 78t-92 29l-33 4v47l315 57h23l-10 -223v-522q0 -236 182 -236q119 0 266 117v649q0 58 -20 78t-92 29l-31 4v47l311 57h23l-9 -215v-667z" />
    <glyph glyph-name="yacute" unicode="&#xfd;" horiz-adv-x="1075" 
d="M848 1559v-11l-293 -336h-35l123 347h205zM735 1065h330v-53q-53 -12 -73 -28t-31 -48l-435 -1149q-47 -121 -100 -177t-141 -56q-49 0 -92 28t-56 74v59q63 -18 135 -18t126 36t89 134l39 104l-411 965q-15 35 -33 49t-72 27v53h453v-53q-86 -10 -115 -22t-29 -38
q0 -28 13 -65l278 -694l256 696q30 83 -16 101q-29 11 -115 22v53z" />
    <glyph glyph-name="thorn" unicode="&#xfe;" horiz-adv-x="1136" 
d="M156 -279v1686l-133 72v22l292 103h25v-701q134 182 334 182t306 -133t107 -358q0 -276 -147 -446t-367 -168q-147 0 -233 73v-327q0 -62 36 -80t146 -27v-53h-508v53q84 3 113 23t29 79zM903 510q0 266 -134 389q-75 68 -185 68q-147 0 -244 -111v-559q0 -258 233 -258
q147 0 239 134q91 134 91 337z" />
    <glyph glyph-name="ydieresis" unicode="&#xff;" horiz-adv-x="1075" 
d="M641 1372q0 53 37 90t89 37t89 -37t37 -90t-37 -90t-89 -37t-89 37t-37 90zM270 1372q0 53 37 90t89 37t89 -37t37 -90t-37 -90t-89 -37t-89 37t-37 90zM735 1065h330v-53q-53 -12 -73 -28t-31 -48l-435 -1149q-47 -121 -100 -177t-141 -56q-49 0 -92 28t-56 74v59
q63 -18 135 -18t126 36t89 134l39 104l-411 965q-15 35 -33 49t-72 27v53h453v-53q-86 -10 -115 -22t-29 -38q0 -28 13 -65l278 -694l256 696q30 83 -16 101q-29 11 -115 22v53z" />
    <glyph glyph-name="Amacron" unicode="&#x100;" horiz-adv-x="1425" 
d="M395 1583v100h578v-100h-578zM643 1235l-262 -666h532zM414 0h-404v55q98 14 121 76l471 1190l-57 135h205l544 -1325q25 -61 121 -76v-55h-524v55q104 5 144 23t40 57t-20 90l-115 279h-584l-108 -277q-20 -51 -20 -90t40 -58q41 -19 146 -24v-55z" />
    <glyph glyph-name="amacron" unicode="&#x101;" horiz-adv-x="1007" 
d="M233 1276v100h515v-100h-515zM834 770v-543q0 -135 79 -135q37 0 95 27l10 -31q-72 -109 -197 -108q-74 0 -118 49t-52 137q-160 -186 -329 -186q-119 0 -190 70t-71 188t74 184t217 119l295 110v140q0 244 -188 243q-84 0 -125 -50t-41 -116t14 -123l-108 -16
q-80 25 -80 113q0 112 103 178t263 65q349 0 349 -315zM240 283q0 -83 46 -133t138 -50t223 109v385l-246 -100q-81 -33 -121 -81t-40 -130z" />
    <glyph glyph-name="Abreve" unicode="&#x102;" horiz-adv-x="1425" 
d="M684 1532q-135 0 -212 81t-77 240h54q27 -193 235 -193t236 193h53q0 -161 -77 -241t-212 -80zM643 1235l-262 -666h532zM414 0h-404v55q98 14 121 76l471 1190l-57 135h205l544 -1325q25 -61 121 -76v-55h-524v55q104 5 144 23t40 57t-20 90l-115 279h-584l-108 -277
q-20 -51 -20 -90t40 -58q41 -19 146 -24v-55z" />
    <glyph glyph-name="abreve" unicode="&#x103;" horiz-adv-x="1007" 
d="M489 1221q-258 0 -258 325h60q14 -196 198 -196t199 196h60q-1 -325 -259 -325zM834 770v-543q0 -135 79 -135q37 0 95 27l10 -31q-72 -109 -197 -108q-74 0 -118 49t-52 137q-160 -186 -329 -186q-119 0 -190 70t-71 188t74 184t217 119l295 110v140q0 244 -188 243
q-84 0 -125 -50t-41 -116t14 -123l-108 -16q-80 25 -80 113q0 112 103 178t263 65q349 0 349 -315zM240 283q0 -83 46 -133t138 -50t223 109v385l-246 -100q-81 -33 -121 -81t-40 -130z" />
    <glyph glyph-name="Aogonek" unicode="&#x104;" horiz-adv-x="1425" 
d="M600 -264q0 114 92 186t206 100q116 28 146 51q30 25 31 63q0 38 -20 89l-115 279h-584l-108 -277q-20 -51 -20 -90t40 -58q41 -19 146 -24v-55h-404v55q98 14 121 76l471 1190l-57 135h205l544 -1325q25 -61 121 -76v-55h-438q-111 -16 -179 -76t-67 -160
q0 -99 100 -100q88 0 175 74l20 -23q-117 -145 -254 -145q-78 0 -125 46t-47 120zM643 1235l-262 -666h532z" />
    <glyph glyph-name="aogonek" unicode="&#x105;" horiz-adv-x="1007" 
d="M240 283q0 -83 46 -133t138 -50t223 109v385l-246 -100q-81 -33 -121 -81t-40 -130zM834 770v-543q0 -135 79 -135q37 0 95 27l10 -31q-33 -29 -129 -78q-97 -49 -153 -104t-56 -135q0 -106 100 -107q88 0 174 74l21 -23q-117 -145 -254 -145q-78 0 -126 46t-48 118
q0 141 229 252q-51 16 -85 64t-40 116q-160 -186 -329 -186q-119 0 -190 70t-71 188t74 184t217 119l295 110v140q0 244 -188 243q-84 0 -125 -50t-41 -116t14 -123l-108 -16q-80 25 -80 113q0 112 103 178t263 65q349 0 349 -315z" />
    <glyph glyph-name="Cacute" unicode="&#x106;" horiz-adv-x="1286" 
d="M1028 1843v-10l-293 -295h-35l113 305h215zM741 1458q258 0 445 -121v-299h-56q-33 174 -132 264t-257 89q-223 1 -344 -183t-121 -474t128 -488t354 -199q166 0 265 97t144 311h62l-27 -365q-195 -111 -444 -110q-315 0 -503 196q-187 198 -187 528t189 542t484 212z
" />
    <glyph glyph-name="cacute" unicode="&#x107;" horiz-adv-x="901" 
d="M799 1559v-11l-293 -336h-35l123 347h205zM213 576q0 -198 92 -324q92 -127 250 -127q188 0 299 170l25 -12q-47 -145 -145 -225t-238 -78q-199 0 -323 142t-124 386t135 411t361 166q143 0 224 -58q81 -59 81 -153t-66 -131h-116q8 45 8 86q0 193 -168 193
q-135 0 -215 -124t-80 -322z" />
    <glyph glyph-name="Ccircumflex" unicode="&#x108;" horiz-adv-x="1286" 
d="M831 1864l267 -326h-47l-289 193l-289 -193h-47l266 326h139zM741 1458q258 0 445 -121v-299h-56q-33 174 -132 264t-257 89q-223 1 -344 -183t-121 -474t128 -488t354 -199q166 0 265 97t144 311h62l-27 -365q-195 -111 -444 -110q-315 0 -503 196q-187 198 -187 528
t189 542t484 212z" />
    <glyph glyph-name="ccircumflex" unicode="&#x109;" horiz-adv-x="901" 
d="M602 1567l225 -355h-53l-242 222l-241 -222h-53l225 355h139zM213 576q0 -198 92 -324q92 -127 250 -127q188 0 299 170l25 -12q-47 -145 -145 -225t-238 -78q-199 0 -323 142t-124 386t135 411t361 166q143 0 224 -58q81 -59 81 -153t-66 -131h-116q8 45 8 86
q0 193 -168 193q-135 0 -215 -124t-80 -322z" />
    <glyph glyph-name="Cdotaccent" unicode="&#x10a;" horiz-adv-x="1286" 
d="M763 1550q-54 0 -92 39t-38 92t38 93t92 38q54 0 92 -38t38 -92t-38 -93t-92 -39zM741 1458q258 0 445 -121v-299h-56q-33 174 -132 264t-257 89q-223 1 -344 -183t-121 -474t128 -488t354 -199q166 0 265 97t144 311h62l-27 -365q-195 -111 -444 -110q-315 0 -503 196
q-187 198 -187 528t189 542t484 212z" />
    <glyph glyph-name="cdotaccent" unicode="&#x10b;" horiz-adv-x="901" 
d="M664 1376q0 -53 -38 -92t-93 -39q-54 0 -92 39t-38 92t38 92t92 39q55 0 93 -39t38 -92zM213 576q0 -198 92 -324q92 -127 250 -127q188 0 299 170l25 -12q-47 -145 -145 -225t-238 -78q-199 0 -323 142t-124 386t135 411t361 166q143 0 224 -58q81 -59 81 -153t-66 -131
h-116q8 45 8 86q0 193 -168 193q-135 0 -215 -124t-80 -322z" />
    <glyph glyph-name="Ccaron" unicode="&#x10c;" horiz-adv-x="1286" 
d="M1098 1864l-267 -326h-139l-266 326h47l289 -193l289 193h47zM741 1458q258 0 445 -121v-299h-56q-33 174 -132 264t-257 89q-223 1 -344 -183t-121 -474t128 -488t354 -199q166 0 265 97t144 311h62l-27 -365q-195 -111 -444 -110q-315 0 -503 196q-187 198 -187 528
t189 542t484 212z" />
    <glyph glyph-name="ccaron" unicode="&#x10d;" horiz-adv-x="901" 
d="M827 1569l-225 -355h-139l-225 355h53l241 -221l242 221h53zM213 576q0 -198 92 -324q92 -127 250 -127q188 0 299 170l25 -12q-47 -145 -145 -225t-238 -78q-199 0 -323 142t-124 386t135 411t361 166q143 0 224 -58q81 -59 81 -153t-66 -131h-116q8 45 8 86
q0 193 -168 193q-135 0 -215 -124t-80 -322z" />
    <glyph glyph-name="Dcaron" unicode="&#x10e;" horiz-adv-x="1447" 
d="M1006 1864l-267 -326h-139l-266 326h47l289 -193l288 193h48zM668 0h-611v55q119 14 150 38t31 108v1036q0 84 -31 108t-150 37v56h582q185 0 331 -56t234 -150q176 -190 176 -472q0 -352 -204 -556t-508 -204zM602 1370h-172v-1157q0 -86 41 -116t141 -29h56
q223 0 361 166t138 458q0 291 -125 475q-64 95 -176 149t-264 54z" />
    <glyph glyph-name="dcaron" unicode="&#x10f;" horiz-adv-x="1144" 
d="M1290 1604v-11l-213 -409h-22l41 420h194zM973 1604v-1405q0 -55 14 -71t82 -24l53 -6v-43l-311 -75h-31l8 188q-145 -188 -330 -188t-297 140t-112 361q0 273 141 439t359 165q152 0 239 -81v403l-133 72v22l293 103h25zM549 1028q-147 0 -237 -128t-89 -331
q0 -203 86 -329q85 -126 237 -125q152 0 242 100v512q0 137 -66 219q-67 82 -173 82z" />
    <glyph glyph-name="Dcroat" unicode="&#x110;" horiz-adv-x="1468" 
d="M623 1370h-172v-592h292v-69h-292v-496q0 -86 41 -116t141 -29h55q223 0 362 166q138 167 138 457t-125 476q-63 95 -175 149t-265 54zM78 709v69h180v459q0 84 -31 108t-149 37v56h581q185 0 331 -56t234 -150q176 -189 177 -472q0 -352 -205 -556t-508 -204h-610v55
q120 14 150 38t30 108v508h-180z" />
    <glyph glyph-name="dcroat" unicode="&#x111;" horiz-adv-x="1144" 
d="M549 1028q-147 0 -237 -128t-89 -331q0 -203 86 -329q85 -126 237 -125q152 0 242 100v512q0 137 -66 219q-67 82 -173 82zM973 1604v-318h149v-65h-149v-1022q0 -55 14 -71t82 -24l53 -6v-43l-311 -75h-31l8 188q-145 -188 -330 -188t-297 140t-112 361q0 273 141 439
t359 165q152 0 239 -81v217h-262v65h262v121l-133 72v22l293 103h25z" />
    <glyph glyph-name="Emacron" unicode="&#x112;" horiz-adv-x="1257" 
d="M383 1583v100h578v-100h-578zM57 0v55q119 14 150 38t31 108v1036q0 84 -31 108t-150 37v56h1069l11 -342h-41q-68 162 -130 218t-169 56h-367v-594h326q63 0 95 44t50 141h55v-437h-55q-18 96 -50 140t-95 45h-326v-502q0 -80 45 -110t156 -29h188q104 0 173 64t171 237
h49l-61 -369h-1094z" />
    <glyph glyph-name="emacron" unicode="&#x113;" horiz-adv-x="946" 
d="M258 1276v100h514v-100h-514zM496 1020q-115 0 -186 -90t-87 -234h496q0 148 -54 236t-169 88zM51 516q0 238 131 404q132 166 322 165q190 0 292 -113q101 -114 101 -292v-43h-680q-10 -242 93 -381q104 -139 282 -139t295 182l24 -12q-39 -139 -143 -223t-260 -84
q-211 0 -334 150q-123 148 -123 386z" />
    <glyph glyph-name="Ebreve" unicode="&#x114;" horiz-adv-x="1257" 
d="M672 1532q-135 0 -212 81t-77 240h53q27 -193 236 -193t235 193h54q0 -161 -77 -241t-212 -80zM57 0v55q119 14 150 38t31 108v1036q0 84 -31 108t-150 37v56h1069l11 -342h-41q-68 162 -130 218t-169 56h-367v-594h326q63 0 95 44t50 141h55v-437h-55q-18 96 -50 140
t-95 45h-326v-502q0 -80 45 -110t156 -29h188q104 0 173 64t171 237h49l-61 -369h-1094z" />
    <glyph glyph-name="ebreve" unicode="&#x115;" horiz-adv-x="946" 
d="M535 1221q-258 0 -259 325h60q14 -196 198 -196t199 196h60q0 -325 -258 -325zM496 1020q-115 0 -186 -90t-87 -234h496q0 148 -54 236t-169 88zM51 516q0 238 131 404q132 166 322 165q190 0 292 -113q101 -114 101 -292v-43h-680q-10 -242 93 -381q104 -139 282 -139
t295 182l24 -12q-39 -139 -143 -223t-260 -84q-211 0 -334 150q-123 148 -123 386z" />
    <glyph glyph-name="Edotaccent" unicode="&#x116;" horiz-adv-x="1257" 
d="M673 1550q-54 0 -92 39t-38 92t38 93t92 38q54 0 92 -38t38 -92t-38 -93t-92 -39zM57 0v55q119 14 150 38t31 108v1036q0 84 -31 108t-150 37v56h1069l11 -342h-41q-68 162 -130 218t-169 56h-367v-594h326q63 0 95 44t50 141h55v-437h-55q-18 96 -50 140t-95 45h-326
v-502q0 -80 45 -110t156 -29h188q104 0 173 64t171 237h49l-61 -369h-1094z" />
    <glyph glyph-name="edotaccent" unicode="&#x117;" horiz-adv-x="946" 
d="M519 1245q-54 0 -92 39t-38 92t38 92t92 39t92 -39t38 -92t-38 -92t-92 -39zM496 1020q-115 0 -186 -90t-87 -234h496q0 148 -54 236t-169 88zM51 516q0 238 131 404q132 166 322 165q190 0 292 -113q101 -114 101 -292v-43h-680q-10 -242 93 -381q104 -139 282 -139
t295 182l24 -12q-39 -139 -143 -223t-260 -84q-211 0 -334 150q-123 148 -123 386z" />
    <glyph glyph-name="Eogonek" unicode="&#x118;" horiz-adv-x="1257" 
d="M57 0v55q119 14 150 38t31 108v1036q0 84 -31 108t-150 37v56h1069l11 -342h-41q-68 162 -130 218t-169 56h-367v-594h326q63 0 95 44t50 141h55v-437h-55q-18 96 -50 140t-95 45h-326v-502q0 -80 45 -110t156 -29h188q104 0 173 64t171 237h49l-61 -369h-193
q-207 -94 -206 -229q0 -106 100 -107q88 0 174 74l21 -23q-117 -145 -254 -145q-78 0 -126 46t-49 118q0 158 263 266h-824z" />
    <glyph glyph-name="eogonek" unicode="&#x119;" horiz-adv-x="946" 
d="M496 1020q-115 0 -186 -90t-87 -234h496q0 148 -54 236t-169 88zM508 -20q-211 0 -334 150t-123 386q0 238 131 404q132 166 322 165q190 0 292 -113q101 -114 101 -292v-43h-680q-10 -242 93 -381q104 -139 282 -139t295 182l24 -12q-55 -205 -262 -286t-207 -230
q0 -106 101 -107q88 0 174 74l20 -23q-117 -145 -254 -145q-78 0 -126 46t-48 118q0 145 226 246h-27z" />
    <glyph glyph-name="Ecaron" unicode="&#x11a;" horiz-adv-x="1257" 
d="M1008 1864l-267 -326h-139l-266 326h47l289 -193l289 193h47zM57 0v55q119 14 150 38t31 108v1036q0 84 -31 108t-150 37v56h1069l11 -342h-41q-68 162 -130 218t-169 56h-367v-594h326q63 0 95 44t50 141h55v-437h-55q-18 96 -50 140t-95 45h-326v-502q0 -80 45 -110
t156 -29h188q104 0 173 64t171 237h49l-61 -369h-1094z" />
    <glyph glyph-name="ecaron" unicode="&#x11b;" horiz-adv-x="946" 
d="M809 1569l-225 -355h-140l-225 355h53l242 -221l242 221h53zM496 1020q-115 0 -186 -90t-87 -234h496q0 148 -54 236t-169 88zM51 516q0 238 131 404q132 166 322 165q190 0 292 -113q101 -114 101 -292v-43h-680q-10 -242 93 -381q104 -139 282 -139t295 182l24 -12
q-39 -139 -143 -223t-260 -84q-211 0 -334 150q-123 148 -123 386z" />
    <glyph glyph-name="Gcircumflex" unicode="&#x11c;" horiz-adv-x="1427" 
d="M829 1864l267 -326h-47l-289 193l-289 -193h-47l266 326h139zM1047 467q0 83 -31 107t-150 38v56h545v-56q-119 -14 -149 -38t-31 -107v-340q-217 -147 -488 -147q-307 0 -491 202t-184 506q0 348 191 559t497 211q270 0 448 -117v-303h-55q-70 354 -393 355
q-160 0 -271 -90q-207 -168 -208 -568t212 -589q113 -99 289 -99t269 86v334z" />
    <glyph glyph-name="gcircumflex" unicode="&#x11d;" horiz-adv-x="1011" 
d="M575 1567l226 -355h-53l-242 222l-242 -222h-53l225 355h139zM472 1032q-100 0 -154 -78q-52 -78 -52 -206t56 -216q56 -90 158 -90q101 0 153 78q51 78 51 206t-56 217t-156 89zM664 23h-445q-59 -61 -59 -172t80 -178t238 -67t276 68q117 68 116 193q1 156 -206 156z
M475 391q-102 0 -184 31q-82 -82 -82 -148q0 -80 84 -79h395q152 1 238 -63t86 -193q0 -181 -165 -287t-387 -106t-340 69q-118 70 -118 192q0 141 195 224q-117 45 -117 168q0 49 30 96t61 75q32 28 85 66q-178 88 -178 289q0 166 111 263q112 97 286 97q78 0 170 -30
l328 8v-96h-76l-162 8q53 -35 92 -101t39 -139q0 -156 -108 -250t-283 -94z" />
    <glyph glyph-name="Gbreve" unicode="&#x11e;" horiz-adv-x="1427" 
d="M760 1532q-135 0 -212 81t-77 240h53q27 -193 236 -193t235 193h54q0 -161 -77 -241t-212 -80zM1047 467q0 83 -31 107t-150 38v56h545v-56q-119 -14 -149 -38t-31 -107v-340q-217 -147 -488 -147q-307 0 -491 202t-184 506q0 348 191 559t497 211q270 0 448 -117v-303
h-55q-70 354 -393 355q-160 0 -271 -90q-207 -168 -208 -568t212 -589q113 -99 289 -99t269 86v334z" />
    <glyph glyph-name="gbreve" unicode="&#x11f;" horiz-adv-x="1011" 
d="M506 1221q-258 0 -258 325h59q15 -196 199 -196t199 196h59q0 -325 -258 -325zM472 1032q-100 0 -154 -78q-52 -78 -52 -206t56 -216q56 -90 158 -90q101 0 153 78q51 78 51 206t-56 217t-156 89zM664 23h-445q-59 -61 -59 -172t80 -178t238 -67t276 68q117 68 116 193
q1 156 -206 156zM475 391q-102 0 -184 31q-82 -82 -82 -148q0 -80 84 -79h395q152 1 238 -63t86 -193q0 -181 -165 -287t-387 -106t-340 69q-118 70 -118 192q0 141 195 224q-117 45 -117 168q0 49 30 96t61 75q32 28 85 66q-178 88 -178 289q0 166 111 263q112 97 286 97
q78 0 170 -30l328 8v-96h-76l-162 8q53 -35 92 -101t39 -139q0 -156 -108 -250t-283 -94z" />
    <glyph glyph-name="Gdotaccent" unicode="&#x120;" horiz-adv-x="1427" 
d="M761 1550q-54 0 -92 39t-38 92t38 93t92 38q54 0 92 -38t38 -92t-38 -93t-92 -39zM1047 467q0 83 -31 107t-150 38v56h545v-56q-119 -14 -149 -38t-31 -107v-340q-217 -147 -488 -147q-307 0 -491 202t-184 506q0 348 191 559t497 211q270 0 448 -117v-303h-55
q-70 354 -393 355q-160 0 -271 -90q-207 -168 -208 -568t212 -589q113 -99 289 -99t269 86v334z" />
    <glyph glyph-name="gdotaccent" unicode="&#x121;" horiz-adv-x="1011" 
d="M507 1245q-54 0 -92 39t-38 92t38 92t92 39t92 -39t38 -92t-38 -92t-92 -39zM472 1032q-100 0 -154 -78q-52 -78 -52 -206t56 -216q56 -90 158 -90q101 0 153 78q51 78 51 206t-56 217t-156 89zM664 23h-445q-59 -61 -59 -172t80 -178t238 -67t276 68q117 68 116 193
q1 156 -206 156zM475 391q-102 0 -184 31q-82 -82 -82 -148q0 -80 84 -79h395q152 1 238 -63t86 -193q0 -181 -165 -287t-387 -106t-340 69q-118 70 -118 192q0 141 195 224q-117 45 -117 168q0 49 30 96t61 75q32 28 85 66q-178 88 -178 289q0 166 111 263q112 97 286 97
q78 0 170 -30l328 8v-96h-76l-162 8q53 -35 92 -101t39 -139q0 -156 -108 -250t-283 -94z" />
    <glyph glyph-name="Gcommaaccent" unicode="&#x122;" horiz-adv-x="1427" 
d="M801 -303h-94q-82 16 -82 98q0 49 34 79q35 30 97 30t100 -44t39 -125t-63 -138t-185 -58v45q72 0 113 34t41 79zM1047 467q0 83 -31 107t-150 38v56h545v-56q-119 -14 -149 -38t-31 -107v-340q-217 -147 -488 -147q-307 0 -491 202t-184 506q0 348 191 559t497 211
q270 0 448 -117v-303h-55q-70 354 -393 355q-160 0 -271 -90q-207 -168 -208 -568t212 -589q113 -99 289 -99t269 86v334z" />
    <glyph glyph-name="gcommaaccent" unicode="&#x123;" horiz-adv-x="1011" 
d="M465 1450h94q82 -16 82 -98q0 -49 -35 -79q-34 -30 -96 -30t-100 44t-39 125q0 81 63 138t184 58v-45q-72 0 -112 -34t-41 -79zM472 1032q-100 0 -154 -78q-52 -78 -52 -206t56 -216q56 -90 158 -90q101 0 153 78q51 78 51 206t-56 217t-156 89zM664 23h-445
q-59 -61 -59 -172t80 -178t238 -67t276 68q117 68 116 193q1 156 -206 156zM475 391q-102 0 -184 31q-82 -82 -82 -148q0 -80 84 -79h395q152 1 238 -63t86 -193q0 -181 -165 -287t-387 -106t-340 69q-118 70 -118 192q0 141 195 224q-117 45 -117 168q0 49 30 96t61 75
q32 28 85 66q-178 88 -178 289q0 166 111 263q112 97 286 97q78 0 170 -30l328 8v-96h-76l-162 8q53 -35 92 -101t39 -139q0 -156 -108 -250t-283 -94z" />
    <glyph glyph-name="Hcircumflex" unicode="&#x124;" horiz-adv-x="1579" 
d="M858 1864l266 -326h-47l-289 193l-288 -193h-47l266 326h139zM430 1237v-459h719v459q0 84 -31 108t-149 37v56h553v-56q-119 -14 -150 -38t-31 -107v-1036q0 -84 31 -108t150 -38v-55h-553v55q119 14 149 38t31 108v508h-719v-508q0 -84 31 -108t149 -38v-55h-553v55
q119 14 150 38t31 108v1036q0 84 -31 108t-150 37v56h553v-56q-120 -14 -150 -38t-30 -107z" />
    <glyph glyph-name="hcircumflex" unicode="&#x125;" horiz-adv-x="1177" 
d="M643 1968l266 -326h-47l-289 193l-288 -193h-47l266 326h139zM178 156v1251l-133 72v22l293 103h24v-713q176 195 373 194q276 0 277 -335v-594q0 -59 28 -79q29 -19 113 -24v-53h-467v53q84 3 113 23t28 80v596q0 215 -182 215q-139 0 -283 -125v-686q0 -58 29 -78
t113 -25v-53h-467v53q84 4 113 24q28 20 28 79z" />
    <glyph glyph-name="Hbar" unicode="&#x126;" horiz-adv-x="1619" 
d="M451 778h718v246h-718v-246zM451 1237v-143h718v143q0 84 -30 108q-31 24 -150 37v56h553v-56q-120 -14 -150 -38t-30 -107v-143h180v-70h-180v-823q0 -84 31 -108t149 -38v-55h-553v55q119 14 150 38t30 108v508h-718v-508q1 -84 31 -108t149 -38v-55h-553v55
q120 14 150 38t30 108v823h-180v70h180v143q0 84 -31 108t-149 37v56h553v-56q-119 -14 -150 -37q-30 -24 -30 -108z" />
    <glyph glyph-name="hbar" unicode="&#x127;" horiz-adv-x="1177" 
d="M178 156v1065h-133v65h133v121l-133 72v22l293 103h24v-318h279v-65h-279v-330q176 195 373 194q276 0 277 -335v-594q0 -59 28 -79q29 -19 113 -24v-53h-467v53q84 3 113 23t28 80v596q0 215 -182 215q-139 0 -283 -125v-686q0 -58 29 -78t113 -25v-53h-467v53
q84 4 113 24q28 20 28 79z" />
    <glyph glyph-name="Itilde" unicode="&#x128;" horiz-adv-x="667" 
d="M471 1534q-57 0 -145 61t-129 62q-78 0 -136 -119l-34 21q53 137 95 189t99 52t145 -61t130 -62q78 0 135 119l33 -20q-52 -138 -94 -190t-99 -52zM430 1237v-1036q0 -84 31 -108t149 -38v-55h-553v55q119 14 150 38t31 108v1036q0 84 -31 108t-150 37v56h553v-56
q-120 -14 -150 -38t-30 -107z" />
    <glyph glyph-name="itilde" unicode="&#x129;" horiz-adv-x="540" 
d="M369 1085v-929q0 -59 28 -79q29 -19 113 -24v-53h-467v53q84 3 113 23t28 80v733l-133 72v22l293 102h25zM388 1231q-54 0 -132 57q-78 58 -118 58t-66 -23t-60 -88l-43 20q51 141 88 189t95 49q58 0 134 -57q76 -58 114 -58t64 23t60 88l43 -21q-51 -141 -87 -189
q-38 -48 -92 -48z" />
    <glyph glyph-name="Imacron" unicode="&#x12a;" horiz-adv-x="667" 
d="M45 1583v100h578v-100h-578zM430 1237v-1036q0 -84 31 -108t149 -38v-55h-553v55q119 14 150 38t31 108v1036q0 84 -31 108t-150 37v56h553v-56q-120 -14 -150 -38t-30 -107z" />
    <glyph glyph-name="imacron" unicode="&#x12b;" horiz-adv-x="540" 
d="M55 1278v98h424v-98h-424zM369 1085v-929q0 -59 28 -79q29 -19 113 -24v-53h-467v53q84 3 113 23t28 80v733l-133 72v22l293 102h25z" />
    <glyph glyph-name="Ibreve" unicode="&#x12c;" horiz-adv-x="667" 
d="M338 1530q-123 0 -194 81t-70 242h49q25 -195 215 -195t215 195h47q0 -163 -70 -243t-192 -80zM430 1237v-1036q0 -84 31 -108t149 -38v-55h-553v55q119 14 150 38t31 108v1036q0 84 -31 108t-150 37v56h553v-56q-120 -14 -150 -38t-30 -107z" />
    <glyph glyph-name="ibreve" unicode="&#x12d;" horiz-adv-x="540" 
d="M276 1221q-236 0 -235 325h55q10 -197 180 -196q168 0 183 196h53q0 -325 -236 -325zM369 1085v-929q0 -59 28 -79q29 -19 113 -24v-53h-467v53q84 3 113 23t28 80v733l-133 72v22l293 102h25z" />
    <glyph glyph-name="Iogonek" unicode="&#x12e;" horiz-adv-x="667" 
d="M430 1237v-1036q0 -84 31 -108t149 -38v-55h-149q-207 -94 -207 -229q0 -106 100 -107q88 0 174 74l21 -23q-117 -145 -254 -145q-78 0 -126 46t-48 118q0 158 262 266h-326v55q119 14 150 38t31 108v1036q0 84 -31 108t-150 37v56h553v-56q-120 -14 -150 -38t-30 -107z
" />
    <glyph glyph-name="iogonek" unicode="&#x12f;" horiz-adv-x="540" 
d="M267 1245q-54 0 -92 39t-38 92t38 92t92 39t92 -39t38 -92t-38 -92t-92 -39zM369 1085v-929q0 -59 28 -79q29 -19 113 -24v-53h-123q-207 -94 -207 -229q0 -106 101 -107q88 0 174 74l20 -23q-117 -145 -254 -145q-78 0 -126 46t-48 118q0 158 262 266h-266v53
q84 3 113 23t28 80v733l-133 72v22l293 102h25z" />
    <glyph glyph-name="Idotaccent" unicode="&#x130;" horiz-adv-x="667" 
d="M335 1550q-54 0 -92 39t-38 92t38 93t92 38q54 0 92 -38t38 -92t-38 -93t-92 -39zM430 1237v-1036q0 -84 31 -108t149 -38v-55h-553v55q119 14 150 38t31 108v1036q0 84 -31 108t-150 37v56h553v-56q-120 -14 -150 -38t-30 -107z" />
    <glyph glyph-name="dotlessi" unicode="&#x131;" horiz-adv-x="540" 
d="M369 1085v-929q0 -59 28 -79q29 -19 113 -24v-53h-467v53q84 3 113 23t28 80v733l-133 72v22l293 102h25z" />
    <glyph glyph-name="IJ" unicode="&#x132;" horiz-adv-x="1650" 
d="M1241 342v895q0 84 -31 108t-149 37v56h553v-56q-119 -14 -150 -38t-30 -107v-825q0 -215 -106 -324q-106 -108 -288 -108t-282 68t-101 190q0 82 58 131h137q-10 -57 -10 -101q0 -231 196 -231q203 0 203 305zM430 1237v-1036q0 -84 31 -108t149 -38v-55h-553v55
q119 14 150 38t31 108v1036q0 84 -31 108t-150 37v56h553v-56q-120 -14 -150 -38t-30 -107z" />
    <glyph glyph-name="ij" unicode="&#x133;" horiz-adv-x="1038" 
d="M785 1507q55 0 93 -39t38 -92t-39 -92q-38 -39 -92 -39t-92 39t-38 92t38 92t92 39zM887 1085v-913q0 -135 -10 -200t-43 -132q-59 -119 -252 -297l-31 23l84 147q45 78 56 162t11 231v783l-133 72v22l293 102h25zM267 1245q-54 0 -92 39t-38 92t38 92t92 39t92 -39
t38 -92t-38 -92t-92 -39zM369 1085v-929q0 -59 28 -79q29 -19 113 -24v-53h-467v53q84 3 113 23t28 80v733l-133 72v22l293 102h25z" />
    <glyph glyph-name="Jcircumflex" unicode="&#x134;" horiz-adv-x="980" 
d="M735 1864l266 -326h-47l-288 193l-289 -193h-47l266 326h139zM571 342v895q0 84 -30 108q-31 24 -150 37v56h553v-56q-120 -14 -150 -38t-30 -107v-825q0 -215 -106 -324q-106 -108 -288 -108t-282 68t-100 190q0 82 57 131h137q-10 -57 -10 -101q0 -231 197 -231
q202 0 202 305z" />
    <glyph glyph-name="jcircumflex" unicode="&#x135;" horiz-adv-x="497" 
d="M307 1567l205 -357h-49l-217 224l-219 -224h-47l202 357h125zM346 1085v-913q0 -135 -10 -200t-43 -132q-59 -119 -252 -297l-31 23l84 147q45 78 57 162q11 84 11 231v783l-133 72v22l293 102h24z" />
    <glyph glyph-name="Kcommaaccent" unicode="&#x136;" horiz-adv-x="1353" 
d="M745 -303h-94q-82 16 -82 98q0 49 35 79q34 30 96 30t101 -44t39 -125t-64 -138t-184 -58v45q72 0 113 34q40 34 40 79zM430 1237v-1036q0 -84 31 -108t149 -38v-55h-553v55q119 14 150 38t31 108v1036q0 84 -31 108t-150 37v56h553v-56q-120 -14 -150 -38t-30 -107z
M1354 0h-299q-82 61 -172 176l-424 537l520 542q45 45 45 74t-29 37t-135 16v56h430v-56q-63 -2 -100 -24t-92 -80l-467 -485l459 -574q82 -104 128 -132t136 -32v-55z" />
    <glyph glyph-name="kcommaaccent" unicode="&#x137;" horiz-adv-x="1087" 
d="M633 -303h-94q-82 16 -82 98q0 49 35 79q34 30 96 30t100 -44t39 -125q0 -81 -63 -138t-185 -58v45q72 0 113 34t41 79zM180 156v1251l-133 72v22l293 103h25v-1448q0 -59 28 -79q29 -19 113 -24v-53h-467v53q84 4 113 24q28 20 28 79zM770 958q0 37 -108 50q-18 2 -29 4
v53h405v-53q-102 -25 -161 -78l-312 -283l522 -612v-39h-206l-492 584l330 301q51 47 51 73z" />
    <glyph glyph-name="kgreenlandic" unicode="&#x138;" horiz-adv-x="1091" 
d="M184 156v733l-133 72v22l293 102h25v-929q0 -59 28 -79q29 -19 113 -24v-53h-467v53q84 4 113 24q28 20 28 79zM774 958q0 37 -108 50q-18 2 -29 4v53h405v-53q-102 -25 -161 -78l-312 -283l523 -612v-39h-207l-492 584l330 301q51 47 51 73z" />
    <glyph glyph-name="Lacute" unicode="&#x139;" horiz-adv-x="1191" 
d="M664 1843v-10l-293 -295h-35l113 305h215zM430 1237v-1030q0 -80 45 -110t156 -29h121q120 0 188 72t164 259h51l-65 -399h-1033v55q119 14 150 38t31 108v1036q0 84 -31 108t-150 37v56h553v-56q-120 -14 -150 -38t-30 -107z" />
    <glyph glyph-name="lacute" unicode="&#x13a;" horiz-adv-x="536" 
d="M539 1931v-10l-293 -295h-35l113 305h215zM365 1604v-1448q0 -59 28 -79q29 -19 113 -24v-53h-467v53q84 3 113 23t28 80v1251l-133 72v22l293 103h25z" />
    <glyph glyph-name="Lcommaaccent" unicode="&#x13b;" horiz-adv-x="1191" 
d="M647 -303h-94q-82 16 -82 98q0 49 35 79q34 30 96 30t100 -44t39 -125q0 -81 -63 -138t-184 -58v45q72 0 112 34t41 79zM430 1237v-1030q0 -80 45 -110t156 -29h121q120 0 188 72t164 259h51l-65 -399h-1033v55q119 14 150 38t31 108v1036q0 84 -31 108t-150 37v56h553
v-56q-120 -14 -150 -38t-30 -107z" />
    <glyph glyph-name="lcommaaccent" unicode="&#x13c;" horiz-adv-x="536" 
d="M313 -303h-94q-82 16 -82 98q0 49 35 79q34 30 96 30t101 -44t39 -125t-64 -138t-184 -58v45q72 0 112 34t41 79zM365 1604v-1448q0 -59 28 -79q29 -19 113 -24v-53h-467v53q84 3 113 23t28 80v1251l-133 72v22l293 103h25z" />
    <glyph glyph-name="Lcaron" unicode="&#x13d;" horiz-adv-x="1191" 
d="M1008 1438v-11l-213 -409h-23l41 420h195zM430 1237v-1030q0 -80 45 -110t156 -29h121q120 0 188 72t164 259h51l-65 -399h-1033v55q119 14 150 38t31 108v1036q0 84 -31 108t-150 37v56h553v-56q-120 -14 -150 -38t-30 -107z" />
    <glyph glyph-name="lcaron" unicode="&#x13e;" horiz-adv-x="536" 
d="M682 1602v-11l-213 -409h-23l41 420h195zM365 1604v-1448q0 -59 28 -79q29 -19 113 -24v-53h-467v53q84 3 113 23t28 80v1251l-133 72v22l293 103h25z" />
    <glyph glyph-name="Ldot" unicode="&#x13f;" horiz-adv-x="1191" 
d="M831 793q0 59 41 100q40 41 100 41t101 -41t41 -100t-41 -101t-100 -41q-59 0 -101 41q-41 42 -41 101zM430 1237v-1030q0 -80 45 -110t156 -29h121q120 0 188 72t164 259h51l-65 -399h-1033v55q119 14 150 38t31 108v1036q0 84 -31 108t-150 37v56h553v-56
q-120 -14 -150 -38t-30 -107z" />
    <glyph glyph-name="ldot" unicode="&#x140;" horiz-adv-x="630" 
d="M455 759q0 54 39 94t94 40t94 -40t39 -94t-39 -93t-94 -39t-94 39t-39 93zM365 1604v-1448q0 -59 28 -79q29 -19 113 -24v-53h-467v53q84 3 113 23t28 80v1251l-133 72v22l293 103h25z" />
    <glyph glyph-name="Lslash" unicode="&#x141;" horiz-adv-x="1191" 
d="M430 1237v-492l318 148v-74l-318 -145v-467q0 -80 45 -110t156 -29h121q120 0 188 72t164 259h51l-65 -399h-1033v55q119 14 150 38t31 108v395l-156 -72v74l156 72v567q0 84 -31 108t-150 37v56h553v-56q-120 -14 -150 -38t-30 -107z" />
    <glyph glyph-name="lslash" unicode="&#x142;" horiz-adv-x="569" 
d="M375 1604v-660l174 111v-78l-174 -113v-708q0 -59 28 -79q29 -19 113 -24v-53h-467v53q84 3 113 23t28 80v612l-161 -100v77l161 101v561l-133 72v22l293 103h25z" />
    <glyph glyph-name="Nacute" unicode="&#x143;" horiz-adv-x="1513" 
d="M1040 1843v-10l-292 -295h-35l112 305h215zM1217 1233q0 86 -36 112t-165 37v56h461v-56q-117 -14 -149 -39t-32 -110v-1241h-51l-923 1190v-977q0 -86 36 -112t164 -38v-55h-461v55q117 14 149 39t32 111v1052q-57 74 -91 99t-94 26v56h318l842 -1096v891z" />
    <glyph glyph-name="nacute" unicode="&#x144;" horiz-adv-x="1183" 
d="M874 1559v-11l-292 -336h-35l123 347h204zM834 156v596q0 215 -183 215q-139 0 -282 -125v-686q0 -59 28 -79q29 -19 113 -24v-53h-467v53q84 3 113 23t28 80v733l-133 72v22l301 102h25l-8 -194q176 195 372 194q276 0 277 -329v-600q0 -58 29 -78t112 -25v-53h-467v53
q84 4 113 24t29 79z" />
    <glyph glyph-name="Ncommaaccent" unicode="&#x145;" horiz-adv-x="1513" 
d="M836 -303h-95q-82 16 -82 98q0 49 35 79q34 30 96 30t101 -44t39 -125t-64 -138t-184 -58v45q72 0 113 34t41 79zM1217 1233q0 86 -36 112t-165 37v56h461v-56q-117 -14 -149 -39t-32 -110v-1241h-51l-923 1190v-977q0 -86 36 -112t164 -38v-55h-461v55q117 14 149 39
t32 111v1052q-57 74 -91 99t-94 26v56h318l842 -1096v891z" />
    <glyph glyph-name="ncommaaccent" unicode="&#x146;" horiz-adv-x="1183" 
d="M649 -303h-94q-82 16 -82 98q0 49 35 79q34 30 96 30t101 -44t39 -125t-64 -138q-63 -57 -184 -58v45q72 0 112 34t41 79zM834 156v596q0 215 -183 215q-139 0 -282 -125v-686q0 -59 28 -79q29 -19 113 -24v-53h-467v53q84 3 113 23t28 80v733l-133 72v22l301 102h25
l-8 -194q176 195 372 194q276 0 277 -329v-600q0 -58 29 -78t112 -25v-53h-467v53q84 4 113 24t29 79z" />
    <glyph glyph-name="Ncaron" unicode="&#x147;" horiz-adv-x="1513" 
d="M1130 1864l-266 -326h-139l-266 326h47l289 -193l288 193h47zM1217 1233q0 86 -36 112t-165 37v56h461v-56q-117 -14 -149 -39t-32 -110v-1241h-51l-923 1190v-977q0 -86 36 -112t164 -38v-55h-461v55q117 14 149 39t32 111v1052q-57 74 -91 99t-94 26v56h318l842 -1096
v891z" />
    <glyph glyph-name="ncaron" unicode="&#x148;" horiz-adv-x="1183" 
d="M903 1569l-225 -355h-139l-226 355h54l241 -221l242 221h53zM834 156v596q0 215 -183 215q-139 0 -282 -125v-686q0 -59 28 -79q29 -19 113 -24v-53h-467v53q84 3 113 23t28 80v733l-133 72v22l301 102h25l-8 -194q176 195 372 194q276 0 277 -329v-600q0 -58 29 -78
t112 -25v-53h-467v53q84 4 113 24t29 79z" />
    <glyph glyph-name="Eng" unicode="&#x14a;" horiz-adv-x="1513" 
d="M322 205q0 -86 36 -112t164 -38v-55h-461v55q117 14 149 39t32 111v1052q-57 74 -91 99t-94 26v56h322l838 -1092v887q0 86 -36 112t-165 37v56h461v-56q-117 -14 -149 -39t-32 -110v-1061q0 -134 -10 -198t-44 -134t-84 -123t-140 -127l-31 23l43 68q111 174 111 444
l-819 1057v-977z" />
    <glyph glyph-name="eng" unicode="&#x14b;" horiz-adv-x="1169" 
d="M834 106v646q0 215 -183 215q-139 0 -282 -125v-686q0 -59 28 -79q29 -19 113 -24v-53h-467v53q84 3 113 23t28 80v733l-133 72v22l301 102h25l-8 -194q176 195 372 194q276 0 277 -329v-584q0 -135 -10 -200t-43 -132q-59 -119 -252 -297l-31 23l84 147q45 78 56 162
q12 84 12 231z" />
    <glyph glyph-name="Omacron" unicode="&#x14c;" horiz-adv-x="1425" 
d="M424 1583v100h577v-100h-577zM705 -20q-197 0 -346 101q-148 101 -220 261t-71 348q0 344 186 556t473 212t459 -209t172 -501q0 -344 -187 -556t-466 -212zM721 47q199 0 311 193t113 479q0 372 -195 567q-104 104 -248 105q-200 0 -312 -193t-111 -479q0 -373 194 -567
q105 -105 248 -105z" />
    <glyph glyph-name="omacron" unicode="&#x14d;" horiz-adv-x="1060" 
d="M274 1276v100h514v-100h-514zM1012 546q0 -246 -140 -406t-351 -160q-212 0 -342 145t-130 393t139 408q138 160 350 160t343 -147q131 -146 131 -393zM532 43q138 0 212 127t73 341q0 214 -75 362q-75 149 -213 149t-212 -127q-73 -127 -73 -341t74 -363
q76 -148 214 -148z" />
    <glyph glyph-name="Obreve" unicode="&#x14e;" horiz-adv-x="1425" 
d="M713 1532q-135 0 -212 81t-77 240h53q27 -193 236 -193t235 193h53q-1 -161 -77 -241t-211 -80zM705 -20q-197 0 -346 101q-148 101 -220 261t-71 348q0 344 186 556t473 212t459 -209t172 -501q0 -344 -187 -556t-466 -212zM721 47q199 0 311 193t113 479
q0 372 -195 567q-104 104 -248 105q-200 0 -312 -193t-111 -479q0 -373 194 -567q105 -105 248 -105z" />
    <glyph glyph-name="obreve" unicode="&#x14f;" horiz-adv-x="1060" 
d="M530 1221q-258 0 -258 325h60q14 -196 198 -196t199 196h59q0 -325 -258 -325zM1012 546q0 -246 -140 -406t-351 -160q-212 0 -342 145t-130 393t139 408q138 160 350 160t343 -147q131 -146 131 -393zM532 43q138 0 212 127t73 341q0 214 -75 362q-75 149 -213 149
t-212 -127q-73 -127 -73 -341t74 -363q76 -148 214 -148z" />
    <glyph glyph-name="Ohungarumlaut" unicode="&#x150;" horiz-adv-x="1425" 
d="M1147 1843v-10l-283 -295h-39l123 305h199zM854 1843v-10l-283 -295h-39l123 305h199zM705 -20q-197 0 -346 101q-148 101 -220 261t-71 348q0 344 186 556t473 212t459 -209t172 -501q0 -344 -187 -556t-466 -212zM721 47q199 0 311 193t113 479q0 372 -195 567
q-104 104 -248 105q-200 0 -312 -193t-111 -479q0 -373 194 -567q105 -105 248 -105z" />
    <glyph glyph-name="ohungarumlaut" unicode="&#x151;" horiz-adv-x="1060" 
d="M952 1559v-11l-286 -336h-35l123 347h198zM659 1559v-11l-286 -336h-35l123 347h198zM1012 546q0 -246 -140 -406t-351 -160q-212 0 -342 145t-130 393t139 408q138 160 350 160t343 -147q131 -146 131 -393zM532 43q138 0 212 127t73 341q0 214 -75 362
q-75 149 -213 149t-212 -127q-73 -127 -73 -341t74 -363q76 -148 214 -148z" />
    <glyph glyph-name="OE" unicode="&#x152;" horiz-adv-x="2025" 
d="M868 0q-387 0 -594 196t-206 482q0 352 223 556t553 204h1061v-342h-41q-68 162 -130 218t-169 56h-367v-594h326q63 0 95 44t50 141h55v-437h-55q-18 96 -50 140t-95 45h-326v-502q0 -80 45 -110t156 -29h188q104 0 173 64t171 237h49l-61 -369h-1051zM1006 1370h-150
q-258 0 -417 -167t-158 -478q0 -268 143 -455q72 -94 194 -148t283 -54h105v1302z" />
    <glyph glyph-name="oe" unicode="&#x153;" horiz-adv-x="1701" 
d="M1251 1020q-115 0 -185 -90t-87 -234h496q-1 148 -55 236t-169 88zM534 43q138 0 212 127t73 341q0 214 -75 362q-75 149 -213 149t-212 -127q-73 -127 -73 -341t75 -362t213 -149zM539 1085q121 0 219 -54t160 -150q61 94 154 149t196 55q182 1 283 -113t102 -292v-43
h-680q-10 -242 93 -381t281 -139t295 182l25 -12q-39 -139 -143 -223t-240 -84q-257 1 -385 202q-66 -94 -164 -148t-209 -54q-215 0 -345 145t-130 393t139 408q140 159 349 159z" />
    <glyph glyph-name="Racute" unicode="&#x154;" horiz-adv-x="1380" 
d="M899 1843v-10l-293 -295h-35l113 305h215zM430 629v-428q0 -84 31 -108t149 -38v-55h-553v55q119 14 150 38t31 108v1036q0 84 -31 108t-150 37v56h549q254 0 387 -108t133 -278t-111 -268q-112 -98 -251 -125l336 -432q74 -96 134 -133t146 -39v-55h-305
q-70 47 -170 182l-334 447h-141zM561 1370h-131v-674h139q350 0 351 351q0 141 -92 232t-267 91z" />
    <glyph glyph-name="racute" unicode="&#x155;" horiz-adv-x="743" 
d="M731 1559v-11l-293 -336h-35l123 347h205zM369 156q0 -58 38 -78t144 -25v-53h-508v53q84 3 113 23t28 80v733l-133 72v22l301 102h25l-8 -290q94 174 145 232q52 58 118 58t91 -32v-154h-29q-109 -1 -177 -27t-148 -122v-594z" />
    <glyph glyph-name="Rcommaaccent" unicode="&#x156;" horiz-adv-x="1380" 
d="M776 -303h-94q-82 16 -82 98q0 49 35 79t97 30t100 -44t38 -125t-63 -138t-184 -58v45q73 0 113 34t40 79zM430 629v-428q0 -84 31 -108t149 -38v-55h-553v55q119 14 150 38t31 108v1036q0 84 -31 108t-150 37v56h549q254 0 387 -108t133 -278t-111 -268
q-112 -98 -251 -125l336 -432q74 -96 134 -133t146 -39v-55h-305q-70 47 -170 182l-334 447h-141zM561 1370h-131v-674h139q350 0 351 351q0 141 -92 232t-267 91z" />
    <glyph glyph-name="rcommaaccent" unicode="&#x157;" horiz-adv-x="743" 
d="M334 -303h-94q-82 16 -82 98q0 49 35 79t97 30t100 -44t38 -125t-63 -138t-185 -58v45q72 0 113 34t41 79zM369 156q0 -58 38 -78t144 -25v-53h-508v53q84 3 113 23t28 80v733l-133 72v22l301 102h25l-8 -290q94 174 145 232q52 58 118 58t91 -32v-154h-29
q-109 -1 -177 -27t-148 -122v-594z" />
    <glyph glyph-name="Rcaron" unicode="&#x158;" horiz-adv-x="1380" 
d="M969 1864l-267 -326h-139l-266 326h47l289 -193l289 193h47zM430 629v-428q0 -84 31 -108t149 -38v-55h-553v55q119 14 150 38t31 108v1036q0 84 -31 108t-150 37v56h549q254 0 387 -108t133 -278t-111 -268q-112 -98 -251 -125l336 -432q74 -96 134 -133t146 -39v-55
h-305q-70 47 -170 182l-334 447h-141zM561 1370h-131v-674h139q350 0 351 351q0 141 -92 232t-267 91z" />
    <glyph glyph-name="rcaron" unicode="&#x159;" horiz-adv-x="743" 
d="M760 1569l-225 -355h-140l-225 355h53l242 -221l242 221h53zM369 156q0 -58 38 -78t144 -25v-53h-508v53q84 3 113 23t28 80v733l-133 72v22l301 102h25l-8 -290q94 174 145 232q52 58 118 58t91 -32v-154h-29q-109 -1 -177 -27t-148 -122v-594z" />
    <glyph glyph-name="Sacute" unicode="&#x15a;" horiz-adv-x="1062" 
d="M813 1843v-10l-293 -295h-35l113 305h215zM506 -20q-133 0 -247 36t-181 97l-12 346h59q74 -414 381 -414q139 0 220 75q81 74 81 196t-74 191t-271 152t-289 169q-91 87 -91 250t117 272t313 108q242 0 410 -119v-301h-60q-23 174 -112 265q-90 90 -224 90t-204 -69
q-68 -70 -68 -180t62 -173t263 -147t301 -180t101 -271q0 -173 -137 -283t-338 -110z" />
    <glyph glyph-name="sacute" unicode="&#x15b;" horiz-adv-x="884" 
d="M721 1559v-11l-293 -336h-35l123 347h205zM807 285q1 -135 -101 -220t-294 -85t-322 100l-12 282h55q90 -326 309 -325q96 0 156 49q59 49 59 138t-56 138q-56 50 -211 110q-156 60 -226 131t-70 198t92 206t257 79t300 -87v-247h-49q-72 276 -272 276q-86 0 -134 -47
t-48 -124t54 -127t204 -106t230 -130q79 -74 79 -209z" />
    <glyph glyph-name="Scircumflex" unicode="&#x15c;" horiz-adv-x="1062" 
d="M616 1864l267 -326h-47l-289 193l-289 -193h-47l266 326h139zM506 -20q-133 0 -247 36t-181 97l-12 346h59q74 -414 381 -414q139 0 220 75q81 74 81 196t-74 191t-271 152t-289 169q-91 87 -91 250t117 272t313 108q242 0 410 -119v-301h-60q-23 174 -112 265
q-90 90 -224 90t-204 -69q-68 -70 -68 -180t62 -173t263 -147t301 -180t101 -271q0 -173 -137 -283t-338 -110z" />
    <glyph glyph-name="scircumflex" unicode="&#x15d;" horiz-adv-x="884" 
d="M524 1567l226 -355h-54l-241 222l-242 -222h-53l225 355h139zM807 285q1 -135 -101 -220t-294 -85t-322 100l-12 282h55q90 -326 309 -325q96 0 156 49q59 49 59 138t-56 138q-56 50 -211 110q-156 60 -226 131t-70 198t92 206t257 79t300 -87v-247h-49q-72 276 -272 276
q-86 0 -134 -47t-48 -124t54 -127t204 -106t230 -130q79 -74 79 -209z" />
    <glyph glyph-name="Scedilla" unicode="&#x15e;" horiz-adv-x="1062" 
d="M506 45q139 0 220 75q81 74 81 196t-74 191t-271 152t-289 169q-91 87 -91 250t117 272t313 108q242 0 410 -119v-301h-60q-23 174 -112 265q-90 90 -224 90t-204 -69q-68 -70 -68 -180t62 -173t263 -147t301 -180t101 -271q0 -174 -136 -283t-337 -110l-31 -78
q205 -4 205 -152q0 -100 -95 -152t-255 -51l-10 54q110 -1 174 29t63 79q0 86 -178 92l74 181q-248 16 -377 131l-12 346h59q74 -414 381 -414z" />
    <glyph glyph-name="scedilla" unicode="&#x15f;" horiz-adv-x="884" 
d="M657 224q0 89 -56 138q-56 50 -211 110q-156 60 -226 131t-70 198t92 206t257 79t300 -87v-247h-49q-72 276 -272 276q-86 0 -134 -47t-48 -124t54 -127t204 -106t230 -130q79 -74 79 -209t-101 -220t-272 -85h-14l-31 -78q205 -4 205 -152q0 -100 -95 -152t-255 -51
l-11 54q109 -1 174 29t64 79q0 86 -178 92l74 183q-176 16 -277 96l-12 282h55q90 -326 309 -325q96 0 156 49q59 49 59 138z" />
    <glyph glyph-name="Scaron" unicode="&#x160;" horiz-adv-x="1062" 
d="M883 1864l-267 -326h-139l-266 326h47l289 -193l289 193h47zM506 -20q-133 0 -247 36t-181 97l-12 346h59q74 -414 381 -414q139 0 220 75q81 74 81 196t-74 191t-271 152t-289 169q-91 87 -91 250t117 272t313 108q242 0 410 -119v-301h-60q-23 174 -112 265
q-90 90 -224 90t-204 -69q-68 -70 -68 -180t62 -173t263 -147t301 -180t101 -271q0 -173 -137 -283t-338 -110z" />
    <glyph glyph-name="scaron" unicode="&#x161;" horiz-adv-x="884" 
d="M750 1569l-226 -355h-139l-225 355h53l242 -221l241 221h54zM807 285q1 -135 -101 -220t-294 -85t-322 100l-12 282h55q90 -326 309 -325q96 0 156 49q59 49 59 138t-56 138q-56 50 -211 110q-156 60 -226 131t-70 198t92 206t257 79t300 -87v-247h-49q-72 276 -272 276
q-86 0 -134 -47t-48 -124t54 -127t204 -106t230 -130q79 -74 79 -209z" />
    <glyph glyph-name="Tcedilla" unicode="&#x162;" horiz-adv-x="1312" 
d="M696 -303h-94q-82 16 -82 98q0 49 35 79t97 30t100 -44q39 -44 39 -125q1 -81 -63 -138t-185 -58v45q73 0 113 34t40 79zM754 1374v-1177q0 -43 9 -69q15 -43 96 -59q26 -5 93 -14v-55h-592v55q105 12 144 30q39 17 48 43t9 69v1177h-151q-129 0 -187 -67
q-57 -68 -149 -297h-45l30 428h1194l31 -428h-45q-92 229 -149 297t-187 67h-149z" />
    <glyph glyph-name="tcedilla" unicode="&#x163;" horiz-adv-x="669" 
d="M375 -303h-94q-82 16 -82 98q0 49 34 79q35 30 97 30t100 -44t39 -125q0 -81 -63 -138t-185 -58v45q72 0 113 34t41 79zM319 1319v-254h293v-78h-293v-678q0 -113 41 -163t126 -50t165 60l19 -25q-104 -152 -271 -151q-119 0 -189 72t-71 227v708h-139v29q168 90 279 303
h40z" />
    <glyph glyph-name="Tcaron" unicode="&#x164;" horiz-adv-x="1312" 
d="M991 1864l-266 -326h-139l-267 326h48l288 -193l289 193h47zM754 1374v-1177q0 -43 9 -69q15 -43 96 -59q26 -5 93 -14v-55h-592v55q105 12 144 30q39 17 48 43t9 69v1177h-151q-129 0 -187 -67q-57 -68 -149 -297h-45l30 428h1194l31 -428h-45q-92 229 -149 297t-187 67
h-149z" />
    <glyph glyph-name="tcaron" unicode="&#x165;" horiz-adv-x="669" 
d="M657 1604v-11l-213 -409h-22l41 420h194zM319 1319v-254h293v-78h-293v-678q0 -113 41 -163t126 -50t165 60l19 -25q-104 -152 -271 -151q-119 0 -189 72t-71 227v708h-139v29q168 90 279 303h40z" />
    <glyph glyph-name="Tbar" unicode="&#x166;" horiz-adv-x="1312" 
d="M754 1374v-596h245v-69h-245v-512q0 -43 9 -69q15 -43 96 -59q26 -5 93 -14v-55h-592v55q105 12 144 30q39 17 48 43t9 69v512h-246v69h246v596h-151q-129 0 -187 -67q-57 -68 -149 -297h-45l30 428h1194l31 -428h-45q-92 229 -149 297t-187 67h-149z" />
    <glyph glyph-name="tbar" unicode="&#x167;" horiz-adv-x="704" 
d="M334 1319v-254h293v-78h-293v-229h293v-74h-293v-375q0 -113 41 -163t126 -50t165 60l18 -25q-104 -152 -270 -151q-119 0 -190 72t-70 227v405h-140v74h140v229h-140v29q168 90 279 303h41z" />
    <glyph glyph-name="Utilde" unicode="&#x168;" horiz-adv-x="1456" 
d="M910 1538q-64 0 -161 60t-141 61q-86 0 -149 -117l-37 21q57 135 103 186q47 51 109 51t160 -60t142 -61q86 0 149 117l37 -20q-57 -134 -103 -186q-45 -52 -109 -52zM391 1237v-733q0 -196 93 -308t261 -112q430 0 431 436v713q0 86 -36 112t-165 37v56h461v-56
q-117 -14 -149 -39t-32 -110v-748q0 -249 -144 -377t-385 -128t-384 128t-143 384v745q0 84 -31 108t-150 37v56h553v-56q-119 -14 -149 -38t-31 -107z" />
    <glyph glyph-name="utilde" unicode="&#x169;" horiz-adv-x="1130" 
d="M688 1231q-62 0 -149 60q-88 61 -131 61t-74 -27t-66 -90l-37 20q59 139 101 189t102 49q62 0 150 -60q88 -61 131 -61t73 27t66 90l37 -21q-59 -139 -100 -188t-103 -49zM958 199q0 -55 14 -71t83 -24l53 -6v-43l-309 -75h-31l8 192q-92 -92 -173 -142t-177 -50
q-281 0 -281 319v567q0 58 -20 78t-92 29l-33 4v47l315 57h23l-10 -223v-522q0 -236 182 -236q119 0 266 117v649q0 58 -20 78t-92 29l-31 4v47l311 57h23l-9 -215v-667z" />
    <glyph glyph-name="Umacron" unicode="&#x16a;" horiz-adv-x="1456" 
d="M483 1583v100h578v-100h-578zM391 1237v-733q0 -196 93 -308t261 -112q430 0 431 436v713q0 86 -36 112t-165 37v56h461v-56q-117 -14 -149 -39t-32 -110v-748q0 -249 -144 -377t-385 -128t-384 128t-143 384v745q0 84 -31 108t-150 37v56h553v-56q-119 -14 -149 -38
t-31 -107z" />
    <glyph glyph-name="umacron" unicode="&#x16b;" horiz-adv-x="1130" 
d="M305 1276v100h514v-100h-514zM958 199q0 -55 14 -71t83 -24l53 -6v-43l-309 -75h-31l8 192q-92 -92 -173 -142t-177 -50q-281 0 -281 319v567q0 58 -20 78t-92 29l-33 4v47l315 57h23l-10 -223v-522q0 -236 182 -236q119 0 266 117v649q0 58 -20 78t-92 29l-31 4v47
l311 57h23l-9 -215v-667z" />
    <glyph glyph-name="Ubreve" unicode="&#x16c;" horiz-adv-x="1456" 
d="M772 1532q-135 0 -212 81t-77 240h54q27 -193 235 -193t236 193h53q0 -161 -77 -241t-212 -80zM391 1237v-733q0 -196 93 -308t261 -112q430 0 431 436v713q0 86 -36 112t-165 37v56h461v-56q-117 -14 -149 -39t-32 -110v-748q0 -249 -144 -377t-385 -128t-384 128
t-143 384v745q0 84 -31 108t-150 37v56h553v-56q-119 -14 -149 -38t-31 -107z" />
    <glyph glyph-name="ubreve" unicode="&#x16d;" horiz-adv-x="1130" 
d="M561 1221q-258 0 -258 325h59q14 -196 198 -196t200 196h59q0 -325 -258 -325zM958 199q0 -55 14 -71t83 -24l53 -6v-43l-309 -75h-31l8 192q-92 -92 -173 -142t-177 -50q-281 0 -281 319v567q0 58 -20 78t-92 29l-33 4v47l315 57h23l-10 -223v-522q0 -236 182 -236
q119 0 266 117v649q0 58 -20 78t-92 29l-31 4v47l311 57h23l-9 -215v-667z" />
    <glyph glyph-name="Uring" unicode="&#x16e;" horiz-adv-x="1456" 
d="M596 1679q0 76 50 126t126 50t126 -50t50 -126t-50 -126t-126 -50t-126 50t-50 126zM662 1679q0 -51 30 -85t80 -34q51 0 81 34t30 85t-30 85t-81 34q-50 0 -80 -34t-30 -85zM391 1237v-733q0 -196 93 -308t261 -112q430 0 431 436v713q0 86 -36 112t-165 37v56h461v-56
q-117 -14 -149 -39t-32 -110v-748q0 -249 -144 -377t-385 -128t-384 128t-143 384v745q0 84 -31 108t-150 37v56h553v-56q-119 -14 -149 -38t-31 -107z" />
    <glyph glyph-name="uring" unicode="&#x16f;" horiz-adv-x="1130" 
d="M385 1335q0 76 50 126t126 50t126 -50t50 -126t-50 -126t-126 -50t-126 50t-50 126zM451 1335q-1 -51 29 -85t81 -34t81 34t30 85t-30 85t-81 34t-81 -34t-29 -85zM958 199q0 -55 14 -71t83 -24l53 -6v-43l-309 -75h-31l8 192q-92 -92 -173 -142t-177 -50
q-281 0 -281 319v567q0 58 -20 78t-92 29l-33 4v47l315 57h23l-10 -223v-522q0 -236 182 -236q119 0 266 117v649q0 58 -20 78t-92 29l-31 4v47l311 57h23l-9 -215v-667z" />
    <glyph glyph-name="Uhungarumlaut" unicode="&#x170;" horiz-adv-x="1456" 
d="M1206 1843v-10l-282 -295h-39l123 305h198zM913 1843v-10l-282 -295h-39l123 305h198zM391 1237v-733q0 -196 93 -308t261 -112q430 0 431 436v713q0 86 -36 112t-165 37v56h461v-56q-117 -14 -149 -39t-32 -110v-748q0 -249 -144 -377t-385 -128t-384 128t-143 384v745
q0 84 -31 108t-150 37v56h553v-56q-119 -14 -149 -38t-31 -107z" />
    <glyph glyph-name="uhungarumlaut" unicode="&#x171;" horiz-adv-x="1130" 
d="M983 1559v-11l-287 -336h-34l122 347h199zM690 1559v-11l-287 -336h-34l123 347h198zM958 199q0 -55 14 -71t83 -24l53 -6v-43l-309 -75h-31l8 192q-92 -92 -173 -142t-177 -50q-281 0 -281 319v567q0 58 -20 78t-92 29l-33 4v47l315 57h23l-10 -223v-522
q0 -236 182 -236q119 0 266 117v649q0 58 -20 78t-92 29l-31 4v47l311 57h23l-9 -215v-667z" />
    <glyph glyph-name="Uogonek" unicode="&#x172;" horiz-adv-x="1456" 
d="M199 492v745q0 84 -31 108t-150 37v56h553v-56q-119 -14 -149 -38t-31 -107v-733q0 -196 93 -308t261 -112q430 0 431 436v713q0 86 -36 112t-165 37v56h461v-56q-117 -14 -149 -39t-32 -110v-748q0 -197 -93 -319t-251 -166q-209 -94 -209 -229q0 -106 101 -107
q88 0 174 74l20 -23q-117 -145 -254 -145q-78 0 -126 46t-48 118q0 147 219 248l-47 -2q-256 0 -399 128t-143 384z" />
    <glyph glyph-name="uogonek" unicode="&#x173;" horiz-adv-x="1130" 
d="M958 199q0 -55 14 -71t83 -24l53 -6v-43q-238 -57 -330 -125t-92 -159q0 -106 100 -107q88 0 175 74l20 -23q-117 -145 -254 -145q-78 0 -126 46t-48 122t55 132t160 105l8 197q-92 -92 -173 -142t-177 -50q-281 0 -281 319v567q0 58 -20 78t-92 29l-33 4v47l315 57h23
l-10 -223v-522q0 -236 182 -236q119 0 266 117v649q0 58 -20 78t-92 29l-31 4v47l311 57h23l-9 -215v-667z" />
    <glyph glyph-name="Wcircumflex" unicode="&#x174;" horiz-adv-x="1880" 
d="M1026 1864l266 -326h-47l-289 193l-288 -193h-47l266 326h139zM10 1438h522v-56q-104 -4 -144 -22t-40 -66q0 -12 19 -82l323 -925l238 663l-117 357q-12 41 -40 54t-81 21v56h504v-56q-104 -4 -144 -22t-40 -66q0 -18 18 -82l301 -915l309 913q20 61 21 82q0 46 -41 66
t-145 24v56h397v-56q-35 -6 -51 -10q-48 -12 -68 -65l-457 -1325h-47l-284 864l-312 -864h-49l-471 1325q-20 61 -121 75v56z" />
    <glyph glyph-name="wcircumflex" unicode="&#x175;" horiz-adv-x="1587" 
d="M874 1567l226 -355h-53l-242 222l-242 -222h-53l225 355h139zM1384 944q0 32 -30 44q-31 13 -109 24v53h332v-53q-55 -12 -73 -26t-31 -50l-373 -956h-49l-248 694l-260 -694h-47l-381 956q-15 35 -33 49t-72 27v53h449v-53q-78 -10 -109 -24t-31 -44q0 -31 9 -55
l243 -651l199 538l-57 160q-9 33 -29 47t-76 29v53h428v-53q-55 -8 -79 -14q-60 -14 -60 -60q0 -23 8 -49l223 -647l248 647q8 23 8 55z" />
    <glyph glyph-name="Ycircumflex" unicode="&#x176;" horiz-adv-x="1271" 
d="M733 1864l266 -326h-47l-288 193l-289 -193h-47l266 326h139zM723 197q0 -43 9 -69q15 -43 96 -59q26 -5 94 -14v-55h-582v55q104 12 143 30q39 17 48 43t10 69v381l-410 729q-37 63 -121 75v56h522v-56q-104 -4 -143 -19t-39 -48t37 -103l309 -544l308 542
q68 127 -3 154q-37 14 -143 18v56h404v-56q-86 -12 -121 -75l-418 -727v-383z" />
    <glyph glyph-name="ycircumflex" unicode="&#x177;" horiz-adv-x="1075" 
d="M651 1567l226 -355h-54l-241 222l-242 -222h-53l225 355h139zM735 1065h330v-53q-53 -12 -73 -28t-31 -48l-435 -1149q-47 -121 -100 -177t-141 -56q-49 0 -92 28t-56 74v59q63 -18 135 -18t126 36t89 134l39 104l-411 965q-15 35 -33 49t-72 27v53h453v-53
q-86 -10 -115 -22t-29 -38q0 -28 13 -65l278 -694l256 696q30 83 -16 101q-29 11 -115 22v53z" />
    <glyph glyph-name="Ydieresis" unicode="&#x178;" horiz-adv-x="1271" 
d="M733 1683q0 53 37 91t89 36q52 0 89 -36t37 -90t-37 -91t-89 -37t-89 37t-37 90zM342 1683q0 53 37 91t89 36q52 0 89 -36t37 -90t-37 -91t-89 -37t-89 37t-37 90zM723 197q0 -43 9 -69q15 -43 96 -59q26 -5 94 -14v-55h-582v55q104 12 143 30q39 17 48 43t10 69v381
l-410 729q-37 63 -121 75v56h522v-56q-104 -4 -143 -19t-39 -48t37 -103l309 -544l308 542q68 127 -3 154q-37 14 -143 18v56h404v-56q-86 -12 -121 -75l-418 -727v-383z" />
    <glyph glyph-name="Zacute" unicode="&#x179;" horiz-adv-x="1189" 
d="M860 1843v-10l-293 -295h-35l113 305h215zM739 68q89 0 130 28t61 45q38 34 168 265h49l-66 -406h-1038v33l831 1337h-444q-59 0 -98 -13q-69 -23 -128 -149q-22 -45 -67 -149h-47l10 379h1014v-35l-825 -1335h450z" />
    <glyph glyph-name="zacute" unicode="&#x17a;" horiz-adv-x="978" 
d="M780 1559v-11l-293 -336h-34l122 347h205zM68 0v25l616 968h-299q-90 0 -140 -60t-100 -220h-49l33 415h45l21 -69h708v-33l-604 -960h319q82 0 139 67q56 68 105 240h49l-32 -373h-811z" />
    <glyph glyph-name="Zdotaccent" unicode="&#x17b;" horiz-adv-x="1189" 
d="M595 1550q-54 0 -92 39t-38 92t38 93t92 38q54 0 92 -38t38 -92t-38 -93t-92 -39zM739 68q89 0 130 28t61 45q38 34 168 265h49l-66 -406h-1038v33l831 1337h-444q-59 0 -98 -13q-69 -23 -128 -149q-22 -45 -67 -149h-47l10 379h1014v-35l-825 -1335h450z" />
    <glyph glyph-name="zdotaccent" unicode="&#x17c;" horiz-adv-x="978" 
d="M515 1245q-54 0 -92 39t-38 92t38 92t92 39t92 -39t38 -92t-38 -92t-92 -39zM68 0v25l616 968h-299q-90 0 -140 -60t-100 -220h-49l33 415h45l21 -69h708v-33l-604 -960h319q82 0 139 67q56 68 105 240h49l-32 -373h-811z" />
    <glyph glyph-name="Zcaron" unicode="&#x17d;" horiz-adv-x="1189" 
d="M930 1864l-266 -326h-140l-266 326h47l289 -193l289 193h47zM739 68q89 0 130 28t61 45q38 34 168 265h49l-66 -406h-1038v33l831 1337h-444q-59 0 -98 -13q-69 -23 -128 -149q-22 -45 -67 -149h-47l10 379h1014v-35l-825 -1335h450z" />
    <glyph glyph-name="zcaron" unicode="&#x17e;" horiz-adv-x="978" 
d="M809 1569l-225 -355h-140l-225 355h53l242 -221l242 221h53zM68 0v25l616 968h-299q-90 0 -140 -60t-100 -220h-49l33 415h45l21 -69h708v-33l-604 -960h319q82 0 139 67q56 68 105 240h49l-32 -373h-811z" />
    <glyph glyph-name="florin" unicode="&#x192;" horiz-adv-x="1026" 
d="M803 1458q104 0 153 -41t50 -108q0 -88 -101 -119h-39q-4 219 -100 219q-102 0 -129 -190l-68 -498h224l-9 -57h-223l-55 -418q-74 -559 -400 -559q-104 0 -153 41t-49 108q0 88 100 119h39q4 -219 100 -219q102 0 129 190l99 738h-191l8 57h191l24 178q74 559 400 559z
" />
    <glyph glyph-name="Aringacute" unicode="&#x1fa;" horiz-adv-x="1425" 
d="M911 2116v-11l-270 -235h-35l90 246h215zM553 1667q0 -49 30 -79t81 -30q50 0 80 30t30 79t-30 79t-80 30t-81 -30q-30 -30 -30 -79zM487 1667q1 70 51 117t126 47t126 -47t50 -117t-50 -117t-126 -47t-126 47t-51 117zM643 1235l-262 -666h532zM414 0h-404v55
q98 14 121 76l471 1190l-57 135h205l544 -1325q25 -61 121 -76v-55h-524v55q104 5 144 23t40 57t-20 90l-115 279h-584l-108 -277q-20 -51 -20 -90t40 -58q41 -19 146 -24v-55z" />
    <glyph glyph-name="aringacute" unicode="&#x1fb;" horiz-adv-x="1007" 
d="M834 770v-543q0 -135 79 -135q37 0 95 27l10 -31q-72 -109 -197 -108q-74 0 -118 49t-52 137q-160 -186 -329 -186q-119 0 -190 70t-71 188t74 184t217 119l295 110v140q0 244 -188 243q-84 0 -125 -50t-41 -116t14 -123l-108 -16q-80 25 -80 113q0 112 103 178t263 65
q349 0 349 -315zM240 283q0 -83 46 -133t138 -50t223 109v385l-246 -100q-81 -33 -121 -81t-40 -130zM379 1292q0 -49 30 -79q31 -29 81 -29t80 30t30 78q0 49 -30 79t-81 30t-81 -30t-29 -79zM737 1743v-10l-270 -236h-35l90 246h215zM313 1292q1 70 51 117t126 47t125 -47
q51 -47 51 -117t-50 -116t-127 -48q-76 0 -126 47t-50 117z" />
    <glyph glyph-name="AEacute" unicode="&#x1fc;" horiz-adv-x="2048" 
d="M1579 1843v-10l-293 -295h-35l113 305h215zM1028 569v791l-520 -791h520zM684 1438h1233l10 -342h-41q-68 162 -130 218t-169 56h-366v-594h325q63 0 95 44t51 141h55v-437h-55q-18 96 -50 140t-96 45h-325v-502q0 -80 45 -110t155 -29h189q104 0 173 64t171 237h49
l-61 -369h-1094v55q120 14 150 38t30 108v303h-563l-182 -277q-33 -49 -33 -84q0 -88 199 -88v-55h-439v55q72 10 121 76l768 1165q-18 72 -215 86v56z" />
    <glyph glyph-name="aeacute" unicode="&#x1fd;" horiz-adv-x="1497" 
d="M1073 1559v-11l-293 -336h-35l123 347h205zM1047 1020q-113 0 -181 -93t-84 -239h488q0 150 -55 241t-168 91zM418 100q131 0 258 109q-66 127 -66 293q0 47 2 71l-211 -79q-81 -33 -121 -81t-40 -130q0 -83 46 -133t132 -50zM1062 1085q183 0 285 -116
q101 -117 101 -297v-43h-672q-10 -242 89 -377t277 -135t296 182l24 -12q-39 -139 -143 -223t-260 -84q-240 0 -365 196q-61 -80 -160 -138t-215 -58t-187 70t-71 188t74 184t217 119l269 94q10 55 24 102q-2 129 -49 213t-150 84q-76 0 -114 -50t-39 -116q0 -66 14 -123
l-108 -16q-80 25 -80 125t99 166t243 65q209 0 291 -147q127 147 310 147z" />
    <glyph glyph-name="Oslashacute" unicode="&#x1fe;" horiz-adv-x="1425" 
d="M979 1843v-10l-293 -295h-35l113 305h215zM732 47q188 0 300 193t113 460q0 267 -98 455l-621 -954q118 -154 306 -154zM697 1391q-194 -1 -306 -193t-112 -470t108 -468l623 957q-119 174 -313 174zM705 -20q-203 0 -355 106l-125 -195l-53 35l129 199q-113 99 -173 247
t-60 318q0 344 186 556t465 212q213 0 371 -119l116 181l54 -35l-121 -187q219 -206 219 -550t-187 -556t-466 -212z" />
    <glyph glyph-name="oslashacute" unicode="&#x1ff;" horiz-adv-x="1060" 
d="M797 1559v-11l-293 -336h-35l123 347h205zM520 1022q-128 0 -202 -127t-74 -327t55 -339l428 668q-78 125 -207 125zM538 43q132 0 206 127t73 330q0 203 -57 336l-430 -668q76 -125 208 -125zM524 -20q-152 0 -266 75l-96 -151l-51 30l100 158q-162 146 -162 410
t139 424t349 159q147 0 262 -75l102 157l51 -30l-106 -164q166 -150 166 -412q0 -261 -140 -421t-348 -160z" />
    <glyph glyph-name="Scommaaccent" unicode="&#x218;" horiz-adv-x="1062" 
d="M567 -303h-94q-82 16 -82 98q0 49 35 79q34 30 96 30t101 -44t39 -125t-64 -138t-184 -58v45q72 0 112 34t41 79zM506 -20q-133 0 -247 36t-181 97l-12 346h59q74 -414 381 -414q139 0 220 75q81 74 81 196t-74 191t-271 152t-289 169q-91 87 -91 250t117 272t313 108
q242 0 410 -119v-301h-60q-23 174 -112 265q-90 90 -224 90t-204 -69q-68 -70 -68 -180t62 -173t263 -147t301 -180t101 -271q0 -173 -137 -283t-338 -110z" />
    <glyph glyph-name="scommaaccent" unicode="&#x219;" horiz-adv-x="884" 
d="M496 -303h-95q-82 16 -82 98q0 49 35 79q34 30 96 30t101 -44t39 -125t-64 -138t-184 -58v45q72 0 113 34t41 79zM807 285q1 -135 -101 -220t-294 -85t-322 100l-12 282h55q90 -326 309 -325q96 0 156 49q59 49 59 138t-56 138q-56 50 -211 110q-156 60 -226 131t-70 198
t92 206t257 79t300 -87v-247h-49q-72 276 -272 276q-86 0 -134 -47t-48 -124t54 -127t204 -106t230 -130q79 -74 79 -209z" />
    <glyph glyph-name="uni0237" unicode="&#x237;" horiz-adv-x="497" 
d="M346 1085v-913q0 -135 -10 -200t-43 -132q-59 -119 -252 -297l-31 23l84 147q45 78 57 162q11 84 11 231v783l-133 72v22l293 102h24z" />
    <glyph glyph-name="circumflex" unicode="&#x2c6;" 
d="M582 1567l225 -355h-53l-242 222l-242 -222h-53l225 355h140z" />
    <glyph glyph-name="caron" unicode="&#x2c7;" 
d="M807 1569l-225 -355h-140l-225 355h53l242 -221l242 221h53z" />
    <glyph glyph-name="breve" unicode="&#x2d8;" 
d="M512 1221q-258 0 -258 325h59q15 -196 199 -196t199 196h59q0 -325 -258 -325z" />
    <glyph glyph-name="dotaccent" unicode="&#x2d9;" 
d="M511 1245q-54 0 -92 39t-38 92t38 92t92 39t92 -39t38 -92t-38 -92t-92 -39z" />
    <glyph glyph-name="ring" unicode="&#x2da;" 
d="M336 1335q0 76 50 126t126 50t126 -50t50 -126t-50 -126t-126 -50t-126 50t-50 126zM401 1335q0 -51 30 -85t81 -34t81 34t30 85t-30 85t-81 34t-81 -34t-30 -85z" />
    <glyph glyph-name="ogonek" unicode="&#x2db;" 
d="M430 -229q0 -106 100 -107q88 0 175 74l20 -23q-117 -145 -254 -145q-78 0 -126 46t-48 120t58 135t128 95t183 75l10 -25q-246 -100 -246 -245z" />
    <glyph glyph-name="tilde" unicode="&#x2dc;" 
d="M648 1231q-62 0 -149 60q-87 61 -130 61t-74 -27t-66 -90l-36 20q59 139 100 189t103 49q62 0 148 -60q86 -61 131 -61q44 0 75 27t65 90l37 -21q-59 -139 -100 -188q-42 -49 -104 -49z" />
    <glyph glyph-name="hungarumlaut" unicode="&#x2dd;" 
d="M819 1559v-11l-287 -336h-34l123 347h198zM526 1559v-11l-286 -336h-35l123 347h198z" />
    <glyph glyph-name="pi" unicode="&#x3c0;" horiz-adv-x="1118" 
d="M352 934q0 -575 -82 -934h-207v23q211 426 211 911h-233v151h1008l-35 -151h-164v-703q0 -143 121 -143q53 0 100 12l6 -22q-97 -98 -197 -98q-206 0 -206 213q0 42 8 122l66 619h-396z" />
    <glyph glyph-name="Wgrave" unicode="&#x1e80;" horiz-adv-x="1880" 
d="M711 1843h215l112 -305h-34l-293 295v10zM10 1438h522v-56q-104 -4 -144 -22t-40 -66q0 -12 19 -82l323 -925l238 663l-117 357q-12 41 -40 54t-81 21v56h504v-56q-104 -4 -144 -22t-40 -66q0 -18 18 -82l301 -915l309 913q20 61 21 82q0 46 -41 66t-145 24v56h397v-56
q-35 -6 -51 -10q-48 -12 -68 -65l-457 -1325h-47l-284 864l-312 -864h-49l-471 1325q-20 61 -121 75v56z" />
    <glyph glyph-name="wgrave" unicode="&#x1e81;" horiz-adv-x="1587" 
d="M559 1559h205l123 -347h-35l-293 336v11zM1384 944q0 32 -30 44q-31 13 -109 24v53h332v-53q-55 -12 -73 -26t-31 -50l-373 -956h-49l-248 694l-260 -694h-47l-381 956q-15 35 -33 49t-72 27v53h449v-53q-78 -10 -109 -24t-31 -44q0 -31 9 -55l243 -651l199 538l-57 160
q-9 33 -29 47t-76 29v53h428v-53q-55 -8 -79 -14q-60 -14 -60 -60q0 -23 8 -49l223 -647l248 647q8 23 8 55z" />
    <glyph glyph-name="Wacute" unicode="&#x1e82;" horiz-adv-x="1880" 
d="M1223 1843v-10l-293 -295h-35l113 305h215zM10 1438h522v-56q-104 -4 -144 -22t-40 -66q0 -12 19 -82l323 -925l238 663l-117 357q-12 41 -40 54t-81 21v56h504v-56q-104 -4 -144 -22t-40 -66q0 -18 18 -82l301 -915l309 913q20 61 21 82q0 46 -41 66t-145 24v56h397v-56
q-35 -6 -51 -10q-48 -12 -68 -65l-457 -1325h-47l-284 864l-312 -864h-49l-471 1325q-20 61 -121 75v56z" />
    <glyph glyph-name="wacute" unicode="&#x1e83;" horiz-adv-x="1587" 
d="M1071 1559v-11l-293 -336h-35l123 347h205zM1384 944q0 32 -30 44q-31 13 -109 24v53h332v-53q-55 -12 -73 -26t-31 -50l-373 -956h-49l-248 694l-260 -694h-47l-381 956q-15 35 -33 49t-72 27v53h449v-53q-78 -10 -109 -24t-31 -44q0 -31 9 -55l243 -651l199 538
l-57 160q-9 33 -29 47t-76 29v53h428v-53q-55 -8 -79 -14q-60 -14 -60 -60q0 -23 8 -49l223 -647l248 647q8 23 8 55z" />
    <glyph glyph-name="Wdieresis" unicode="&#x1e84;" horiz-adv-x="1880" 
d="M635 1683q0 53 37 91t89 36q52 0 89 -36t37 -90t-37 -91t-89 -37t-89 37t-37 90zM1026 1683q0 53 37 91t89 36q52 0 89 -36t37 -90t-37 -91t-89 -37t-89 37t-37 90zM10 1438h522v-56q-104 -4 -144 -22t-40 -66q0 -12 19 -82l323 -925l238 663l-117 357q-12 41 -40 54
t-81 21v56h504v-56q-104 -4 -144 -22t-40 -66q0 -18 18 -82l301 -915l309 913q20 61 21 82q0 46 -41 66t-145 24v56h397v-56q-35 -6 -51 -10q-48 -12 -68 -65l-457 -1325h-47l-284 864l-312 -864h-49l-471 1325q-20 61 -121 75v56z" />
    <glyph glyph-name="wdieresis" unicode="&#x1e85;" horiz-adv-x="1587" 
d="M864 1372q0 53 37 90t89 37t89 -37t37 -90t-37 -90t-89 -37t-89 37t-37 90zM494 1372q0 53 36 90q37 37 89 37q51 0 89 -37t38 -90t-38 -90q-36 -37 -88 -37t-90 37q-36 37 -36 90zM1384 944q0 32 -30 44q-31 13 -109 24v53h332v-53q-55 -12 -73 -26t-31 -50l-373 -956
h-49l-248 694l-260 -694h-47l-381 956q-15 35 -33 49t-72 27v53h449v-53q-78 -10 -109 -24t-31 -44q0 -31 9 -55l243 -651l199 538l-57 160q-9 33 -29 47t-76 29v53h428v-53q-55 -8 -79 -14q-60 -14 -60 -60q0 -23 8 -49l223 -647l248 647q8 23 8 55z" />
    <glyph glyph-name="Ygrave" unicode="&#x1ef2;" horiz-adv-x="1271" 
d="M418 1843h215l112 -305h-34l-293 295v10zM723 197q0 -43 9 -69q15 -43 96 -59q26 -5 94 -14v-55h-582v55q104 12 143 30q39 17 48 43t10 69v381l-410 729q-37 63 -121 75v56h522v-56q-104 -4 -143 -19t-39 -48t37 -103l309 -544l308 542q68 127 -3 154q-37 14 -143 18v56
h404v-56q-86 -12 -121 -75l-418 -727v-383z" />
    <glyph glyph-name="ygrave" unicode="&#x1ef3;" horiz-adv-x="1075" 
d="M336 1559h205l123 -347h-35l-293 336v11zM735 1065h330v-53q-53 -12 -73 -28t-31 -48l-435 -1149q-47 -121 -100 -177t-141 -56q-49 0 -92 28t-56 74v59q63 -18 135 -18t126 36t89 134l39 104l-411 965q-15 35 -33 49t-72 27v53h453v-53q-86 -10 -115 -22t-29 -38
q0 -28 13 -65l278 -694l256 696q30 83 -16 101q-29 11 -115 22v53z" />
    <glyph glyph-name="endash" unicode="&#x2013;" horiz-adv-x="1105" 
d="M1044 578h-983v73h983v-73z" />
    <glyph glyph-name="emdash" unicode="&#x2014;" horiz-adv-x="1966" 
d="M1905 651v-73h-1844v73h1844z" />
    <glyph glyph-name="quoteleft" unicode="&#x2018;" horiz-adv-x="405" 
d="M82 1262q0 116 72 192t202 88v-47q-80 -12 -125 -55t-51 -109h74q41 -8 68 -38q26 -31 26 -81t-37 -86t-97 -34q-60 0 -96 47t-36 123z" />
    <glyph glyph-name="quoteright" unicode="&#x2019;" horiz-adv-x="405" 
d="M204 1532q60 0 96 -47t36 -123q0 -115 -72 -192t-203 -89v47q79 12 125 55t52 109h-74q-41 8 -68 38q-26 30 -26 81t36 86q37 35 98 35z" />
    <glyph glyph-name="quotesinglbase" unicode="&#x201a;" horiz-adv-x="405" 
d="M204 240q60 0 96 -47t36 -123q0 -115 -72 -192t-203 -89v47q79 12 125 55t52 109h-74q-41 8 -68 38q-26 30 -26 81t36 86q37 35 98 35z" />
    <glyph glyph-name="quotedblleft" unicode="&#x201c;" horiz-adv-x="722" 
d="M82 1262q0 116 72 192t202 88v-47q-80 -12 -125 -55t-51 -109h74q41 -8 68 -38q26 -31 26 -81t-37 -86t-97 -34q-60 0 -96 47t-36 123zM666 1212q0 -50 -37 -86t-97 -34q-60 0 -97 47q-36 47 -36 123q0 116 72 192t203 88v-47q-80 -12 -125 -55t-51 -109h73q41 -8 68 -38
q27 -31 27 -81z" />
    <glyph glyph-name="quotedblright" unicode="&#x201d;" horiz-adv-x="722" 
d="M387 1411q0 51 37 86q38 35 98 35t96 -47t35 -123q1 -115 -71 -192t-203 -89v47q80 12 125 55t51 109h-74q-41 8 -67 38t-27 81zM204 1532q60 0 96 -47t36 -123q0 -115 -72 -192t-203 -89v47q79 12 125 55t52 109h-74q-41 8 -68 38q-26 30 -26 81t36 86q37 35 98 35z" />
    <glyph glyph-name="quotedblbase" unicode="&#x201e;" horiz-adv-x="722" 
d="M387 119q0 51 37 86q38 35 98 35t96 -47t35 -123q1 -115 -71 -192t-203 -89v47q80 12 125 55t51 109h-74q-41 8 -67 38t-27 81zM204 240q60 0 96 -47t36 -123q0 -115 -72 -192t-203 -89v47q79 12 125 55t52 109h-74q-41 8 -68 38q-26 30 -26 81t36 86q37 35 98 35z" />
    <glyph glyph-name="dagger" unicode="&#x2020;" horiz-adv-x="720" 
d="M375 1219q0 -137 82 -185v-16q-70 -104 -84 -617h-25q-14 512 -84 617v16q82 47 82 185q-49 0 -122 -27q-72 -27 -108 -27q-36 1 -56 19t-19 49q0 67 76 67q35 0 107 -26t122 -27q0 49 -27 122t-26 108q-1 75 67 75t68 -75q0 -35 -27 -108t-26 -122q49 0 122 27t107 26
q74 0 76 -67q0 -66 -76 -68q-36 0 -108 27t-121 27z" />
    <glyph glyph-name="daggerdbl" unicode="&#x2021;" horiz-adv-x="720" 
d="M41 690q0 66 76 68q35 0 107 -27t122 -26q0 100 -82 147v16q35 8 60 42q24 34 24 67t-24 67t-60 41v17q82 47 82 147q-49 -1 -122 -27t-107 -26q-76 0 -76 68t76 67q35 -1 107 -27t122 -26q0 49 -27 106t-26 93q-1 75 67 75t68 -75q0 -35 -27 -93t-26 -106q49 0 122 27
t107 26q74 0 76 -67q0 -32 -20 -50t-55 -18q-37 0 -109 27t-121 26q0 -100 82 -147v-17q-35 -8 -60 -42q-48 -65 0 -133q25 -34 60 -42v-16q-82 -47 -82 -147q49 1 122 27t109 26t54 -18q20 -18 20 -50q0 -31 -20 -49t-55 -18q-37 1 -109 27t-121 26q1 -48 27 -106t26 -93
q0 -74 -68 -76q-31 -1 -49 19t-18 56t26 93q27 57 27 107q-49 0 -122 -27t-107 -26q-76 1 -76 67z" />
    <glyph glyph-name="bullet" unicode="&#x2022;" horiz-adv-x="622" 
d="M61 616q0 102 74 176t176 74t176 -74t74 -176t-74 -176t-176 -74t-176 74t-74 176z" />
    <glyph glyph-name="ellipsis" unicode="&#x2026;" horiz-adv-x="1216" 
d="M872 121q0 59 41 100t101 41t100 -41q41 -41 41 -100t-41 -101t-100 -40q-59 0 -101 40q-41 42 -41 101zM467 121q0 59 41 100t100 41q58 0 100 -41t42 -100t-41 -101t-101 -40q-60 0 -100 41q-41 41 -41 100zM61 121q0 59 41 100q40 41 100 41t101 -41t41 -100t-41 -101
t-100 -40q-59 0 -101 40q-41 42 -41 101z" />
    <glyph glyph-name="perthousand" unicode="&#x2030;" horiz-adv-x="2256" 
d="M2195 319q0 -155 -98 -247t-235 -92t-235 93q-97 93 -97 247t97 246q97 93 235 93t235 -93q98 -93 98 -247zM2048 319q0 125 -47 207t-139 82t-138 -81t-47 -208q0 -127 46 -207q47 -80 139 -79t139 81t47 205zM209 1118q0 -125 47 -207t139 -82t139 81q46 81 46 208
t-46 207t-138 80t-140 -81q-47 -81 -47 -206zM1311 319q0 125 -47 207q-48 82 -140 82t-138 -81t-46 -208t46 -207t138 -79t140 81t47 205zM61 1118q1 154 99 247t235 93t235 -93t97 -247q0 -154 -97 -247q-96 -93 -234 -93t-236 93t-99 247zM272 -20l897 1478h78
l-897 -1478h-78zM1458 319q0 -155 -98 -247t-236 -92t-234 93q-97 93 -97 247t97 246q97 93 234 93q138 0 236 -93t98 -247z" />
    <glyph glyph-name="guilsinglleft" unicode="&#x2039;" horiz-adv-x="589" 
d="M72 555v12l389 394h57l-256 -400l256 -399h-57z" />
    <glyph glyph-name="guilsinglright" unicode="&#x203a;" horiz-adv-x="589" 
d="M518 567v-12l-389 -393h-57l256 399l-256 400h57z" />
    <glyph glyph-name="fraction" unicode="&#x2044;" horiz-adv-x="579" 
d="M-195 -20l897 1478h78l-897 -1478h-78z" />
    <glyph glyph-name="Euro" unicode="&#x20ac;" horiz-adv-x="1302" 
d="M20 811v63h189q41 270 197 428t386 156q230 0 390 -123v-315h-52q-41 184 -119 279q-79 95 -231 95t-249 -148t-119 -372h553l-29 -63h-528q-2 -23 -2 -79t2 -89h471l-29 -63h-438q49 -537 393 -537q155 0 239 99t142 298h55l-37 -350q-207 -111 -399 -110
q-268 0 -422 162t-180 438h-183v63h177v55q0 39 4 113h-181z" />
    <glyph glyph-name="uni2117" unicode="&#x2117;" horiz-adv-x="1630" 
d="M82 719q0 309 208 524t525 215t525 -215t208 -524t-208 -524t-525 -215t-525 215t-208 524zM125 719q0 -293 196 -496q197 -203 495 -203t494 203t195 496q1 293 -195 495t-495 203q-299 -1 -495 -203t-195 -495zM750 1079v-374h90q90 0 138 49t48 135t-51 138t-148 52
h-77zM852 655h-102v-221q0 -49 32 -63t111 -19v-37h-391v37q61 2 85 18t23 64v574q0 51 -23 66q-24 15 -85 18v36h350q154 0 232 -66t77 -174q-1 -106 -77 -170t-232 -63z" />
    <glyph glyph-name="trademark" unicode="&#x2122;" horiz-adv-x="1699" 
d="M1536 1438v-39q-76 -4 -80 -76l60 -477q2 -27 20 -36t61 -13v-39h-301v39q92 7 92 36q1 29 -8 80l-41 344l-194 -505h-23l-213 505l-41 -342q-6 -39 -6 -67t20 -38q20 -9 72 -13v-39h-229v39q74 2 80 49l59 477q-4 70 -82 76v39h195q6 -37 14 -58l176 -434l168 434
q12 41 15 58h186zM510 1395h-53v-537q-1 -35 23 -46t79 -15v-39h-338v39q53 4 78 15t25 46v537h-54q-59 0 -94 -36t-74 -122h-30l14 201h606l17 -201h-29q-41 86 -76 122t-94 36z" />
    <glyph glyph-name="Omega" unicode="&#x2126;" horiz-adv-x="1425" 
d="M713 1405q-100 0 -174 -55q-74 -54 -111 -146q-68 -168 -69 -384t69 -392t199 -285v-143h-494l-51 356h43q78 -147 126 -180t185 -33h121q-160 81 -288 271t-128 409q0 281 155 458t417 177q261 0 417 -177t156 -458q0 -219 -129 -409t-289 -271h121q137 0 186 33
q48 33 125 180h43l-51 -356h-493v143q129 109 199 285q71 176 71 393t-71 382q-38 91 -111 147q-74 55 -174 55z" />
    <glyph glyph-name="uni2153" unicode="&#x2153;" horiz-adv-x="1570" 
d="M1489 218q0 -104 -88 -172t-216 -66q-128 0 -202 51t-74 117t52 94h92q-8 -25 -9 -52q0 -166 154 -165q72 0 113 47t41 131q0 186 -230 186h-30l-5 33q209 66 209 186q0 51 -32 85q-33 34 -97 34q-119 0 -182 -111l-39 21q37 86 111 139t175 53t153 -48t53 -126
q0 -131 -201 -194q119 -8 185 -73q66 -66 67 -170zM301 -20l897 1478h78l-897 -1478h-78zM403 1458v-696q0 -50 34 -64t141 -20v-47h-496v47q106 6 140 20t34 64v510h-174v33l51 10q83 16 133 48t99 95h38z" />
    <glyph glyph-name="uni2154" unicode="&#x2154;" horiz-adv-x="1636" 
d="M451 766q75 0 105 19t75 100h31l-27 -254h-574v26l211 205q109 112 151 182t42 147t-40 117t-114 40q-113 0 -205 -101l-24 21q104 188 297 188q111 0 171 -61t60 -168q0 -143 -180 -296q-27 -24 -93 -81t-97 -84h211zM975 148q0 66 51 94h92q-8 -25 -8 -52
q0 -166 154 -165q72 0 112 47t41 131q0 186 -229 186h-31l-4 33q209 66 209 186q0 51 -33 85t-96 34q-119 0 -182 -111l-39 21q37 86 110 139q74 53 175 53t153 -48t53 -126q1 -131 -200 -194q119 -8 185 -73q66 -66 66 -170t-88 -172t-216 -66q-128 0 -202 51t-73 117z
M367 -20l897 1478h77l-897 -1478h-77z" />
    <glyph glyph-name="uni215B" unicode="&#x215b;" horiz-adv-x="1611" 
d="M1378 631q0 69 -42 109t-107 40t-103 -35t-36 -86q0 -96 104 -151l98 -51q86 57 86 174zM1053 203q0 -74 50 -124t126 -50t122 38t46 94q0 55 -31 89t-88 65l-125 68q-100 -59 -100 -180zM1491 647q0 -78 -53 -132t-119 -71q201 -92 201 -231q0 -111 -82 -172t-211 -61
t-211 58t-82 144t54 138t136 75q-158 80 -157 207q0 96 71 162q72 66 190 66t190 -53q72 -52 73 -130zM301 -20l897 1478h78l-897 -1478h-78zM403 1458v-696q0 -50 34 -64t141 -20v-47h-496v47q106 6 140 20t34 64v510h-174v33l51 10q83 16 133 48t99 95h38z" />
    <glyph glyph-name="uni215C" unicode="&#x215c;" horiz-adv-x="1626" 
d="M347 608q-128 0 -202 51q-73 51 -73 117t51 94h92q-8 -25 -8 -51q0 -166 153 -166q72 0 113 47t41 131q0 186 -229 187h-31l-4 33q209 66 209 186q0 51 -33 85t-96 34q-119 0 -183 -111l-38 21q37 86 110 139q74 53 175 53q102 0 154 -48t52 -126q0 -131 -201 -194
q119 -8 186 -73t67 -169t-89 -172q-88 -68 -216 -68zM315 -20l897 1478h78l-897 -1478h-78zM1393 631q0 69 -42 109q-41 40 -107 40t-103 -35t-37 -86q0 -96 104 -151l99 -51q86 57 86 174zM1067 203q0 -74 50 -124t126 -50t122 38t46 94q0 55 -31 89t-88 65l-125 68
q-100 -59 -100 -180zM1505 647q0 -78 -53 -132t-119 -71q201 -92 201 -231q0 -111 -82 -172t-211 -61t-211 58t-82 144t54 138t137 75q-158 80 -158 207q0 96 72 162q71 66 189 66t190 -53q72 -52 73 -130z" />
    <glyph glyph-name="uni215D" unicode="&#x215d;" horiz-adv-x="1613" 
d="M1380 631q0 69 -42 109t-107 40t-103 -35t-36 -86q0 -96 104 -151l98 -51q86 57 86 174zM1055 203q0 -74 50 -124t126 -50t122 38t46 94q0 55 -31 89t-88 65l-125 68q-100 -59 -100 -180zM1493 647q0 -78 -53 -132t-119 -71q201 -92 201 -231q0 -111 -82 -172t-211 -61
t-211 58t-82 144t54 138t136 75q-158 80 -157 207q0 96 71 162q72 66 190 66t190 -53q72 -52 73 -130zM514 821q0 215 -369 223l68 394h266q43 0 63 8q19 8 33 37h43l-43 -191h-333l-21 -127q182 -8 293 -82t111 -203q0 -128 -79 -200t-206 -72t-198 51q-70 51 -70 120
t51 91h90q-8 -25 -8 -51q0 -166 151 -166q78 0 118 46t40 122zM303 -20l897 1478h78l-897 -1478h-78z" />
    <glyph glyph-name="uni215E" unicode="&#x215e;" horiz-adv-x="1519" 
d="M1286 631q0 69 -42 109t-107 40t-103 -35t-37 -86q1 -96 105 -151l98 -51q86 57 86 174zM961 203q0 -74 50 -124t126 -50q75 0 121 38t46 94q0 55 -30 89q-31 34 -88 65l-125 68q-100 -59 -100 -180zM1399 647q0 -78 -53 -132t-119 -71q201 -92 200 -231q1 -111 -81 -172
t-211 -61t-211 58t-82 144t54 138t136 75q-158 80 -158 207q0 96 72 162t190 66t190 -53q72 -52 73 -130zM209 -20l897 1478h78l-897 -1478h-78zM254 1288q-43 0 -69 -30t-52 -101h-51l57 281h580v-25l-397 -805h-119l389 680h-338z" />
    <glyph glyph-name="partialdiff" unicode="&#x2202;" horiz-adv-x="1060" 
d="M532 43q138 0 212 127t73 341q0 214 -75 362q-75 149 -213 149t-212 -127q-73 -127 -73 -341t74 -363q76 -148 214 -148zM47 522q0 248 140 406q139 158 321 157q182 0 276 -145q-51 182 -198 364t-359 255l25 45q358 -117 560 -387t202 -601q0 -284 -133 -460t-349 -176
t-351 147q-134 147 -134 395z" />
    <glyph glyph-name="Delta" unicode="&#x2206;" horiz-adv-x="1273" 
d="M578 1229l-469 -1159h931zM1253 0h-1233v63l564 1375h96l573 -1375v-63z" />
    <glyph glyph-name="product" unicode="&#x220f;" horiz-adv-x="1495" 
d="M1081 1372h-667v-1575q0 -83 30 -107t150 -38v-55h-553v55q119 14 149 38t31 107v1440q0 84 -31 108t-149 37v56h1413v-56q-120 -14 -150 -38t-30 -107v-1440q0 -83 31 -107t149 -38v-55h-553v55q119 14 150 38t30 107v1575z" />
    <glyph glyph-name="summation" unicode="&#x2211;" horiz-adv-x="1081" 
d="M657 -233q156 1 214 35t151 190h39l-60 -395h-1001v53l627 815l-604 911v62h985v-342h-33q-63 152 -123 215t-174 63h-426l534 -805v-12l-610 -790h481z" />
    <glyph glyph-name="minus" unicode="&#x2212;" horiz-adv-x="1155" 
d="M129 707v106h897v-106h-897z" />
    <glyph glyph-name="radical" unicode="&#x221a;" horiz-adv-x="1161" 
d="M96 1022h-55v63h346l221 -829l439 1202h83l-534 -1458h-102l-267 911q-18 63 -44 87t-87 24z" />
    <glyph glyph-name="infinity" unicode="&#x221e;" horiz-adv-x="1501" 
d="M1102 498q104 0 164 60q59 60 59 162t-59 164q-59 60 -152 60q-121 0 -227 -125l-86 -98l86 -98q111 -125 215 -125zM387 428q-123 0 -209 79t-86 214t86 214t209 79q160 0 285 -144l78 -92l79 92q123 143 285 144q123 0 209 -79t86 -214t-86 -214t-209 -79
q-162 0 -285 143l-79 91l-78 -91q-123 -143 -285 -143zM399 944q-104 0 -163 -60q-60 -60 -60 -162t60 -164q60 -60 151 -60q117 0 227 125l84 98l-84 98q-111 125 -215 125z" />
    <glyph glyph-name="integral" unicode="&#x222b;" horiz-adv-x="802" 
d="M420 1161v-1169q0 -186 -85 -290t-235 -103q-106 0 -170 42q-63 43 -63 115t65 109h103v-82q0 -135 86 -135q71 0 95 63t24 185v1169q0 185 85 289t234 104q105 0 169 -42t64 -115t-65 -109h-102v82q0 135 -86 135q-70 0 -95 -63q-24 -64 -24 -185z" />
    <glyph glyph-name="approxequal" unicode="&#x2248;" horiz-adv-x="1175" 
d="M381 711q78 0 206 -39t204 -39q125 0 245 80v-107q-121 -80 -245 -80q-76 0 -204 39t-206 39q-119 0 -242 -80v105q121 82 242 82zM381 1006q78 0 206 -40t204 -40q121 0 245 82v-107q-125 -82 -245 -82q-76 0 -204 40t-206 40q-117 0 -242 -82v107q125 82 242 82z" />
    <glyph glyph-name="notequal" unicode="&#x2260;" horiz-adv-x="1175" 
d="M139 852v102h541l170 222h117l-170 -222h239v-102h-317l-144 -186h461v-101h-536l-170 -223h-117l170 223h-244v101h322l141 186h-463z" />
    <glyph glyph-name="lessequal" unicode="&#x2264;" horiz-adv-x="886" 
d="M102 295v104h635v-104h-635zM102 819v17l635 340v-117l-440 -232l440 -231v-117z" />
    <glyph glyph-name="greaterequal" unicode="&#x2265;" horiz-adv-x="886" 
d="M784 399v-104h-634v104h634zM784 836v-17l-634 -340v117l440 231l-440 232v117z" />
    <glyph glyph-name="lozenge" unicode="&#x25ca;" horiz-adv-x="1073" 
d="M920 719l-383 663l-383 -663l383 -664zM61 719l412 719h127l412 -719l-412 -719h-127z" />
    <glyph glyph-name="i.dot" horiz-adv-x="540" 
d="M408 1376q0 -53 -38 -92t-93 -39q-54 0 -92 39t-38 92t38 92t92 39q55 0 93 -39t38 -92zM369 1085v-929q0 -59 28 -79q29 -19 113 -24v-53h-467v53q84 3 113 23t28 80v733l-133 72v22l293 102h25z" />
    <glyph glyph-name="space_uni0326" 
d="M547 -303h-94q-82 16 -82 98q0 49 35 79q34 30 96 30t100 -44t39 -125q0 -81 -63 -138t-185 -58v45q72 0 113 34t41 79z" />
    <glyph glyph-name="space_uni0326.alt" 
d="M465 1450h94q82 -16 82 -98q0 -49 -35 -79q-34 -30 -96 -30t-100 44t-39 125q0 81 63 138t184 58v-45q-72 0 -112 -34t-41 -79z" />
    <glyph glyph-name="space_dotbelowcomb" 
d="M511 -358q-54 0 -92 39t-38 92t38 92t92 39t92 -39t38 -92t-38 -92t-92 -39z" />
    <glyph glyph-name="caron.Slovak" 
d="M627 1604v-11l-213 -409h-23l41 420h195z" />
    <glyph glyph-name="cedilla.alt" 
d="M463 -98q221 0 221 -152q0 -100 -95 -152t-255 -51l-10 54q110 -1 174 29t63 79q0 86 -178 92l41 101h39z" />
    <glyph glyph-name="grave.cap" 
d="M348 1843h215l113 -305h-35l-293 295v10z" />
    <glyph glyph-name="acute.cap" 
d="M676 1843v-10l-293 -295h-35l113 305h215z" />
    <glyph glyph-name="circumflex.cap" 
d="M582 1864l266 -326h-47l-289 193l-289 -193h-47l266 326h140z" />
    <glyph glyph-name="tilde.cap" 
d="M640 1538q-62 0 -160 60t-142 61q-86 0 -150 -117l-36 21q57 135 103 186q47 51 109 51t160 -60t142 -61q86 0 149 117l37 -20q-57 -134 -103 -186q-47 -52 -109 -52z" />
    <glyph glyph-name="macron.cap" 
d="M223 1583v100h578v-100h-578z" />
    <glyph glyph-name="breve.cap" 
d="M512 1532q-135 0 -212 81t-77 240h53q27 -193 236 -193t236 193h53q0 -161 -77 -241t-212 -80z" />
    <glyph glyph-name="dotaccent.cap" 
d="M511 1550q-54 0 -92 39t-38 92t38 93t92 38q54 0 92 -38t38 -92t-38 -93t-92 -39z" />
    <glyph glyph-name="dieresis.cap" 
d="M582 1683q0 53 36 91q38 36 90 36t89 -36t37 -90t-37 -91t-89 -37t-90 37q-36 37 -36 90zM190 1683q0 53 37 91t89 36q52 0 90 -36q36 -36 36 -90t-36 -91t-90 -37q-52 0 -89 37t-37 90z" />
    <glyph glyph-name="ring.cap" 
d="M336 1679q0 76 50 126t126 50t126 -50t50 -126t-50 -126t-126 -50t-126 50t-50 126zM401 1679q0 -51 30 -85t81 -34t81 34t30 85t-30 85t-81 34t-81 -34t-30 -85z" />
    <glyph glyph-name="hungarumlaut.cap" 
d="M819 1843v-10l-282 -295h-39l123 305h198zM526 1843v-10l-282 -295h-39l123 305h198z" />
    <glyph glyph-name="caron.cap" 
d="M848 1864l-266 -326h-140l-266 326h47l289 -193l289 193h47z" />
    <glyph glyph-name="exclamdown.cap" horiz-adv-x="487" 
d="M225 1022h35l107 -1022h-248zM102 1317q0 59 41 100t101 41t100 -41q41 -41 41 -100t-41 -100t-100 -41t-101 41q-41 41 -41 100z" />
    <glyph glyph-name="questiondown.cap" horiz-adv-x="868" 
d="M621 1317q0 -59 -42 -100q-41 -41 -99 -41t-100 41t-42 100t42 100t99 41t99 -41t43 -100zM219 240q0 -90 55 -152q56 -61 156 -61t153 62q52 62 52 159v90h149q43 -39 43 -98q1 -113 -113 -187q-114 -73 -286 -73t-280 88t-107 254q0 116 72 200q73 84 187 167t150 141
t35 147v65h21q115 -204 25 -352q-40 -66 -118 -127t-108 -91q-86 -83 -86 -232z" />
    <glyph glyph-name="guilsinglleft.cap" horiz-adv-x="589" 
d="M72 729v12l389 394h57l-256 -400l256 -399h-57z" />
    <glyph glyph-name="guilsinglright.cap" horiz-adv-x="589" 
d="M518 741v-12l-389 -393h-57l256 399l-256 400h57z" />
    <glyph glyph-name="guillemotleft.cap" horiz-adv-x="915" 
d="M397 729v12l389 394h58l-256 -400l256 -399h-58zM72 729v12l389 394h57l-256 -400l256 -399h-57z" />
    <glyph glyph-name="guillemotright.cap" horiz-adv-x="915" 
d="M518 741v-12l-389 -393h-57l256 399l-256 400h57zM844 741v-12l-389 -393h-58l256 399l-256 400h58z" />
    <glyph glyph-name="slash.cap" horiz-adv-x="770" 
d="M719 1577l-588 -1784h-80l588 1784h80z" />
    <glyph glyph-name="backslash.cap" horiz-adv-x="770" 
d="M639 -207l-588 1784h80l588 -1784h-80z" />
    <glyph glyph-name="bar.cap" horiz-adv-x="444" 
d="M260 1577v-1784h-76v1784h76z" />
    <glyph glyph-name="brokenbar.cap" horiz-adv-x="444" 
d="M260 553v-760h-76v760h76zM260 1577v-760h-76v760h76z" />
    <glyph glyph-name="periodcentered.cap" horiz-adv-x="421" 
d="M61 739q0 63 43 107q42 44 106 43q64 0 107 -43q43 -42 43 -106t-43 -107t-106 -43t-107 43q-43 43 -43 106z" />
    <glyph glyph-name="bullet.cap" horiz-adv-x="622" 
d="M61 737q0 102 74 176t176 74t176 -74t74 -176t-74 -176t-176 -74t-176 74t-74 176z" />
    <glyph glyph-name="hyphen.cap" horiz-adv-x="655" 
d="M594 692h-533v92h533v-92z" />
    <glyph glyph-name="endash.cap" horiz-adv-x="1105" 
d="M1044 700h-983v74h983v-74z" />
    <glyph glyph-name="emdash.cap" horiz-adv-x="1966" 
d="M1905 774v-74h-1844v74h1844z" />
    <glyph glyph-name="parenleft.cap" horiz-adv-x="692" 
d="M295 684q0 -262 76 -480t260 -413h-80q-193 174 -309 412q-117 237 -117 481t117 482t309 411h80q-184 -195 -260 -413t-76 -480z" />
    <glyph glyph-name="parenright.cap" horiz-adv-x="692" 
d="M397 684q0 262 -75 480q-76 218 -261 413h80q193 -174 310 -412q236 -480 0 -962q-117 -238 -310 -412h-80q184 195 261 413q75 218 75 480z" />
    <glyph glyph-name="bracketleft.cap" horiz-adv-x="638" 
d="M315 1401v-1432q0 -74 46 -94t186 -29v-53h-373v1784h373v-53q-139 -8 -185 -28t-47 -95z" />
    <glyph glyph-name="bracketright.cap" horiz-adv-x="638" 
d="M324 -31v1432q0 74 -46 94t-186 29v53h373v-1784h-373v53q140 8 186 28t46 95z" />
    <glyph glyph-name="braceleft.cap" horiz-adv-x="698" 
d="M272 901v414q0 119 94 191t240 71v-43q-92 -10 -139 -56t-47 -145v-418q0 -98 -48 -147t-159 -82q111 -33 159 -82t48 -147v-418q0 -98 47 -144t139 -57v-43q-147 0 -240 72t-94 190v414q0 170 -170 205v20q170 35 170 205z" />
    <glyph glyph-name="braceright.cap" horiz-adv-x="698" 
d="M426 471v-414q0 -119 -93 -191t-241 -71v43q92 10 139 56t48 145v418q0 98 48 147t158 82q-111 33 -159 82t-47 147v418q1 99 -47 145t-140 56v43q146 0 240 -72t94 -190v-414q0 -170 170 -205v-20q-170 -35 -170 -205z" />
    <glyph glyph-name="at.cap" horiz-adv-x="1734" 
d="M705 371q91 0 205 186t186 457q-39 76 -135 76q-143 0 -245 -184t-104 -382q0 -68 24 -110t69 -43zM1202 268q-143 0 -189 109t-7 278q-172 -385 -369 -385q-88 0 -139 68q-52 68 -52 202t73 278t192 234t237 91q118 0 191 -70l131 76h28l-53 -176l-102 -420
q-55 -227 69 -227q84 0 150 50q113 86 161 314q19 96 19 201q0 264 -141 420t-414 155q-231 0 -415 -132t-276 -337q-93 -205 -93 -436q0 -281 169 -451t451 -169q172 -1 294 33t265 116l19 -29q-111 -88 -269 -143t-325 -55q-348 0 -547 185t-199 513q0 246 115 465
t331 358t480 140q322 0 504 -170t182 -463q0 -239 -129 -431t-342 -192z" />
    </font>
</defs>
</svg>
